<svg xmlns="http://www.w3.org/2000/svg"
	 viewBox="0 0 83.4 203.3">
<style type="text/css">
	.st0{fill:#E88E02;}
	.st1{fill:#F9EBD5;}
</style>
<g>
	<path class="st0" d="M41.7,199.6c-2-2.9-1.5-4.9-1.6-6.8c-0.2-18.1-2.9-35.8-8.8-53c-2.6-7.4-5.9-14.4-10.7-20.7
		c-4-5.3-8.8-9.7-15.2-11.9c-0.8-0.3-1.7-0.7-2.4-1.2c-0.7-0.5-1.4-1.2-1.3-2.3c0.1-1.3,1.1-1.8,2.3-1.9c7.2-0.9,11.4-5.9,15.2-11.4
		c6.7-9.7,10.2-20.8,13.1-32.1c3-11.8,4.4-23.9,6.4-35.9c1-6.1,1.2-12.3,2-18.4c0.1-0.7,0-1.5,1.1-1.9c0.7,4.3,0.5,8.6,1.1,12.8
		c2.5,16.5,4.3,33.1,9,49.2c2.3,7.9,5,15.6,9.2,22.6c4.3,7.1,8.8,13.9,18.1,15.2c2.1,0.3,2.4,2.2,0.9,3.6c-0.6,0.6-1.5,1.1-2.3,1.4
		c-8.9,2.9-14.4,9.5-19.1,17c-5.3,8.6-8.6,18-10.9,27.7c-2.8,11.5-4.8,23.1-4.9,35C43,190.7,42.8,194.7,41.7,199.6z"/>
</g>
</svg>
