<svg id="Layer_1" data-name="Layer 1" xmlns="http://www.w3.org/2000/svg" viewBox="0 0 369 371"><title>tattoos</title><path d="M195.14,242.31a548.29,548.29,0,0,1-66.85-4.07C117.46,236.9,106.38,235.1,97.9,228c-6.05-5-12.43-7.92-19.61-10.68-16.32-6.26-26.6-18.89-32.42-35.22C43.46,175.37,41,168.68,36,163.25c-3-3.23-6-6.2-10.28-7.67-.75-.26-1.7-.52-1.55-1.61s1.15-1.13,1.92-.95c8.85,2.06,14.83-3.57,21.11-8.06,6.09-4.37,12.48-7,20.06-5.23,1.69.38,2.93.5,2.79-1.91-1.89-32,13.82-56.3,35.49-77.26C124,42.75,143.31,25.9,161.88,8.24c1.38-1.32,2.86-4.27,5.18-2.54s2.06,4.65.78,7.32a96.25,96.25,0,0,1-9.39,14.71c-1.11,1.52-2.51,2.46.16,4.19,3.22,2.08,2,5.33.69,8.1-3.86,8.46-10,15.31-16.09,22.13-2.35,2.61-5.11,4.4-2,8.95,2.55,3.72-.59,8-2.88,11.46-1.69,2.58-1.92,3.62.41,6.88,3.45,4.82,5,2.46,7.94.65a66,66,0,0,0,13.67-10.78c.77-.82,1.52-2.18,2.83-1.35s.58,2.14,0,3.12c-4.5,7.66-2.44,15.76-1.82,24.4,2.6-1.63,3.49-4,4.89-5.93,8.95-12.12,19.11-22.68,34.22-26.94,6.54-1.85,11.32-.31,14,4.3,2.91,5,1.15,13.68-3.75,18.36-4.63,4.43-9.76,5.2-14.92,1.71a7.53,7.53,0,0,0-7.89-.77c-10.94,4.49-18.76,12.48-25.44,22,10.28-3.47,21-5.52,30.22-11.28.87-.54,1.71-1.28,2.65-.48s.25,1.72-.33,2.13c-6,4.25-7,11-9.05,17.33-.7,2.17-1.56,4.28-2.72,7.42,10.17-4.65,19.45-9.06,27.84-14.82,17.71-12.16,34.7-25.25,50.19-40.26,6.83-6.61,13.56-13.2,19.24-20.82.8-1.08,1.43-2.55,3.06-1.71s.88,2.38.47,3.57c-2.89,8.27-7.57,15.57-12.79,22.49-17.59,23.31-38.12,43.56-62.44,59.87-.25.16-.37.51-.93,1.33,7.36-.92,14.27-2,21.22-2.62,29.65-2.58,58.88-.51,87.36,8.7,2.21.72,6.49,1.13,6,3.26-.71,3-4.3.76-6.41.38-31.74-5.72-62.68.91-93.7,6-6.41,1-12.69,2.78-19.07,4-13.88,2.61-22.85,12.26-31.79,22-1.55,1.67-1.21,3.19,1.18,3.49,6.43.8,12.25,2.68,16.91,7.59.9.94,3.17.7,4.82.79A33.7,33.7,0,0,1,211,201.25c1.88,1.19,4,2.59,4.17,4.75.41,4.38,3.34,5.06,6.73,5.81a29.75,29.75,0,0,1,10.58,4.31c1.8,1.24,3.74,2.84,3.62,5.13-.24,4.57,2.47,4.48,5.71,4.45,10.79-.12,19.67-4.6,27.15-11.95,3.95-3.88,3.53-8-.52-11.68a15.47,15.47,0,0,0-16.8-2.41c-3.68,1.86-3.93,4.12-.68,6.78,1.67,1.38,3.54,2.52,5.11,4s2.7,3.46,1.82,5.83-2.86,3-5.16,3.24c-7.1.63-15.18-5.26-15.93-11.66C236,201.1,241,195,248.69,193.64c9.21-1.62,16.94,2.42,24.38,6.93,2.79,1.69,4.08,2.74,5.5-1.45,1.58-4.63,5.28-8,9.38-10.73,5.38-3.63,11.12-6.75,15.81-11.34.74-.73,1.59-2.09,2.93-1.22,1.63,1,.39,2.42,0,3.56-1.64,5.08-.36,10.06-.29,16.46a69.65,69.65,0,0,1,32.37-22.1,24.62,24.62,0,0,1,14.75-.72c6.2,1.71,8.53,5.12,7.75,10.88-.85,6.21-5,10.4-10.78,10.48a21,21,0,0,1-6.39-.9c-16-5-27.77,3-39.09,12.87,7.91.65,15.54,3,23.46,2.14,1.13-.13,2.55-.88,3.18.36.87,1.71-1,2.12-2,2.86a21,21,0,0,0-6.57,7.41c-4.2,8.54-10.07,15.26-20.74,18.34,11.74,5.92,17.7,16.31,25.87,24.49.9.9,2.4,1.88,1.59,3.32s-2.39.56-3.59.2c-4.9-1.47-9.82-1.25-14.84-.66-9.72,1.14-19.05.38-26.53-7-1.12-1.1-2-1.71-3.33-.42-7.56,7.48-17.77,9.53-27.21,13.06-3.08,1.15-4.86,2.16-4,5.87a10.07,10.07,0,0,1-1.74,7.6c-.85,1.32-3.41,2-2.53,3.81,1,2,2.66,4.38,4.54,5,6.74,2.11,9.36,7.6,12.09,13.15s4.69,11.78,8.79,16.75c.51.63,1.18,1.37.53,2.18a1.56,1.56,0,0,1-2.26.16c-4.35-3.28-9.19-2.52-13.91-1.47-3.63.8-8.61-1.15-10.4.78s.87,6.71.57,10.4a46.87,46.87,0,0,1-3,12.59c-1.72,4.63-2.33,9.53-3.91,14.58-2.82-9.35-10.55-14.33-16.66-20.67a9.35,9.35,0,0,1-2.52-4.25c-1.24-6.08-3.6-4-7-1.57-5.24,3.82-11,7-14,13.17a1.74,1.74,0,0,1-2,1.15,1.32,1.32,0,0,1-1-1.53c.66-6.07-2.46-11.31-3.72-16.95a15.2,15.2,0,0,1,.17-8.38c.32-.91.63-2.11,2-1.71,1,.3.87,1.38.63,2.13-2.06,6.31,1.76,11.65,2.83,17.44.27,1.42,1.18,2.39,2.35,1.06,4.68-5.34,11.89-7.46,16.36-13,.77-.95,2.34-1.74,1.63-3.34-.6-1.38-2-.74-3.12-.93a49,49,0,0,0-9.38-1.23c-8.15.16-11.91-4.17-10.92-12.23.17-1.45.49-2.87.84-4.82-3.57,1-6.75,1.89-9.89.23a12.19,12.19,0,0,1-5.77-7.23,1.83,1.83,0,0,0-2.7-1.3c-13.49,5.16-28,7.54-40.54,15.3a18.74,18.74,0,0,0-5.39,5.14c-3.68,5.18-1.64,10.37,4.51,11.66,8.87,1.87,16.85-1.75,21.39-9.71,2.17-3.79,6-5.25,9.74-3.71a7.39,7.39,0,0,1,4.38,9.44c-1.93,6.3-6.91,9.32-12.87,10.51-15.65,3.13-28.47-2.5-39.13-13.67a10.29,10.29,0,0,0-8.32-3.62c-7.11-.08-12.5-4.9-17.62-9.24-2.54-2.16-2-5.87-.74-8.95.92-2.26.81-3.06-2.08-3.19-7.34-.33-10.56-3.3-12.18-10.72-.37-1.7-.69-2.66-2.71-2.67-6,0-10.35-3.47-14.4-7.2-6.95-6.41-13-13.94-22.25-17.39-.83-.3-1.56-.86-1.37-1.79.27-1.33,1.41-1.23,2.39-1a16.85,16.85,0,0,0,11.14-1.41c-6.68-6.57-10.72-6.3-16,.84-8.29,11.3-3.6,31.58,8.8,38,4.27,2.23,7,2.34,11.52.31-3.45-2.2-7.14-3.8-9.29-7.34-3.1-5.12-3-12,.44-14.22s8.71,0,12.46,5.46A15,15,0,0,1,62,289.09c-.37,3,.08,4.88,2.7,6.7,3.16,2.2,4.54,5.67,4.38,9.6,0,.88-.36,1.7-1.37,1.77-1.2.09-1.26-.82-1.2-1.68.2-2.89-1.1-5.18-3-7.16-1.16-1.21-2.41-2-4.41-1.49-13.89,3.7-22.53-.17-27.9-13.18-3.92-9.5-4-19.15,1.6-28.29,1.33-2.16,2.93-4.28,5.23-5.23,4.05-1.68,4.12-3.31,1.61-6.83-4.14-5.81-7.15-12.4-12.21-17.6-.79-.81-1.78-1.8-.75-3,.8-.92,1.86-.24,2.78.07,4.52,1.53,8.91,3.71,14.21,3.15-.93-3.3-2.66-4.83-6-5.78-9.16-2.61-15.33-9-19.42-17.45C14.8,195.52,12,188,6.3,182.08c-.6-.62-1.24-1.27-.72-2.14a1.38,1.38,0,0,1,2.16-.32c5.57,4.32,12.45,5.38,18.82,7.7,3.29,1.2,5.91,3.54,9,6.35.71-3.71-.29-6.51-.63-9.34-.11-.84-.26-1.67.7-2.13a1.32,1.32,0,0,1,1.75.52C42.85,192,53,197.34,58,207a45.37,45.37,0,0,1,5,19.17c.05.93.28,2.29-1,2.48-1.75.26-1.61-1.32-1.63-2.39-.22-15.65-9.23-26.15-21.33-35.79-.21,9.5-.26,18.42,3.37,27C44.81,223,48,227.46,54.87,228.22c4.1.45,7.73,2.58,11.07,6,1-5.44.09-10-.75-14.52-.17-.89-.66-2.08.53-2.62a2,2,0,0,1,1.73.47c4.91,5,11.6,7.86,16.45,12.94a27.35,27.35,0,0,1,4,5.7c3.22,5.82,5,6.57,11.52,4.43,9.84-3.23,14-1.78,18.76,6.95,1.26,2.32,2,2.1,4,.8,7-4.6,14.47-2.73,18.72,4.43a11.06,11.06,0,0,0,13.83,5c12.05-4.37,24.17-8.55,36.27-12.78C192.36,244.5,193.94,244.5,195.14,242.31Zm40.6-13.09c-2.28-1.72-4-1.23-5.57-1.28-24.31-.82-48.63-1.54-72.94-2.41-1.93-.07-5.51,1.05-5.44-1.51.08-2.39,3.61-1.14,5.54-1.09,24,.66,48,1.45,71.94,2.18,1.55,0,3.53.76,4.2-1.54.6-2-.4-3.57-1.94-4.76a22.51,22.51,0,0,0-8.06-3.82c-15.14-4.19-30.65-4.28-46.14-3.81-10.32.32-20.61,1.37-30.91,2-1,.06-2.64.63-2.69-1.19,0-1.26,1.33-1.24,2.28-1.39,1.15-.17,2.32-.29,3.48-.39,20.27-1.86,40.56-2.67,60.87-.68.93.09,2.06.85,2.76-.2s-.13-2.22-.69-3.2c-1.13-2-3.1-3-5-3.95a30.29,30.29,0,0,0-13-3.19c-18.37-.35-36.62,1.12-54.83,3.29-1.49.17-2.95.51-4.43.63a1.25,1.25,0,0,1-1.46-1.06c-.09-.82.51-1.21,1.14-1.37,1.3-.31,2.61-.55,3.93-.74,13.7-2,27.53-2.54,41.33-3.33,1.63-.09,3.7.75,4.88-1.55-5.22-3.67-11.09-4.31-17.11-4.23-12.86.16-25.57,2-38.28,3.68-1.32.18-2.63.48-4,.57-1.06.07-2.7.74-2.94-.83-.31-2,1.63-1.6,2.82-1.91.32-.08.65-.1,1-.15,12.4-1.57,24.77-3.34,37.26-3.93,1.07,0,2.44.42,2.9-1.48-4.5-2.43-9.42-2.82-14.42-2.78-10.53.09-20.89,1.78-31.29,3.2-1.21.17-3.1.88-3.43-.79-.39-2,1.74-1.51,2.88-1.7a218.82,218.82,0,0,1,25.28-3.05c1.62-.09,3.58.51,5.86-1.87-13.6-5.34-26.58-.89-39.43-.65,2.69-3.07,6.33-2.64,9.57-3.34,3.43-.74,7.1-.27,10.86-1.93-4.31-3.78-9-3.42-13.58-2.91-4.29.48-8.5,1.61-12.75,2.42-1.08.2-2.55.88-2.87-.82-.24-1.28,1.17-1.4,2.08-1.63a82.73,82.73,0,0,1,10.21-2.33c7.28-.84,14.77-2.06,20.13,5.07a3.09,3.09,0,0,0,2.23.89c5.86,0,11.45,1,17.57-1A494.89,494.89,0,0,1,292,147.61c1.49-.06,3.28.6,4.51-1.26a233.16,233.16,0,0,0-67.27-3.42,175.47,175.47,0,0,0-33.86,6.17c-1.36.4-3.33,1.2-3.89-.73-.62-2.09,1.54-2,2.89-2.48a53.32,53.32,0,0,0,10.76-5.25c23.54-14.81,42.9-34.15,60.22-55.66,4.51-5.6,9-11.35,11.68-18.16-2.72,2.28-5,4.9-7.45,7.34-15.25,15.21-32,28.64-49.35,41.32-13.2,9.66-27.5,17.87-43.07,22.83a168.25,168.25,0,0,1-46.14,7.95c-14.75.46-29.3,2.44-41.75,11.52-3.09,2.26-3.13-.44-3.95-2.09-6.13-12.26-23.33-17.21-34.65-9.8-5.63,3.68-10.88,8-18,10.41,9.23,7.29,13.13,17,16.47,27,3.66,11,11.05,19.32,20,26.26a38.26,38.26,0,0,0,15.72,7.32c1.86.39,3.37.66,2.84-2.18-2-10.73-1.71-21.51-1.2-32.37C87,172.58,80,166.09,71.3,168c-3.93.87-6,.7-6-3.88,0-1.37-1.07-2.45-2.15-3.25-2-1.45-4.14-4.79-5.54.67-.53,2.08-2.57,2.6-4.47,1.39s-2.56-3.18-1.17-5.16a5.82,5.82,0,0,1,6.12-2.48,12.26,12.26,0,0,1,9.33,6.8c1.23,2.49,2.32,3.34,5.21,3a14.91,14.91,0,0,1,12.25,4.58C90.38,175,98.54,179,99.8,186.63c1.35,8.23,5.92,13.84,10.14,20.08a2.11,2.11,0,0,1,.29.95c.18,2.7,1.88,3.45,4.29,3.9,5.89,1.09,11.75,2.4,17.58,3.78,1.19.28,3.22,0,3.06,2.42-1.72.67-3.28-.08-4.88-.41-5.54-1.17-11.1-2.27-16.62-3.5-1.93-.43-3,.29-3.18,2.07-.28,2.61,1.58,1.34,2.68,1.27a33.15,33.15,0,0,1,7,.37c9,1.27,15.32,6.92,21.57,12.73,5.3,4.93,11.34,8,18.72,8.29,9.66.32,19.38.14,29,1.25C206,241.77,220.13,234.38,235.74,229.22Zm53.48,2.17c-.12-9-4-17.31-11.59-23.9-1.34-1.16-3.07-2.57-3.23.68-.26,5.32-3.71,8.38-7.45,11.2-5.51,4.16-11.89,6.74-18.35,8.91-38.79,13.07-77.48,26.44-115.86,40.67-11.32,4.19-18.1,12.76-20,24.74-1.9,11.79,2,21.62,10.83,29.59,1.2,1.09,2.76,2.71,3.22-.56.78-5.68,4.65-9,9-12,7-4.9,15.2-6.56,23-9.31,36.12-12.7,72.17-25.58,108.27-38.32C280.51,258.36,289.06,246.72,289.22,231.39ZM91.45,153.1c8.46-4.45,16.32-7.68,24.92-8.17,8.89-.51,14.65-5.68,19.57-12.24,1.58-2.1,3.38-4.86.53-7-2.59-2-5.11-.94-7.49,1.41A170.92,170.92,0,0,1,107,145c-.93.66-2.09,1.8-3,.59s.56-2,1.41-2.68c4.73-3.67,9.64-7.13,14.2-11,6.6-5.59,13.14-11.31,17.63-18.86.94-1.59,2.61-3.75.52-5.38s-4.44-1.09-6.43.57c-.89.74-1.68,1.62-2.5,2.44a131.2,131.2,0,0,1-20.53,16.64c-1.32.87-3,3.34-4.45,1.34-1.25-1.78,1.61-2.38,2.79-3.3,2.76-2.14,5.73-4,8.46-6.19,8.07-6.47,16.06-13.06,21.4-22.14,1.11-1.89,2.78-4.39.25-6.29s-4.49-.11-6.36,1.86a187.5,187.5,0,0,1-22.8,20.17c-1.42,1.09-2.66,3.18-5.23,1.93.37-2.14,2.2-2.86,3.57-3.94,8.91-7,17.56-14.32,25.1-22.83,3.31-3.75,6.39-7.71,8-12.56.56-1.68.5-3.36-1-4.54-1.94-1.5-3,.25-4.18,1.33-4.26,4-8.42,8.07-12.73,12-3.7,3.35-7.55,6.55-11.37,9.77-.61.52-1.45,1-2.19.2s-.12-1.53.5-2.1,1.54-1.28,2.3-1.93c13-11.18,25.5-22.95,36.54-36.14,4.06-4.86,8-9.86,10.45-15.75.56-1.34,1.28-3-.54-4a3.32,3.32,0,0,0-4.1.84c-.67.74-1.31,1.51-2,2.26a465.24,465.24,0,0,1-35.94,36.76c-1.22,1.11-2.81,3.9-4.21,2.3-1.81-2,1.47-3,2.66-4.34,1.91-2.08,4.11-3.89,6.15-5.85,14.27-13.78,28-28,39.83-44,2.78-3.78,5.73-7.58,6.22-12.7a22.65,22.65,0,0,0-5.49,4.09c-15.21,15.17-31.22,29.49-47.26,43.75-7.43,6.61-11.52,14.18-12.52,24-.93,9.21-3.74,17.92-10.66,24.71-.91.9-1.9,1.75-.79,3.38,5.44,7.95,3.74,15.76-.74,23.43-.68,1.15-1.74,2.23-.65,3.58C91,141.11,91.87,146.58,91.45,153.1Zm-2,24.44A227.58,227.58,0,0,0,89.11,206c.4,12.6,7.11,20.12,18.45,24.52,9.92,3.84,20.24,5.26,30.7,6.2,2,.18,4.14,1,6.79-.48-4.7-2.92-7.91-6.75-11.8-9.78-7-5.49-14.78-8.28-23.72-5.51-2.82.87-3.48.06-2.48-2.5,2.94-7.48.62-13.37-5.61-17.88a6.05,6.05,0,0,1-2.7-5.92C99.12,187.5,95.27,182.53,89.5,177.54ZM98.77,71.46C93.27,77,89.94,82.37,86.61,87.68c-9.18,14.66-15,30.38-14.08,48,.12,2.26-.52,5.1,1.75,6.44A55.71,55.71,0,0,1,87.9,153.82c1.78-5.84,1-10.82-2.09-14.89-2.35-3.05-1.89-5.08,0-7.88a18.88,18.88,0,0,0,2.84-15.74,19,19,0,0,1,2.56-15.47C96.61,91.61,97.4,82.16,98.77,71.46Zm59.34,14.32c-7.49,5-14.63,8.83-20.29,14.7-.9.94-3.69,2.78-.11,3.92,4.69,1.49,3.93,4.69,2.84,8-.89,2.72-2.89,4.81-4.59,7.06-.84,1.12-1.64,2,.44,3,5,2.28,5,6.22,2.6,10.34-1.62,2.74.39,3.33,1.92,4.53,2.52,2,2.61-.65,3.43-1.74,1-1.33,1.81-2.79,2.78-4.13,5.67-7.86,11.23-15.8,11.27-26C158.42,99.15,157.23,93,158.11,85.78ZM116.78,254.61c.22-10-7.18-15.22-15.57-11.8-2.2.9-4.53,1-6.83,1.31-7.84,1.08-10.89,7.52-6.76,14.26,2,3.31,4.93,5.8,7.9,8.24,2.47,2,4.69,3.49,7.63.46a8.63,8.63,0,0,1,6.95-2.32c4.27.4,5.54-1.9,6-5.46C116.27,257.48,116.61,255.68,116.78,254.61ZM163.18,112c1-1.13,2.06-2.28,3.14-3.37,6.09-6.23,12.64-11.77,20.92-15,3.53-1.37,6.67-1.65,9.78,1a7.43,7.43,0,0,0,8.4,1.1c5.7-2.58,9.41-10.91,7.3-16.43-1.83-4.76-7.05-6.06-14.31-3.35a48.11,48.11,0,0,0-7.62,3.67c-9,5.34-16.14,12.75-22.06,21.32C166.43,104.25,163.53,107.26,163.18,112Zm-16.62,30.56c7.53-1.55,14.79-3.47,22.18-4.44,8.26-1.09,12.61-5.77,14.77-13.3.82-2.87,1.82-5.69,2.75-8.53.26-.77.8-1.57.11-2.31s-1.55-.12-2.28.13c-5.67,1.9-11.37,3.72-17,5.81a40,40,0,0,0-21.7,18.84c-.52.95-1.56,1.94-.89,3.18C145,142.76,145.94,142.59,146.56,142.54Zm178.59,68.77c-7.06.14-13.1-1.86-19.43-1.27a25.29,25.29,0,0,0-9.9,3.16c-5.85,3.23-6.4,4.62-4.86,11.08a36.28,36.28,0,0,1,.76,4.41c.86,8.07,1.57,8.56,9.7,6.28,1.59-.44,3.11-1.13,4.66-1.7C316.14,229.56,318.88,219.61,325.15,211.31ZM238,353.52c1.48-4.24,2.7-7.61,3.84-11a27.16,27.16,0,0,0-12.39-32.07c-2.26-1.29-2.9-.87-2.95,1.54a16.24,16.24,0,0,1-2.61,8.45c-4.5,7-3.69,14.8,2.23,20.76C229.88,345.05,234.57,348,238,353.52ZM32.7,227.2c2.95,4.75,5.54,8.23,7.42,12.07,6.45,13.17,17.86,16.44,31.45,16.15-1.67-3.87-3.56-7.61-4.1-11.75-.91-7-5.54-10.51-11.78-12.52C48.51,228.85,40.92,229.31,32.7,227.2Zm290.2,34.72.47-1.16c-3.75-4.38-7.3-9-11.32-13.09a29.78,29.78,0,0,0-12.85-8.23c-6.22-1.83-7.16-1.37-9.27,4.66a34.74,34.74,0,0,1-1.75,4.11c-3.28,6.52-2.72,8.37,4,11.62a36.76,36.76,0,0,0,6.11,2C306.51,264.12,314.67,260.69,322.9,261.92Zm-13.64-63.3,3.42-2.06c10.17-6.09,20.71-9.74,32.65-5.51a14.69,14.69,0,0,0,5.42.58c4.28-.17,7.15-3.37,7.9-8.18.68-4.38-1.68-6.37-5.38-7.64a19.38,19.38,0,0,0-12.23.06c-11.13,3.42-21,9-29,17.67C311,194.78,309.36,195.82,309.26,198.62ZM77.9,271.15c-.39,4.73,3.68,8.62,3.16,13.71-.45,4.35,1.41,7.88,5.66,9.54,4.79,1.87,9.1.3,13.11-2.43a1.81,1.81,0,0,0,.52-2.92,16.41,16.41,0,0,1-2.57-15.56c.28-.83.49-1.86-.29-2.27-3.94-2.08-6.59-6.16-11.28-7.07C80.73,263.08,78,265.27,77.9,271.15ZM224,308.88a17.18,17.18,0,0,0-.33-2.89c-.88-3.72-1.59-7.25-7.11-4.8-3,1.33-6.58.73-9.71-.76-1.4-.67-2.57-1.16-4.08,0-3.63,2.89-6.47,11-5.14,15.44.83,2.78,2.63,4.66,5.68,4.7a49.24,49.24,0,0,1,11.85,1.16c2.7.7,4.79-.54,6.35-2.85C223.34,316.18,224.06,313.18,224,308.88Zm78.44-126.82c-4.78,3.15-9.33,6.13-13.84,9.15a22.38,22.38,0,0,0-8,9.35c-.91,2-1.58,4,.2,6,2.59,3,5,6.08,7,8.43C303.63,209.14,306.08,197.08,302.43,182.06ZM68.86,222.94c.34,9.11-.2,17.54,2.62,25.65a38.34,38.34,0,0,0,6.79,11.5c1.86,2.29,4.47,1.74,6.36.79s-.3-2.5-.66-3.78c-1.21-4.22-1.27-8.31,1.86-11.71,1.93-2.09,1.71-3.86.67-6.27C83.12,231.26,76.18,227.52,68.86,222.94ZM46.33,260.4c6.39,4,10.47,9,15.1,13.46,3.48,3.33,7.3,6.3,12,7.84,1.2.4,2.79.86,3.83-.06,1.31-1.15,0-2.45-.52-3.53A15,15,0,0,1,76.13,266c1-2.53.16-3.64-1.71-4.86C65.62,255.47,56.6,256.44,46.33,260.4Zm203.23,60.92c5.28-.49,9.89-1,14.5-1.35,1.9-.16,1.69-1.22,1.08-2.37-2.87-5.42-4.66-11.35-8-16.54a14.46,14.46,0,0,0-4.32-4.71c-1-.6-2.4-1.51-2.85.18-1,3.83-4.66,6.08-5.55,9.9a7.71,7.71,0,0,1-5.31,6.05c-2.48.79-2.22,2-.81,3.57A16.9,16.9,0,0,0,249.56,321.32Zm-236.14-135c2.74,5.81,5.08,10.93,7.55,16A32.16,32.16,0,0,0,36,217c.85.43,1.74,1.34,2.67.53s.21-1.83-.07-2.76A44.22,44.22,0,0,1,36.56,202c0-2.55-1.27-4.23-2.78-6.12C28.69,189.55,21.28,188.39,13.42,186.33Zm133.23,74.21a15.85,15.85,0,0,1-9-7.72c-2.19-4-7.28-5-11.83-3.66-6.44,2-6.71,7.51-7.94,12.58-.33,1.38-1.63,3.31.13,4,2.69,1,4.55,5,7.74,3.42C132.16,266,138.92,263.91,146.65,260.54ZM235,288.31c-3.54-1.52-6.25-.2-7.3,4.36a4.06,4.06,0,0,1-1.27,2.13c-3.56,2.9-2.15,5.77,0,8.64a19.65,19.65,0,0,0,6.52,6.08c3.7,1.93,7.5.59,8.91-3.34a21.09,21.09,0,0,1,2.83-5.75c4.74-6.38,2.6-11-5.41-11.81C238.05,288.49,236.88,288.45,235,288.31ZM94.42,305.07a15.87,15.87,0,0,0,.48,2.17c1.12,3.12,13.5,10.09,16.69,9.57,2.42-.39,2-1.72,1.29-3.23a35.79,35.79,0,0,1-3.27-15.47c0-2.8-5.17-6.33-7.06-4.8C98.84,296.31,95.11,299.54,94.42,305.07ZM184,167.24c-9.41,2.89-18.83,5.76-28.23,8.71-1.11.35-2.91.26-2.71,2.22a3.22,3.22,0,0,0,3.2,3.18c3.14.26,6.36.38,9.2,1.82,2.46,1.26,3.91.35,5.49-1.46C175.11,176.93,179.14,172,184,167.24ZM99.57,279a13.84,13.84,0,0,0,6.24,11.51c1.24.86,2.78,2.6,4.24.75,1.29-1.65.63-3.17-1.23-4.55-3.36-2.48-5.09-5.89-2.92-10,2.36-4.45,6.31-4.89,10.72-3.45.47.15.9.43,1.38.55a2.42,2.42,0,0,0,3-1.17c.71-1.3-.06-2.21-1.14-2.85-4.35-2.57-8.82-3.71-13.71-1.41C101.75,270.52,99.73,274,99.57,279Zm127.66,4.79c-.38-.81.48-3.05-1.91-2.8-1.88.2-3.66.66-4.2,3.33-2.17,10.69-7.18,12.45-14.8,5.22-1.69-1.6-3-1.09-4.39-.3-2.06,1.16-.67,2.49.11,3.7a12.9,12.9,0,0,0,14.71,5.47A15.06,15.06,0,0,0,227.23,283.82Zm-84.31,49.69a26.29,26.29,0,0,0,12.91.86c5-.68,9.34-2.66,12.09-7.05,1.73-2.77,2.13-5.84-1.19-7.82s-5.78-.55-7.33,2.62a17.74,17.74,0,0,1-5.57,6.88C150.82,331.19,147.11,331.62,142.92,333.51Zm47.76-28.66a24,24,0,0,0,9.08-5.77c1.47-1.44,1.78-2.6.27-4.14s-1.39-4.82-4.91-3.46-7.15,2.57-10.75,3.8c-1.38.48-2.52,1.14-2,2.82C183.69,301.79,185.91,304.45,190.68,304.85Zm59.89-108.57c-6.68.94-10.29,4.08-11,9.06-.63,4.48,2.36,8.65,7.9,10.71,2.48.92,5.73,2.14,7.27-.55s-1.66-4.19-3.58-5.57C244.49,205.13,244.24,202.33,250.57,196.28ZM234.8,285.35c9.3.37,13.09-2.26,13.13-8,0-2.64-.71-4.32-3.81-3.23-4.07,1.44-8.1,3-12.21,4.29-2.43.78-2.2,2.47-2,4.36.19,2.21,1.51,2.71,3.42,2.6A6.8,6.8,0,0,1,234.8,285.35ZM59.54,288.84a15.26,15.26,0,0,0-6.06-12.33c-1.57-1.11-3.21-2-5-.93s-1.85,3-1.73,4.89c.31,4.73,4.17,9.18,9,11C58.83,292.6,59.63,291.28,59.54,288.84Zm57-11.69c-.19-1.91-1.87-1.84-3.29-1.85-3,0-5.13,1.34-5.39,4.54a4.86,4.86,0,0,0,3.15,5.09C111.68,285.24,116.47,278.6,116.52,277.15ZM216.2,284c-1.95.75-4.31,1.55-6.57,2.59-1.18.55-.93,1.78-.25,2.55,1.24,1.4,2.73,2.54,4.81,1.91,2.55-.77,3.57-2.81,4.06-5.19a1.4,1.4,0,0,0-1.12-1.86A8.41,8.41,0,0,0,216.2,284ZM130.62,143.56c2.28-.16,4.56-.31,6.84-.51,1.43-.12,2.81-.55,2.43-2.36-.31-1.48-1.55-2-3-2C133.84,138.62,132.21,140.74,130.62,143.56Z"/><path d="M205.16,263.65c-1.57,2.79-3.14,3.77-2.89,5.94.74,6.65-2.4,11.18-8.51,13.62-6.51,2.6-12.63,1.43-17.56-3.3-2.55-2.45-4.49-3.79-7.49-1.35a11.44,11.44,0,0,1-.61-1c3.71-2.84,3.35-7.2,4.51-11.11,3-10,16.61-12.74,25.15-5.28C199.59,262.8,201,265.06,205.16,263.65ZM193.21,270c-.51-2.3,1.06-2.94,2.32-3.54,2.1-1,1.62-2.07.4-3.39-2.56-2.8-9.63-4.31-13.06-2.78-2.44,1.08-3,3.09-2.22,5.36.84,2.44,2.75,2.59,4.86,1.53.94-.48,2-2,2.86-.42s-.75,2.33-2,2.87c-3.1,1.41-5.78.89-8-1.87-.73-.92-.33-2.74-2.29-2.82-1.4,2.55-3,6.9-.88,7.57,4.05,1.25,1.22,4.57,3.38,6.27,5.89,4.62,15.47,3.73,19.49-2.34,1.55-2.34,2.63-5.22,1-7.44S195.55,270.25,193.21,270Z"/><path d="M219.91,274c-.95-2.51,4.07-3.69.68-5.8s-5.36-8.28-11.62-4c2-3.59.79-5.58-1.83-7.57-4.95-3.74-4.84-3.89-9.11-2.26-.67-2.54,1.38-3.08,2.83-3.86a19.36,19.36,0,0,1,3.73-1.37c1.53-.45,2.92-3,4.25-1.65,1.85,1.9-1.18,2.39-2,3.57a2.06,2.06,0,0,0-.39,1.34c.18,1.24,8.13,6.89,9.45,6.55,2-.53,3.49-1.57,2.58,2.14-.74,3,2.84,3.88,4.86,5.27.59.41,1.22-.59,1.13-1.21-.28-2,1.77-4.36-.92-5.81-1.13-.6-1.81-1.35-.64-2.08,3.38-2.11,2.6-5.53,2.83-8.52.09-1.27,2.26-5.38-2.55-3.1-.22.11-1-.34-1.09-.67a1.65,1.65,0,0,1,1.05-2c2.72-1.18,5.48-2.27,8.26-3.32a1.22,1.22,0,1,1,.62,2.36c-5,2.4-2.88,7.2-3.88,11-.8,3,4.41.56,3,3.63-.72,1.61-3.7,1-3.61,3.56,0,1.49-.31,3-.26,4.48,0,1.23-1,2.82.61,3.62,1.23.61,2.11-.56,3-1.28s1.78-1.48,2.58-.53c1,1.2-.17,2.12-1,2.83-1.86,1.52-4.1,2-6.43,2.51A44.15,44.15,0,0,0,219.91,274Z"/><path d="M241.09,267.07c5.46-4,6-8.16,2.57-13.36-1.47-2.25-3.11-.47-4.73-.64,3.09-6.44,1.55-10.18-4.69-11.1,4.51-3.79,8.54-7.53,14.06-9.19,2.73-.82,4.53-.51,5,2.72.11.77.88,1.59.07,2.26-1.05.88-1.72,0-2.41-.74-3.42-3.82-5.5.64-8.07,1.49-2.79.91-1.5,2.91-.78,4.88,1.24,3.39,2.19,5.45,6.63,3.21,3.17-1.6,2.84,2.31,3.86,3.94-1.57,1.46-2.21-.09-3.19-.38-2.58-.78-4.28.35-3.08,3s1.13,7.2,4.7,7.4c4.74.27,9.71-.92,13.33-4.48,1.59-1.56.91-3.38-1.55-4-.79-.2-1.75-.56-1.41-1.63s1.46-1.11,2.49-.94a4.72,4.72,0,0,1,3.29,7.27c-1.39,2.44-3.74,3.72-6.26,4.68C254.62,263.78,247.39,262.76,241.09,267.07Z"/><path d="M139.05,288c5.34-3.57,2.36-6.85.94-10.11-.47-1.09-1.18-2.16-2.63-1.51-.9.41-1.8,1.27-2.22-.35-.25-1,.67-1.36,1.32-1.88,2-1.65,4.76-1.37,7-2.44a1.45,1.45,0,0,1,1.31.4c.41.56.17,1.16-.28,1.77-2.23,3.08-1.15,8.07,2.26,9.76,1,.52,2.66.39,1.7,2-2.1,3.58,1.11,5.87,1.91,8.71.42,1.5,2,1.57,3.4,1.24,4.38-1,8.72-2.16,12.37-5,2.68-2.12,4-4.19.32-6.56-.81-.52-2-1-1.06-2.18.77-1,1.81-.43,2.71,0,4.37,2,4.31,7.68-.29,11A32.59,32.59,0,0,1,152,298.46c-5.29.57-10.6,1.07-14.9,6.1-.34-4.86,3.09-5.31,5.21-7,1.58-1.27,6.16.77,4.69-3.82C146,290.46,145,286.7,139.05,288Z"/></svg>