<?xml version="1.0" encoding="utf-8"?>
<!-- Generator: Adobe Illustrator 24.0.1, SVG Export Plug-In . SVG Version: 6.00 Build 0)  -->
<svg version="1.1" id="Layer_1" xmlns="http://www.w3.org/2000/svg" xmlns:xlink="http://www.w3.org/1999/xlink" x="0px" y="0px"
	 viewBox="0 0 212.7 95" style="enable-background:new 0 0 212.7 95;" xml:space="preserve">
<style type="text/css">
	.st0{fill:#F9EBD5;}
	.st1{fill:#E68E02;}
</style>
<g>
	<path class="st0" d="M24.7,36.9c0.1-0.1,0.1-0.1,0.1-0.1c0.2-1.9,0.1-3.8-0.5-5.6c-0.3-0.8-0.8-1.5-1.5-2c-0.5-0.3-1-0.7-1.5-0.9
		c-0.8-0.4-1-0.9-0.9-1.8c0.1-0.7,0.4-1.3,0.9-1.8c0.2-0.3,0.5-0.4,0.9-0.4c0.3,0,0.6-0.1,0.8-0.3c1.1-0.8,1.7-1.8,2.2-3
		c0.7-1.9,1.1-3.8,1.3-5.8c0.2-1.8,0.9-3.2,2.3-4.2c0.2-0.1,0.2-0.3,0.2-0.4c0.2-1,0.7-1.8,1.7-2.3c0.9-0.5,1.5-1.1,1.7-2.1
		c0.1-0.7,0.3-1.3,0.4-2c0.1-1.2,0.7-2,1.9-2.3c1.1-0.3,2.1,0,2.8,1c0.5,0.7,0.7,1.6,0.8,2.4c0.1,0.5,0.1,0.9,0.2,1.4
		C38.4,7,38.6,7.3,39,7.4c0.1,0,0.2,0.1,0.3,0.1c0.9,0.3,1.7,0.8,1.9,1.9c1.5-1,3-1.7,4.7-2.2c2.7-1,5.6-1.5,8.4-1.9
		c3.3-0.4,6.6-0.5,9.9-0.4c4.9,0.2,9.7,0.9,14.4,2.5c2.7,0.9,5.4,1.3,8.2,1.5c3.2,0.2,6.3,0.2,9.5,0c1.9-0.2,3.8-0.5,5.7-0.9
		c1.6-0.4,3.2-0.7,4.8-0.8c2.1-0.2,4.2-0.3,6.4-0.3c4.6,0.2,9.2,0.9,13.5,2.8c0.6,0.3,1.3,0.6,1.9,1c1.1,0.8,2.4,1.2,3.7,1.5
		c3.6,0.9,7.2,1.6,10.9,2.2c2.6,0.4,5.1,0.7,7.7,0.9c0.7,0.1,1.4,0.1,2.1,0.1c0.3,0,0.4-0.1,0.5-0.4c0.2-0.8,0.7-1.2,1.5-1.5
		c0.2-0.1,0.4-0.2,0.5-0.2c0.4-0.2,0.6-0.5,0.6-0.9c0.1-0.4,0.1-0.8,0.2-1.2c0.2-0.8,0.7-1.4,1.5-1.7c0.2-0.1,0.3-0.2,0.3-0.3
		c0.3-1,0.9-1.6,1.9-1.8c0.5-0.1,0.8-0.4,1-0.8c0.2-0.5,0.4-0.9,0.5-1.5c0.1-0.4,0.2-0.9,0.3-1.3c0.3-0.8,1-1.3,1.8-1.3
		c0.8,0,1.5,0.5,1.8,1.4c0.1,0.4,0.2,0.7,0.3,1.1c0.1,0.2,0.1,0.5,0.2,0.7c0.2,0.9,0.7,1.6,1.7,1.8c0.3,0.1,0.6,0.5,0.9,0.4
		c0.3-0.1,0.5-0.4,0.8-0.5c1.1-0.7,2.4-1.1,3.7-1.3c3.5-0.4,6.9,0.2,10,1.8c1.4,0.7,2.7,1.6,3.7,2.9c0.6,0.8,1.1,1.6,1.2,2.6
		c0.2,1.5-0.3,2.7-1.4,3.6c-0.7,0.7-1.6,1.1-2.5,1.4c-0.6,0.2-0.6,0.2-0.5,0.9c0.8-0.1,1.6-0.3,2.5-0.3c5-0.5,9.9-0.1,14.6,1.9
		c1.4,0.6,2.7,1.4,3.9,2.4c1.2,1,2.1,2.2,2.6,3.7c0.2,0.7,0.4,1.3,0.3,2.1c-0.1,0.7,0,1.3,0,2c-0.1,11.6-0.2,23.1-0.2,34.7
		c0,3.2-1.4,5.5-3.7,7.5c-0.2,0.1-0.4,0.2-0.5,0.5c1.1,0,2.1,0.2,3.1,0.5c1.2,0.4,2.4,1,3.3,1.9c0.6,0.6,0.9,1.3,1.1,2.1
		c0.3,1.3-0.2,2.4-1.1,3.4c-0.2,0.2-0.4,0.3-0.7,0.5c0.1,0.2,0.3,0.3,0.5,0.4c1,0.8,1.7,1.9,1.9,3.2c0.2,1.2-0.6,2.6-1.5,3.1
		c-0.9,0.5-1.9,1-3,1.2c-0.4,0.1-0.7,0-1.1,0c-6.3,0.2-12.6,0.3-18.9,0.5c-2.8,0.1-5.5,0.1-8.3,0.2c-7.2,0.2-14.4,0.4-21.6,0.6
		c-4.3,0.1-8.6,0.2-12.9,0.3c-7.3,0.2-14.5,0.4-21.8,0.6c-4.4,0.1-8.8,0.2-13.2,0.3c-7.4,0.2-14.7,0.4-22.1,0.6
		c-4.9,0.1-9.7,0.3-14.6,0.3c-0.7,0-1.4-0.1-2.1-0.5c-0.8-0.4-1.2-1-1.3-1.9c-0.1-1.1,0-2.1,0.1-3.1c0.1-0.6,0.1-1.2,0.1-1.7
		c0-0.3-0.1-0.4-0.3-0.5c-0.5-0.2-1-0.4-1.3-0.8c-0.2-0.2-0.4-0.1-0.6-0.1c-1.6,0.3-3.1,0.5-4.7,0.8c-3.7,0.6-7.3,1.2-11,1.9
		c-3.9,0.7-7.9,1.3-11.8,2c-3.4,0.6-6.8,1.2-10.2,1.7c-3.5,0.6-6.9,1.1-10.4,1.8c-1.8,0.3-3.6,0.6-5.4,0.4c-2.5-0.2-4.9-0.9-6.9-2.5
		c-1.7-1.3-2.7-3-3-5.2c-0.1-0.7,0.1-1.4,0.1-2c0.1-1.8,0.2-3.7,0.3-5.5c0.1-1.9,0.2-3.8,0.4-5.7c0.2-3,0.4-5.9,0.6-8.9
		c0.2-3,0.4-6.1,0.6-9.1c0.2-2.9,0.4-5.8,0.5-8.7c0.1-1,0.4-1.9,0.9-2.7c0.8-1.7,2-3,3.4-4.1c2.6-2,5.7-3.1,9-3.2
		c1.9-0.1,3.8,0.3,5.5,1.2C24.5,36.8,24.6,36.8,24.7,36.9z M168.5,8.8c-0.5-0.7-1.1-0.9-1.7-1.2c-0.6-0.2-0.9-0.7-1.2-1.2
		c-0.2-0.4-0.3-0.9-0.4-1.4c-0.1-0.5-0.2-0.9-0.4-1.4c-0.2-0.5-0.7-0.8-1.2-0.8c-0.5,0-0.9,0.3-1.1,0.8c-0.2,0.4-0.2,0.7-0.3,1.1
		c-0.1,0.5-0.2,0.9-0.4,1.4c-0.3,0.9-0.8,1.5-1.8,1.7c-0.5,0.1-1,0.5-1.2,1c-0.2,0.6-0.6,0.9-1.1,1.2c-0.5,0.3-0.8,0.7-0.9,1.3
		c-0.1,0.3-0.2,0.7-0.2,1c-0.1,0.7-0.5,1.2-1.1,1.5c-0.2,0.1-0.4,0.2-0.6,0.3c-0.5,0.2-0.8,0.6-0.9,1.1c-0.2,0.7-0.3,0.7-1,0.7
		c-1.3,0-2.6-0.1-3.9-0.2c-2.4-0.3-4.8-0.6-7.1-1c-3.5-0.6-7-1.2-10.4-2.2c-0.9-0.3-1.8-0.5-2.6-1c-1.6-1-3.4-1.8-5.2-2.3
		c-3.2-1-6.6-1.5-10-1.7c-3.4-0.2-6.8,0.1-10.2,0.8c-1.4,0.3-2.7,0.8-4.2,0.9c-2.4,0.3-4.9,0.5-7.3,0.5c-2.9,0-5.7-0.1-8.5-0.5
		c-1.5-0.2-3-0.5-4.4-1c-1.2-0.4-2.5-0.8-3.7-1.1c-3.6-0.9-7.3-1.4-11.1-1.6c-4.9-0.3-9.7,0-14.5,1.1c-3.1,0.7-6.1,1.7-8.7,3.5
		c-0.1,0.1-0.2,0.1-0.3,0.2c-0.2,0.1-0.4,0-0.3-0.3c0.1-0.6-0.1-1-0.5-1.4c-0.3-0.3-0.7-0.4-1.1-0.6c-0.7-0.2-1.1-0.8-1.2-1.5
		c-0.1-0.6-0.2-1.2-0.2-1.8c-0.1-0.6-0.3-1.2-0.6-1.7c-0.5-0.7-1.2-0.9-2.1-0.7c-0.9,0.3-1.4,0.8-1.5,1.7c-0.1,0.9-0.3,1.8-0.5,2.6
		c-0.2,0.9-0.8,1.5-1.6,1.9c-0.3,0.1-0.5,0.3-0.8,0.5c-0.6,0.5-0.9,1.1-1,1.8c0,0.2,0,0.4-0.3,0.5c-1.2,0.7-1.9,1.7-2.1,3.1
		c-0.3,2.2-0.6,4.5-1.4,6.6c-0.3,1-0.9,1.8-1.6,2.6c-0.6,0.6-1.2,1.2-2.2,1.2c-0.2,0-0.3,0.1-0.4,0.2c-0.4,0.5-0.7,1.1-0.7,1.8
		c0,0.3,0.1,0.6,0.5,0.7c0.5,0.2,1,0.6,1.4,0.8c1.2,0.7,1.9,1.7,2.2,3c0.4,1.4,0.5,2.8,0.5,4.3c0,0.4-0.1,0.9-0.2,1.3
		c-0.2,0.6-0.2,0.6-0.7,0.3c-0.8-0.5-1.7-0.8-2.6-1c-3.1-0.7-6.1-0.2-8.9,1.1c-2.2,1-4.1,2.5-5.5,4.6c-0.8,1.2-1.3,2.5-1.3,4
		c-0.1,1.6-0.2,3.3-0.3,4.9c-0.2,2.9-0.4,5.8-0.6,8.7c-0.2,3-0.4,6-0.6,9c-0.2,2.9-0.4,5.7-0.6,8.6c-0.2,2.2-0.3,4.5-0.5,6.7
		C3.6,85.8,4,87.4,5,88.7c0.9,1.2,2,2,3.3,2.6c2.6,1.3,5.4,1.5,8.3,1.1c2.8-0.4,5.5-0.9,8.3-1.4c4.7-0.8,9.4-1.6,14.1-2.4
		c4.9-0.8,9.9-1.7,14.8-2.5c4.4-0.7,8.8-1.5,13.2-2.2c0.1,0,0.3-0.1,0.4,0.1c0.4,0.6,1.1,0.8,1.7,1.1c0.2,0.1,0.3,0.2,0.3,0.4
		c0.1,0.5,0,1,0,1.5c-0.1,1.1-0.3,2.3-0.2,3.4c0.1,1.2,0.3,1.6,1.5,1.9c0.9,0.3,1.9,0.5,3,0.3c0.2,0,0.5,0,0.7,0
		c4.3-0.1,8.6-0.3,12.9-0.4c6.6-0.2,13.3-0.4,19.9-0.5c4.7-0.1,9.5-0.3,14.2-0.4c7.1-0.2,14.3-0.4,21.4-0.5
		c8.3-0.2,16.5-0.4,24.8-0.6c7.7-0.2,15.4-0.4,23.1-0.6c5.1-0.1,10.2-0.3,15.4-0.4c1.4,0,2.7-0.6,3.7-1.6c0.7-0.6,0.8-1.4,0.7-2.3
		c-0.1-0.6-0.4-1.1-0.7-1.6c-0.5-0.6-1.1-1.1-1.7-1.5c-0.3-0.2-0.3-0.4,0-0.6c0.2-0.1,0.3-0.2,0.5-0.3c1.2-0.7,2.1-2.3,1.2-4.1
		c-0.5-1-1.4-1.7-2.4-2.2c-1.6-0.8-3.2-1.1-5-1.1c-0.3,0-0.7,0.2-0.8-0.2c-0.1-0.3,0.3-0.4,0.6-0.5c2.8-1.8,4.6-4.2,4.6-7.7
		c0-12,0.1-24,0.2-36c0-0.4,0.1-0.9,0-1.3c-0.1-1.5-0.9-2.8-1.9-3.9c-1.1-1.2-2.5-2.1-4-2.8c-3.1-1.5-6.5-2.1-9.9-2.3
		c-2.4-0.1-4.8,0.1-7.1,0.4c-0.9,0.1-0.9,0.2-1-0.7c-0.1-0.9-0.1-0.9,0.7-1.2c1-0.3,2-0.8,2.8-1.6c1-1,1.2-2.2,0.8-3.5
		c-0.2-0.7-0.6-1.2-1-1.8c-0.8-0.9-1.7-1.7-2.8-2.3c-3.2-1.8-6.6-2.6-10.2-2.2c-1.4,0.1-2.7,0.5-3.8,1.3
		C169.1,8,168.7,8.2,168.5,8.8z"/>
	<path class="st1" d="M71.4,81.5c-1.2,0-2.3,0.3-3.4,0.5c-7.9,1.3-15.8,2.6-23.7,3.9c-4.8,0.8-9.6,1.6-14.5,2.4
		c-3.7,0.6-7.4,1.2-11.2,1.8c-0.7,0.1-1.4,0.2-2,0.3c-3.1,0.3-5.9-0.4-8.4-2.3c-1-0.8-1.7-1.8-2-3.2c-0.3-1.5-0.2-3.1-0.2-4.6
		c0.1-2.5,0.3-5,0.5-7.5c0.3-4.3,0.6-8.7,1-13c0.2-3.1,0.5-6.2,0.7-9.2c0.1-1.2,0.2-2.4,0.3-3.6c0.2-1.6,0.8-3,1.9-4.2
		c2.6-2.9,5.9-4.1,9.8-3.8c1.7,0.1,3.2,0.7,4.5,1.7c2.1,1.5,3.1,3.5,3.1,6.1c0,0.1,0,0.2,0,0.3c0,0.2,0.1,0.3,0.3,0.2
		c0.1,0,0.2,0,0.3-0.1c3.7-0.9,7.5-1.5,11.2-2.1c8.6-1.4,17.1-2.8,25.7-4.2c7.9-1.3,15.8-2.5,23.8-3.8c6.8-1.1,13.7-2.2,20.5-3.3
		c7.4-1.2,14.9-2.4,22.3-3.5c6.1-1,12.2-1.9,18.3-2.9c7.5-1.2,14.9-2.4,22.4-3.5c4.2-0.7,8.4-1.3,12.6-2c4.1-0.6,8.1-0.6,12.1,0.6
		c2,0.6,3.9,1.4,5.5,2.8c0.6,0.5,1.1,1.2,1.5,1.9c0.4,0.8,0.6,1.6,0.6,2.5c-0.1,2.3,0,4.5,0,6.8c0,7.3-0.1,14.5-0.1,21.8
		c0,2.6-0.1,5.3-0.2,7.9c-0.1,2.1-1.2,3.7-2.8,5c-1.2,0.9-2.5,1.7-4,2.1c-1.7,0.5-3.4,0.8-5.2,0.8c-2,0-3.8-0.8-5.4-1.8
		c-0.7-0.5-1.2-1.2-1.6-2c-0.4-0.9-0.3-1.8,0.3-2.7c0.9-1.3,2-2.1,3.5-2.7c2.1-0.7,4.1-0.8,6.2-0.1c0.6,0.2,1.1,0.5,1.5,1
		c0.7,1,0.3,2.1-0.9,2.3c-0.5,0.1-1,0-1.4-0.3c-0.6-0.5-1.4-0.7-2.2-0.6c-1.1,0-2.2,0.4-3,1.2c-0.6,0.6-0.6,1,0.1,1.5
		c0.7,0.5,1.5,0.9,2.4,1.1c0.6,0.1,1.2,0.1,1.9,0c1.6-0.2,3.1-0.6,4.4-1.4c0.9-0.5,1.6-1.2,2-2.1c0.4-0.8,0.4-1.6-0.1-2.3
		c-0.4-0.6-0.9-1.1-1.5-1.4c-1.6-1-3.4-1.2-5.2-1c-1.7,0.2-3.4,0.5-5.1,0.8c-5.4,0.8-10.8,1.7-16.1,2.5c-5,0.8-10.1,1.6-15.1,2.4
		c-6,0.9-11.9,1.9-17.9,2.8c-5.6,0.9-11.3,1.7-16.9,2.6c-6,0.9-11.9,1.9-17.9,2.8c-7.1,1.1-14.2,2.2-21.4,3.3
		c-3.5,0.5-6.9,1.1-10.4,1.6C72.1,81.3,71.8,81.3,71.4,81.5C71.4,81.5,71.4,81.5,71.4,81.5z M189.9,55.8c0-0.2,0.1-0.2,0.3-0.3
		c0.3-0.1,0.7-0.2,1-0.2c0.9-0.1,1.7-0.1,2.6-0.2c1.1-0.2,2.3-0.2,3.4,0.1c0,0,0.1,0,0.2-0.1c-0.5-0.6-1-1-1.7-1.3
		c-1.9-0.9-3.8-0.9-6-0.4c0.3-0.3,0.5-0.3,0.7-0.4c0.9-0.3,1.9-0.5,2.8-0.9c1.3-0.5,2.6-0.5,4,0c0.2,0.1,0.4,0.2,0.6,0.1
		c0-0.1-0.1-0.2-0.1-0.2c-1-0.7-2-1.4-3.2-1.5c-0.1,0-0.3-0.1-0.4-0.1c-1.2-0.4-2.3-0.6-3.6-0.5c0-0.2,0.2-0.2,0.3-0.3
		c1.1-0.4,2.2-0.6,3.3-0.8c1.3-0.2,2.6,0.2,3.8,0.6c-2-2-4.4-2.6-7.2-2.5c0.2-0.2,0.3-0.2,0.5-0.2c0.9-0.2,1.8-0.3,2.7-0.4
		c1.4-0.2,2.7-0.2,4,0.3c0.1,0,0.2,0,0.2-0.1c-0.4-0.4-0.9-0.6-1.3-0.8c-1.5-0.6-3-1-4.6-1.3c-0.6-0.1-1.3-0.2-2-0.5
		c0.5-0.3,0.9-0.3,1.4-0.3c1.1,0,2.2,0.1,3.3,0c0.9-0.1,1.7,0,2.6,0.2c0.1,0,0.3,0.1,0.5-0.1c-0.1-0.1-0.1-0.1-0.2-0.1
		c-1.1-0.5-2.2-1-3.3-1.4c-0.2-0.1-0.4-0.1-0.6-0.2c-0.9-0.2-1.8-0.3-2.7-0.4c-0.3,0-0.6,0-0.9-0.1c0-0.1,0-0.1,0-0.2
		c2.7-0.2,5.3-0.7,8.1-0.4c-0.5-0.4-0.9-0.7-1.3-0.9c-0.5-0.3-1.1-0.5-1.6-0.8c-0.9-0.6-1.9-0.9-2.9-1.1c-0.5-0.1-1-0.2-1.5-0.2
		c0.8-0.3,1.6-0.3,2.4-0.3c0.6,0,1.2,0,1.9-0.1c1-0.2,2-0.1,3,0.3c0.2,0.1,0.4,0.2,0.6,0.1c0-0.2-0.1-0.2-0.2-0.3
		c-0.5-0.6-1.2-1-1.9-1.3c-0.5-0.2-1-0.4-1.4-0.6c-0.9-0.5-1.9-0.7-2.9-0.9c-0.7-0.1-1.4-0.1-2.1-0.2c0.5-0.3,1.1-0.3,1.6-0.4
		c0.6,0,1.1-0.1,1.7-0.1c0.5,0,1.1,0,1.6-0.1c0.6,0,1.1-0.1,1.7,0c0.5,0,1,0.3,1.6,0.3c-0.6-0.7-1.4-0.9-2.1-1.2
		c-0.7-0.4-1.4-0.7-2.2-0.8c-0.8-0.1-1.6-0.1-2.3-0.3c1.8-0.6,3.6-0.7,5.6-0.9c-0.4-0.3-0.8-0.4-1.2-0.5c-0.5-0.1-1-0.3-1.5-0.5
		c-1.1-0.5-2.2-0.7-3.4-0.8c-0.1,0-0.3,0-0.5-0.1c0.4-0.2,0.8-0.3,1.2-0.3c0.4-0.1,0.8-0.1,1.1-0.2c0.4-0.1,0.7-0.1,1.1-0.2
		c0.4-0.1,0.8-0.2,1.1-0.2c0.4,0,0.7,0,1.1,0c-0.3-0.2-0.7-0.3-1-0.4c-0.4-0.2-0.9-0.2-1.3-0.4c-0.9-0.5-2-0.7-3-0.7
		c-0.1,0-0.3,0.1-0.3-0.1c0.4-0.2,0.7-0.3,1.1-0.3c0.7-0.1,1.3-0.2,2-0.4c0.8-0.2,1.5-0.2,2.3-0.1c0.2,0,0.4,0.1,0.7,0
		c-0.2-0.1-0.3-0.2-0.5-0.2c-0.8-0.3-1.6-0.5-2.5-0.6c-3.1-0.5-6.2-0.5-9.3,0c-6.9,1.1-13.7,2.2-20.6,3.3
		c-7.2,1.1-14.3,2.3-21.5,3.4c-7.4,1.2-14.8,2.3-22.2,3.5c-6.1,1-12.1,1.9-18.2,2.9c-7.7,1.2-15.5,2.4-23.2,3.7
		c-7,1.1-14,2.2-21,3.3c-7.9,1.2-15.7,2.5-23.6,3.5c-2.2,0.3-4.4,0.6-6.6,0.7c-0.5,0-0.5,0-0.5,0.5c-0.1,1.3-0.2,2.5-0.3,3.8
		c-0.3,3.4-0.5,6.8-0.8,10.2c-0.4,4.5-0.7,9.1-1.2,13.6c-0.1,0.5,0.1,0.9,0.1,1.4c0.2,2-0.6,3.6-2.3,4.8c-2.1,1.4-4.4,1.7-6.8,1.4
		c-0.5-0.1-0.9-0.1-1.4-0.3c-0.6-0.3-1-0.7-1-1.4c0-0.6,0.4-1.1,1.1-1.4c0.5-0.2,1-0.2,1.5-0.1c0.6,0.1,1.1,0.1,1.7,0.1
		c1,0,1.8-0.3,2.6-0.9c0.3-0.2,0.5-0.5,0.7-0.9c0.3-0.8,0.2-1-0.7-1.2c-2.8-0.5-5.5,0-8,1.3c-0.7,0.4-1.4,0.9-2,1.5
		c-0.2,0.2-0.3,0.4-0.4,0.6c-0.4,1-0.2,2.7,1,3.5c0.7,0.5,1.5,0.8,2.3,1c1.8,0.4,3.7,0.4,5.5,0.1c4-0.6,8-1.3,12-2
		c6.7-1.1,13.4-2.2,20.1-3.3c6.3-1,12.7-2.1,19.1-3c6.5-1,13-2,19.5-3c6.4-1,12.9-2,19.3-3c6.4-1,12.9-2,19.3-3
		c5-0.8,10-1.6,14.9-2.3c6-0.9,12-1.9,18-2.8c4.6-0.7,9.2-1.4,13.7-2.1c5.1-0.8,10.2-1.6,15.3-2.4c2-0.3,4-0.7,6-0.5
		c0.1,0,0.1,0,0.2-0.1c-1.9-1-3.9-1.2-6-1c1.7-0.5,3.5-0.8,5.2-1.4c-0.5-0.2-0.9-0.3-1.3-0.5C193,55.7,191.5,55.5,189.9,55.8
		L189.9,55.8z M16.2,57.4c0.5,0.3,1,0.4,1.4,0.5c0.4,0.1,0.9,0.2,1.3,0.6c-1.4-0.2-2.6,0.4-3.8,0.6c1.2,0.5,2.5,0.6,3.8,1.1
		c-2.7,0-2.9,0.1-3.4,0.5c1.1,0.4,2.4,0.5,3.4,1.1c-1.5,0-3,0.3-4.4,0.8c1.2,0.4,2.4,0.5,3.5,1c-0.5,0.1-1.1,0.2-1.6,0.3
		c-0.5,0.1-1.1,0.2-1.7,0.5c1.3,0.5,2.6,0.5,3.8,0.9c-1.4,0.3-2.9,0.3-4.3,1.1c1.3,0.4,2.5,0.4,3.7,0.8c-1.2,0.3-2.5,0.3-3.8,0.6
		c0.4,0.2,0.6,0.2,0.9,0.2c0.7,0.1,1.4,0.2,2.2,0.4c0.1,0,0.3,0,0.2,0.2c-1.1,0.1-2.1,0.1-3.1,0.5c1,0.2,2,0.1,3.1,0.3
		c-2.3,0.6-2.6,0.7-3,1.2c0.9,0.2,1.8,0.2,2.6,0.6c-1,0.2-1.9,0.5-2.8,1c0.9,0.4,1.8,0.3,2.6,0.7c-1.1,0-2,0.6-2.9,1.1
		c0.8,0.4,1.6,0.2,2.4,0.4c-0.9,0.2-1.7,0.7-2.3,1.4c0.2,0.2,0.4,0.1,0.6,0.1c0.5-0.1,1-0.2,1.6-0.3c1.7-0.3,3.3-0.1,5,0.1
		c0.6,0.1,0.6,0.1,0.7-0.6c0-0.1,0-0.3,0-0.4c0.1-1.6,0.2-3.1,0.3-4.7c0.3-3.8,0.6-7.7,0.9-11.5c0.2-3.2,0.5-6.4,0.7-9.6
		c0.1-1.2,0.3-2.4,0-3.6c-0.4-1.4-1.1-2.4-2.4-3.1c-1.6-0.8-3.2-0.7-4.9-0.2c-0.1,0-0.1,0.1,0,0.2c0.7,0,1.5,0,2.3,0.3
		c-0.8,0.2-1.4,0.3-2.1,0.7c0.9,0.2,1.8-0.1,2.6,0.4c-1.3,0.4-1.8,0.6-2.1,1.1c0.8,0.1,1.6,0.1,2.4,0.5c-2.1,0.4-2.3,0.5-2.8,1
		c0.2,0.2,0.5,0.2,0.8,0.3c0.7,0.1,1.5,0.3,2.2,0.4c0.2,0,0.5,0.1,0.6,0.3c-2.1,0-3.1,0.3-3.6,0.8c0.5,0,1,0.1,1.5,0.1
		c0.5,0.1,1,0,1.4,0.4c-1.1,0.1-2.1,0.4-3,1c1,0.2,2.1,0.2,3.1,0.7c-1.9,0.1-3.1,0.5-3.6,1.1c1.1,0.2,2.3,0.3,3.3,0.8
		c-1,0.1-2,0.2-3.1,0.5c0.6,0.2,1.1,0.2,1.6,0.4c0.8,0.2,1,0.3,1.3,0.6c-1.6,0-2.5,0.2-3,0.6c0.5,0.1,1.1,0.2,1.6,0.3
		c0.5,0.1,1,0.2,1.5,0.6c-1.2,0-2.3,0-3.5,0.6c1.1,0.4,2.2,0.4,3.2,1C18.1,57,17.2,56.9,16.2,57.4z"/>
	<path class="st1" d="M71.7,18.8c-0.4-0.5-0.9-0.9-1.3-1.4c0.5,0.2,0.9,0.6,1.4,0.9c0.5,0.2,0.8,0.7,1.3,0.9
		c-0.1-0.4-0.6-0.5-0.6-0.9l0,0c0.6,0.3,1.1,0.7,1.7,1c-0.2-0.5-0.7-0.6-0.9-1l0,0c0.2-0.1,0.3,0.1,0.4,0.1c0.1,0.2,0.3,0.3,0.5,0.3
		c0.1,0.1,0.2,0.2,0.2,0.1c0-0.1-0.1-0.1-0.1-0.2c-0.1-0.2-0.2-0.3-0.4-0.3c0.4-0.1,0.5,0.2,0.8,0.3c0.2,0.1,0.4,0.4,0.6,0.2
		c0.2-0.2,0-0.5-0.2-0.7c-0.3-0.4-0.8-0.7-1.3-1c-1.1-0.5-2.4-0.8-3.6-1c-1.3-0.2-2.6-0.2-3.8-0.3c-2.4,0-4.8-0.2-7.1-0.4
		c-0.6-0.1-1.2-0.2-1.8-0.3c-0.2-0.1-0.5-0.2-0.7-0.3c-1.4-0.6-1.7-2-0.6-3.1c1-0.9,2.2-1.3,3.5-1.2c0.1,0,0.2,0.1,0.3,0.2
		c-0.1,0.3-0.5,0.3-0.7,0.4c-0.6,0.1-1.2,0.3-1.8,0.6c-0.3,0.2-0.6,0.4-0.8,0.7c-0.4,0.6-0.3,1.3,0.4,1.7c0.3,0.2,0.7,0.3,1.1,0.4
		c1.2,0.3,2.3,0.3,3.5,0.4c2.2,0.2,4.4,0.1,6.6,0.2c1.8,0.1,3.7,0.3,5.4,1c0.7,0.3,1.4,0.6,1.9,1.2c0.5,0.6,0.9,1.2,0.6,2
		c0.2,0.2,0.4,0,0.6,0c1-0.2,2-0.4,3-0.2c0.6,0.1,1.1,0.2,1.6,0.5c0.6,0.3,1.1,0.7,1,1.5c0,0.1,0,0.2,0.1,0.3c0.3,0.5,0.2,1,0,1.6
		c-0.2,0.6-0.5,1.1-0.9,1.6c-0.2,0.4-0.6,0.6-1,0.7c-0.5-0.6-1.2-0.8-1.9-0.7c-0.6,0-1.2,0.1-1.8,0.3c-1.3,0.3-2.4,0.8-3.5,1.5
		c-0.1,0.1-0.3,0.1-0.4,0.4c0.3,0,0.6,0.1,0.9,0.1c0.8,0.1,1.5,0.4,2,1.1c0.1,0.2,0.3,0.3,0.5,0.3c0.7,0.1,1.3,0.1,2,0.1
		c0.2,0,0.4-0.1,0.5-0.2c1.1-0.7,2.2-1.1,3.6-1c-0.9,0.6-1.9,0.9-2.8,1.4c0.9,0,1.8-0.3,2.7-0.2c-0.6,0.2-1.1,0.3-1.7,0.4
		c-0.7,0.1-1.4,0.4-2.2,0.5c-0.2,0-0.4,0.1-0.6,0.4c1.3-0.1,2.5-0.5,3.8-0.5c-0.2,0.1-0.4,0.1-0.6,0.2c-1.5,0.3-3,0.8-4.5,1.2
		c-0.2,0.1-0.5,0.1-0.7,0.5c1.2-0.2,2.4-0.5,3.5-0.7c-0.1,0.2-0.3,0.2-0.5,0.2c-1,0.2-2,0.6-3.1,0.8c-0.5,0.1-1.1,0.3-1.7,0.8
		c0.9-0.1,1.7-0.1,2.5-0.2c0,0,0,0.1,0,0.1c-1.1,0.2-2.3,0.4-3.4,0.7c0.2-0.4,0.5-0.8,0.6-1.3c0.1-0.2,0.2-0.5-0.1-0.6
		c-0.2-0.1-0.4-0.1-0.5-0.2c-0.2,0-0.4-0.1-0.5-0.3c-0.4-0.5-0.5-0.5-1.1-0.3c-0.7,0.2-1.2,0.5-1.7,1.1c-0.4,0.5-0.4,0.6,0.1,1
		c0.4,0.3,0.9,0.3,1.3,0.4c0,0.1,0,0.2,0.1,0.3c0.2,0.1,0.4,0.2,0.5,0.4c0.2,0.3,0.4,0.2,0.7,0.1c0,0.1-0.1,0.3-0.1,0.4
		c-0.1,0.8-0.6,1.4-1.5,1.4c-0.6,0-1.2,0-1.8-0.2c-0.5-0.2-0.9-0.1-1.4,0.1c-0.7,0.3-1.3,0.6-2,0.9c-0.7,0.4-1.4,0.6-2.2,0.6
		c-1.1,0.1-2.2,0.2-3.3,0.5c-0.9,0.2-1.4,0.8-1.7,1.7c0,0.1,0,0.2,0,0.2c0,0,0,0,0,0c-0.1,0-0.1,0.1-0.1,0.2
		c-0.3,0.3-0.5,0.5-0.9,0.9c0-0.5,0-1,0-1.4c0.1-0.2,0.2-0.4,0.2-0.6c0.4-0.9,1.1-1.4,2-1.6c1-0.2,2.1-0.5,3.2-0.5
		c0.9,0,1.8-0.2,2.6-0.7c0.5-0.3,1.1-0.5,1.7-0.8c-1-0.8-2.1-1.2-3.2-1.4c-1.2-0.2-2.5-0.3-3.8-0.4c-1.6-0.1-3.1-0.2-4.7-0.4
		c-0.5,0-0.8,0-1.2,0.3c-2.3,1.8-4.5,3.6-6.5,5.6c-1.5,1.4-3,2.8-4.4,4.4c-0.3,0.3-0.5,0.7-0.8,1c-0.1,0.1-0.2,0.2-0.3,0.3
		c-0.2,0.1-0.4,0.1-0.5,0c-0.2-0.1-0.1-0.3,0-0.5c0.1-0.1,0.2-0.3,0.3-0.4c1.2-1.4,2.4-2.8,3.8-4c1-0.9,1.9-1.8,2.9-2.7
		c1.4-1.3,2.9-2.4,4.4-3.6c0.2-0.1,0.4-0.2,0.5-0.4c-0.1-0.2-0.2-0.1-0.3-0.1c-1.2-0.1-2.4-0.2-3.6-0.4c-0.3-0.1-0.7-0.1-1,0
		c-1.2,0.2-2.4,0.5-3.5,0.7c-0.3,0.1-0.5,0.1-0.7,0.5c1.4-0.2,2.8-0.5,4.3-0.5c-0.6,0.1-1.1,0.2-1.7,0.4c-1,0.2-2,0.5-3,0.7
		c-0.1,0-0.1,0-0.2,0.1c-0.1,0.1-0.2,0.2-0.1,0.3c0,0.1,0.1,0.1,0.2,0.1c0.6-0.1,1.1-0.2,1.7-0.2c0.7-0.1,1.4-0.2,2.2-0.3
		c-0.5,0.2-1.1,0.3-1.6,0.4c-0.6,0.1-1.2,0.1-1.7,0.3c-0.5,0.2-1.1,0.2-1.5,0.7c1.3-0.1,2.6-0.4,3.9-0.5c-0.9,0.2-1.8,0.5-2.8,0.7
		c-0.6,0.1-1.1,0.3-1.7,0.4c-0.1,0-0.2,0.1-0.3,0.2c0,0-0.1,0.1-0.1,0.2c0,0.1,0.1,0.1,0.2,0.1c0.2,0,0.3,0,0.5-0.1
		c1.2-0.2,2.5-0.4,3.8-0.5c-0.4,0.2-0.8,0.3-1.2,0.3c-1.1,0.3-2.3,0.5-3.4,0.8c-0.2,0-0.3,0.1-0.5,0.2c-0.1,0.1-0.2,0.2-0.2,0.3
		c0.1,0.2,0.2,0.1,0.3,0.1c0.7-0.2,1.4-0.3,2.1-0.5c0.6-0.1,1.2-0.2,1.8-0.2c-1,0.3-2,0.5-3,0.8c-0.8,0.2-1.5,0.4-2,0.8
		c0.5,0,0.9-0.1,1.3-0.2c0.4-0.1,0.8-0.2,1.2-0.2c0.4-0.1,0.9-0.2,1.5-0.2c-1.2,0.3-2.2,0.6-3.3,0.9c-0.5,0.1-1.1,0.3-1.6,0.7
		c0.5,0.1,0.9-0.1,1.3-0.1c0.4-0.1,0.8-0.2,1.3-0.3c0.4-0.1,0.8-0.2,1.2-0.2c-0.9,0.3-1.8,0.6-2.7,0.7c-0.6,0.1-1.2,0.4-1.8,0.6
		c-0.1,0.1-0.3,0.2-0.2,0.4c1.2-0.2,2.3-0.4,3.5-0.7c0,0,0,0.1,0,0.1c-0.7,0.2-1.4,0.4-2.1,0.6c-0.7,0.2-1.4,0.5-2.1,0.5
		c-0.2,0-0.4,0.2-0.6,0.5c0.9,0,1.6-0.3,2.3-0.3c-0.9,0.4-1.9,0.7-2.9,0.8c-0.7,0.1-1.4,0.2-2,0.1c-0.4,0-0.8,0-1.2,0.1
		c-0.8,0-1.3,0.5-1.5,1.2c-0.5,0.3-0.7,0.8-1,1.4c-0.2-0.6,0.1-1,0-1.5c0.2-0.3,0.3-0.6,0.5-0.9c0.4-0.5,0.9-0.8,1.5-0.9
		c0.8-0.1,1.5-0.2,2.3-0.1c0.5,0,0.9-0.1,1.3-0.4c0.7-0.5,1.3-1.1,1.9-1.8c2-2.5,4-5,6-7.4c0.2-0.2,0.3-0.4,0.5-0.6
		c0.1-0.2,0.1-0.3-0.1-0.4c-0.2-0.1-0.3-0.1-0.5-0.2c-1.6-0.7-3.1-1.6-4.4-2.9c-1.7-1.6-2.9-3.5-3.1-5.9c-0.1-1.5,0.3-2.9,0.9-4.2
		c0.9-1.8,2.4-3.3,4-4.5c1.8-1.3,3.8-2.3,5.8-3.1c2.4-0.9,4.8-1.2,7.3-1.4c1.6-0.2,3.3-0.2,4.9-0.1c1.5,0.1,3.1,0.2,4.6,0.3
		c3.3,0.2,6.5,0.9,9.7,1.5c2.9,0.5,5.8,1.3,8.7,2c1.8,0.4,3.6,0.8,5.4,1.3c0.2,0.1,0.5,0.1,0.7,0.1c2-0.1,3.9-0.4,5.9-0.7
		c2.5-0.4,5.1-0.9,7.6-1.3c1.3-0.2,2.5-0.2,3.8-0.3c3.2-0.2,6.5-0.1,9.7,0.3c2.7,0.3,5.4,1,8,2c1.8,0.7,3.6,1.4,5.5,2.1
		c2.3,0.9,4.7,1.3,7.1,1.8c5.4,1.1,10.9,1.8,16.4,2.3c3.6,0.3,7.2,0.5,10.9,0.4c1.6,0,3.1-0.1,4.7-0.4c0.6-0.1,1.2-0.3,1.7-0.7
		c1-0.7,1.1-1.7,0.1-2.5c-0.4-0.3-0.9-0.7-1.4-0.9c-0.6-0.2-1.1-0.6-1.5-1.1c-0.8-0.9-0.8-1.8,0-2.7c0.8-0.9,1.9-1.6,3.1-2.1
		c2.7-1,5.4-1,8.1-0.4c1.5,0.3,2.8,0.8,4.1,1.7c0.8,0.6,1.4,1.3,1.7,2.3c0.3,1.1-0.1,1.9-1.1,2.4c-1.1,0.5-2.2,0.5-3.2-0.1
		c-0.6-0.3-1.2-0.7-1.8-1.1c-0.7-0.4-1.4-0.7-2.1-0.9c-0.3-0.1-0.5-0.1-0.8-0.1c-0.4,0-0.7,0.2-0.9,0.6c-0.2,0.3,0,0.6,0.1,0.8
		c0.2,0.3,0.5,0.6,0.8,0.9c1.4,1.4,1.5,3.3,0.6,5.1c-0.3,0.5-0.7,0.8-1.2,1.1c-1.2,0.6-2.4,0.9-3.7,1.2c-2.8,0.6-5.7,0.8-8.6,0.9
		c-5.1,0.2-10.1-0.1-15.2-0.5c-3.5-0.3-7-0.7-10.5-1.2c-0.2,0-0.4,0-0.6,0c0,0.2,0.2,0.3,0.3,0.3c0.6,0.4,1.2,0.8,1.7,1.3
		c0.3,0.3,0.6,0.6,0.8,1c0.4,0.9,0.4,1.7-0.2,2.6c-0.3,0.5-0.8,0.9-1.2,1.2c-0.1,0.1-0.3,0.2-0.5,0.2c-0.2,0-0.3-0.1-0.4-0.2
		c-0.1-0.2,0-0.3,0.1-0.4c0.1-0.1,0.2-0.2,0.4-0.3c0.3-0.2,0.5-0.4,0.7-0.7c0.5-0.7,0.5-1.4,0.1-2.1c-0.3-0.6-0.8-1-1.3-1.4
		c-0.6-0.5-1.3-0.8-1.9-1.1c-0.2-0.1-0.4-0.2-0.6-0.3c-0.2-0.1-0.5-0.2-0.4-0.5c0-0.2,0.4-0.5,0.6-0.6c0.2,0,0.4,0,0.6,0
		c5.1,0.7,10.3,1.3,15.4,1.6c3.4,0.2,6.8,0.4,10.2,0.3c3,0,6-0.1,8.9-0.6c1.5-0.2,2.9-0.6,4.3-1.2c2.1-0.9,2.2-3.9,1-5.1
		c-0.4-0.4-0.7-0.7-1-1.2c-0.7-1-0.3-2.1,0.8-2.5c0.5-0.2,0.9-0.1,1.4,0c0.9,0.2,1.8,0.6,2.6,1c0.6,0.3,1.1,0.7,1.7,1
		c0.7,0.4,1.5,0.6,2.3,0.2c0.8-0.3,1.1-0.8,0.9-1.7c-0.2-0.8-0.6-1.4-1.3-1.9c-1.2-0.9-2.6-1.4-4.1-1.7c-2.4-0.4-4.9-0.5-7.2,0.4
		c-1,0.4-1.9,1-2.6,1.8c-0.6,0.6-0.6,1.3,0,1.9c0.3,0.3,0.7,0.6,1.1,0.7c0.5,0.2,1,0.6,1.5,0.9c0.3,0.2,0.6,0.5,0.8,0.8
		c0.9,1.2,0.3,2.2-0.5,2.8c-0.3,0.3-0.7,0.4-1.2,0.5c-1.8,0.5-3.7,0.7-5.6,0.8c-4.3,0.1-8.6-0.1-12.8-0.5
		c-5.1-0.5-10.2-1.2-15.2-2.2c-1.8-0.4-3.6-0.7-5.3-1.2c-1-0.2-1.9-0.7-2.9-1.1c-2.7-1.1-5.5-2.2-8.3-2.9c-2.6-0.6-5.2-1-7.8-1
		c-0.7,0-1.5,0-2.2,0c-2.7,0-5.4,0.2-8,0.6c-3.4,0.5-6.8,1.2-10.2,1.6c0.6,0.6,3.8,0.6,6.4,0.5C98.2,14.1,98,14,97.8,14
		c-1.4,0.2-2.8,0.4-4.2,0.4c-1.1,0-2.3-0.2-3.4-0.5c-0.8-0.2-1.5-0.5-2.3-0.6c-3.5-0.9-7.1-1.8-10.6-2.5c-3.1-0.6-6.2-1.3-9.4-1.7
		c-1.3-0.2-2.5-0.2-3.8-0.3c-1.8-0.1-3.5-0.3-5.3-0.3c-1.9,0-3.8,0.2-5.6,0.5c-0.2,0-0.5,0-0.7,0.2c0.8,0.2,1.6-0.1,2.4,0
		c-0.3,0.2-0.7,0.2-1,0.2c-1.8,0.3-3.7,0.5-5.5,0.8c-0.1,0-0.3,0-0.3,0.1c-0.1,0-0.3,0-0.4,0c0.2,0.1,0.3,0.1,0.4-0.1
		c1,0,2-0.1,3-0.2c1.3-0.1,2.7-0.1,4,0c-1.5,0.1-3,0.1-4.5,0.5c0.5,0.2,1,0.1,1.5,0.1c0.5,0,1,0,1.5,0c-3,0.4-5.9,0.5-8.9,0.9
		c0,0,0,0.1-0.1,0.2c1.5-0.2,3-0.3,4.5-0.3c1.5,0,3,0.1,4.5-0.1c0,0.1,0,0.1,0,0.2c-0.6,0.1-1.1,0.1-1.7,0.1
		c-2.7,0.2-5.3,0.3-7.9,0.6c-0.2,0-0.5,0-0.8,0.4c1.2,0,2.2-0.3,3.2-0.3c1.1,0,2.1-0.1,3.2-0.1c1.1,0,2.1,0,3.2,0
		c-1.2,0.2-2.4,0.2-3.5,0.4c-1.2,0.2-2.4,0.2-3.7,0.3c-1.2,0.1-2.3,0.2-3.5,0.5c3.1-0.1,6.2,0,9.3-0.2c0,0.2-0.1,0.2-0.1,0.2
		c-2.7,0.2-5.3,0.5-8,0.6c-0.6,0-1.1,0.1-1.7,0.1c-0.2,0-0.4,0-0.5,0.3c0.3,0.1,0.5,0.1,0.8,0c1.7-0.1,3.3-0.2,5-0.2
		c1.5,0,2.9,0,4.4,0.1c-0.5,0-1.1,0.2-1.6,0.2c-2.9,0.1-5.9,0.4-8.8,0.4c-0.1,0-0.3,0-0.4,0.1c-0.1,0.1-0.3,0.2-0.2,0.4
		c0,0.2,0.2,0.1,0.3,0.1c1.1,0,2.3-0.1,3.4-0.2c0.7,0,1.5,0,2.2,0c0.9,0,1.8,0.1,2.6,0c0.3,0,0.6-0.1,0.9,0c-0.5,0.2-1,0.2-1.4,0.2
		c-1.7,0.1-3.3,0.3-5,0.4c-1.1,0.1-2.1,0.1-3.2,0.2c-0.3,0-0.5,0-0.5,0.5c3.3-0.3,6.5,0,9.9-0.1C49.3,17,49.2,17,49.1,17
		c-2.6,0.2-5.3,0.3-7.9,0.4c-0.5,0-1,0.1-1.5,0.1c-0.1,0-0.3,0-0.4,0.1c-0.1,0-0.2,0.1-0.2,0.2c0,0.1,0.1,0.2,0.2,0.2
		c0.5,0,1-0.1,1.5-0.1c2.2-0.2,4.5-0.2,6.7,0c0.6,0,1.2,0,1.7,0c0,0.3-0.2,0.2-0.3,0.2c-1.8,0.1-3.7,0.1-5.5,0.2
		c-1.4,0.1-2.8,0.2-4.2,0.2c0,0,0,0-0.1,0c-0.1,0-0.3,0-0.3,0.2c0,0.2,0.2,0.2,0.4,0.1c1-0.1,2.1-0.1,3.1-0.1c1.5-0.1,3.1,0,4.6,0
		c0.5,0,1,0,1.6,0.1c-0.3,0.2-0.5,0.1-0.8,0.1c-2.4,0.1-4.8,0.3-7.2,0.4c-0.5,0-0.9,0-1.4,0c-0.1,0-0.3,0-0.4,0
		c-0.1,0-0.2,0.1-0.2,0.2c0,0.1,0.1,0.2,0.2,0.2c0.2,0,0.3,0,0.5,0c2.2-0.2,4.4-0.1,6.6-0.1c0.4,0,0.7,0,1.1,0.1
		c-1.7,0.2-3.5,0.4-5.2,0.5c-0.9,0.1-1.9,0.1-2.8,0.1c-0.1,0-0.1,0-0.2,0c-0.2,0-0.2,0.1-0.2,0.3c0,0.1,0.1,0.2,0.2,0.2
		c0.2,0,0.5,0,0.7,0c2.6-0.1,5.2,0,7.8-0.1c0.1,0,0.1,0,0.2,0.1c-0.6,0.1-1.2,0.1-1.8,0.2c-2.2,0.2-4.4,0.3-6.6,0.3
		c-0.1,0-0.2,0-0.3,0c-0.1,0-0.2,0.1-0.2,0.2c0,0.1,0.1,0.2,0.1,0.2c0.2,0,0.3,0,0.5,0c2-0.1,4-0.2,6-0.1c0.5,0,0.9,0,1.4,0
		c-2.4,0.1-4.8,0.6-7.2,0.6c-0.1,0-0.3,0-0.4,0c-0.1,0-0.3,0-0.2,0.2c0,0.1,0.1,0.2,0.2,0.3c0.1,0,0.2,0,0.3,0
		c1.4-0.1,2.8-0.1,4.2-0.1c1,0,2.1-0.2,3.1,0c0.1,0,0.1,0,0.2,0c-0.4,0.2-0.4,0.2-0.8,0.2c-2.2,0-4.4,0.2-6.5,0.4
		c-0.1,0-0.2,0-0.3,0c-0.1,0-0.1,0-0.1,0.1c0,0.1,0,0.2,0.1,0.2c0.2,0.1,0.4,0.1,0.6,0.1c1.2-0.1,2.4-0.2,3.5-0.2c1,0,2.1-0.2,3.1,0
		c0.1,0,0.2,0,0.2,0.1c-0.3,0.1-0.7,0.1-1.1,0.2c-1.8,0-3.6,0.2-5.3,0.3c-0.1,0-0.2,0-0.3,0c-0.1,0-0.4,0-0.4,0.2
		c0,0.3,0.2,0.3,0.4,0.3c1.1,0,2.2-0.1,3.3-0.2c1.1,0,2.3-0.1,3.4-0.2c0.2,0,0.3,0,0.5,0.1c-2.4,0.5-4.7,0.4-7.1,0.8
		c0.4,0.2,1,0.3,2,0.2c0.7-0.1,1.3-0.1,2-0.1c0.6,0,1.3,0,1.9-0.1c0.6,0,1.3-0.3,1.9,0c-2.3,0.5-4.6,0.6-6.9,1
		c0.8,0.2,1.6,0.1,2.4,0.1c0.8,0,1.6-0.1,2.4-0.1c0.8,0,1.6-0.2,2.4,0c-2.1,0.6-4.3,0.4-6.4,0.7c0,0.2,0.1,0.2,0.2,0.2
		c1.9-0.2,3.9-0.2,5.8-0.3c0.2,0,0.5,0,0.7,0.1c-0.9,0.3-1.9,0.3-2.8,0.4c-0.9,0.1-1.9,0.2-2.8,0.4c2,0.2,4-0.3,6-0.2
		c-0.3,0.2-0.6,0.2-1.2,0.3c-1,0.1-2,0.2-3,0.3c-0.2,0-0.3,0.1-0.5,0.2c1.7,0.1,3.5,0,5.2,0c-1.5,0.4-3,0.4-4.5,0.6
		c1.6,0.3,3.2,0.1,4.8,0c-0.9,0.3-1.9,0.3-2.8,0.6c1.4,0.2,2.9,0,4.3,0c-1.1,0.3-2.2,0.3-3.3,0.6c0.5,0,1.1,0,1.6,0
		c0.6,0,1.2,0,1.7-0.1c0.6-0.1,1.1,0,1.7-0.1c-1.2,0.3-2.5,0.3-3.7,0.6c1.9,0.2,3.9,0.3,5.8,0.1c-0.7,0.3-1.5,0.2-2.2,0.4
		c1.6,0.2,3.2,0.2,4.8,0.1c-0.2,0-0.4,0.1-0.5,0.1c-0.2,0-0.5,0.1-0.7,0.1c-0.2,0-0.4,0-0.8,0.1c0.7,0.3,1.2,0.2,1.7,0.1
		c0.6-0.1,1.1,0,1.7-0.2c0,0.3-0.3,0.2-0.4,0.4c1.8,0.1,3.5,0.3,5.3,0.4c-0.2-0.3-0.5-0.3-0.7-0.4c-1-0.3-2-0.5-3-0.8
		c-1.6-0.4-3.2-0.9-4.4-2.1c-1.7-1.7-1.8-3.9-0.2-5.7c1.5-1.8,3.5-2.7,5.8-3c0.1,0,0.2,0,0.3,0c0.2,0,0.3,0.1,0.4,0.3
		c0,0.2-0.1,0.3-0.3,0.4c-0.2,0.1-0.5,0.1-0.7,0.1c-1.2,0.2-2.3,0.6-3.3,1.3c-0.2,0.1-0.4,0.3-0.5,0.5c1.1-0.5,2.2-0.8,3.4-1
		c-1.1,0.3-2.2,0.9-3.2,1.3c-0.5,0.2-0.9,0.6-1.3,1c1.1-0.4,2.2-0.8,3.4-1c-0.9,0.4-1.9,0.7-2.7,1.3c-0.1,0-0.2,0.1-0.2,0.2
		c0.1,0.1,0.2,0,0.3,0c0.8-0.3,1.7-0.6,2.6-0.7c-1.2,0.5-2.5,0.9-3.5,1.8c1-0.4,2-0.7,3-0.9c-0.8,0.5-1.8,0.7-2.5,1.3
		c-0.1,0.1-0.1,0.1-0.1,0.3c1-0.2,2-0.6,3-0.9c-1.3,0.7-2.6,1.1-3.7,2.1c1.3-0.7,2.8-1.2,4.2-1.6c-1.3,0.6-2.6,1.1-3.7,2.1
		c1.3-0.5,2.6-0.9,3.9-1.2c-1.2,0.5-2.3,1.1-3.5,1.6c0.4,0.1,0.8-0.1,1.2-0.2c0.4-0.1,0.8-0.2,1.2-0.3c0.4-0.1,0.8-0.3,1.4-0.4
		c-1,0.7-2.2,0.7-3.2,1.5c1.1-0.3,2.2-0.6,3.2-0.8c0,0,0,0.1,0,0.1c-0.4,0.2-0.9,0.3-1.3,0.5c-0.4,0.2-1,0.1-1.3,0.7
		c1.6-0.3,3-0.9,4.5-1.3c-0.3,0.2-0.6,0.4-1,0.5c-0.4,0.1-0.8,0.3-1.2,0.5c-0.4,0.2-0.8,0.2-1.1,0.5c1.4-0.2,2.7-0.6,4-0.9
		c-0.7,0.4-1.6,0.6-2.3,1c1.2,0,2.3-0.2,3.5-0.4c-0.9,0.4-1.9,0.6-2.8,0.9c1.4,0.1,2.7-0.1,4.1-0.2c-0.9,0.3-1.8,0.3-2.6,0.7
		c1.1,0.2,2.2,0,3.3,0c-0.6,0.3-1.3,0.3-1.9,0.5c0.9,0.3,1.8,0.1,2.9,0.2c-0.6,0.2-1.2,0.2-1.8,0.4c0.9,0.2,1.7,0.1,2.6,0.1
		c-0.6,0.3-1.2,0.1-1.9,0.4c0.7,0.5,1.4,0.2,2.1,0.4c-0.3,0.2-0.6,0-0.9,0.2c0.2,0.5,0.7,0.3,1.1,0.3c0.4,0,0.8,0,1.3,0
		c-0.4,0.3-0.8,0.1-1.2,0.4c0.7,0.2,1.4,0,2.1,0.1c-0.3,0.2-0.6,0.2-1,0.4c0.7,0.1,1.2,0,1.8,0c0.3,0,0.4-0.5,0.1-0.7
		c-0.2-0.2-0.4-0.2-0.6-0.3c-0.4,0-0.8-0.2-1.2-0.3c-1-0.5-1.4-1.3-1.2-2.4c0.2-0.8,0.6-1.5,1.1-2.1c1.3-1.5,2.8-2.5,4.6-3.3
		c0.8-0.4,1.5-0.6,2.4-0.8c0.2,0,0.3,0,0.5-0.2c0-0.2-0.2-0.2-0.4-0.2c-0.4-0.1-0.9-0.1-1.3-0.2c-0.3,0-0.5-0.1-0.8-0.3
		c-0.7-0.5-0.6-1.2,0.2-1.6c0.2,0.1,0,0.3,0,0.4c-0.2,0.4-0.1,0.6,0.2,0.9c0.3,0.2,0.6,0.3,0.9,0.4c1,0.2,2,0.5,3.1,0.5
		c0.4,0,0.8,0.1,1.2,0.2c0.5,0.1,0.5,0.1,0.8-0.3c0.2-0.3,0.3-0.6,0.5-0.8c0.1-0.3,0.2-0.6,0.1-0.9c-0.1-0.2-0.2-0.4-0.5-0.3
		c-0.3,0.1-0.4,0.3-0.3,0.5c0,0.1,0.1,0.1,0.1,0.2c0.1,0.3,0,0.4-0.3,0.4c-0.5,0-0.9-0.7-0.7-1.2c0.2-0.3,0.4-0.5,0.7-0.6
		c0.2-0.1,0.4,0,0.5-0.2c-0.1-0.3-0.3-0.4-0.6-0.5c-0.7-0.4-1.4-0.5-2.2-0.4c-0.7,0.1-1.3,0.2-2,0.3c-0.8,0.2-1.7,0.3-2.3,1.2
		c-0.1-0.4,0.2-0.7,0.2-1c-0.4,0-0.9,0-1.3,0c-0.2,0-0.2,0.2-0.3,0.3c-0.3,0.6-0.5,1.3-1.3,1.5c-1,0.3-1.9,0.2-2.7-0.5
		c-0.6-0.5-0.8-1.2-0.7-2c0-0.1,0.1-0.2,0-0.4c-1,0-1.9-0.1-2.9,0.2c-0.1,0-0.2,0.1-0.2,0.1c-0.2,0.1-0.3,0.1-0.4-0.1
		c-0.1-0.1-0.1-0.3,0-0.4c0.3-0.3,0.6-0.7,1.1-0.6c0.2,0,0.4,0,0.6-0.1c-0.2-0.2-0.5-0.1-0.7-0.4c0.8,0.1,1.6,0.2,2.4,0.3
		c-0.5-0.5-1-0.5-1.6-0.8c1.2,0.2,2.2,0.4,3.2,0.9c-0.1-0.4-0.4-0.4-0.5-0.6l0,0c0.7,0.2,1.3,0.4,1.8,0.9
		C71.2,18.7,71.4,18.9,71.7,18.8C71.7,18.8,71.7,18.8,71.7,18.8L71.7,18.8z M72.2,21c0.3,0,0.1-0.1,0.1-0.2c0.1-0.2,0.1-0.4,0.2-0.5
		c0.1-0.2,0-0.4-0.2-0.5c-0.9-0.4-1.8-0.7-2.9-0.6c-0.3-0.1-0.5,0-0.6,0.3c-0.1,0.3-0.2,0.6-0.1,1c0.2,0.7,0.7,1.2,1.4,1.4
		c0.7,0.2,1.4,0.1,2-0.4C72.1,21.3,72.3,21.2,72.2,21L72.2,21z M69.9,29.8c0.5-0.2,1-0.4,1.4-0.6c0.8-0.3,1.6-0.4,2.2,0.5
		c0.1,0.2,0.3,0.1,0.5,0.1c0.6-0.1,1.1-0.5,1.2-1c0.1-0.5-0.2-1-0.8-1.2c-0.1,0-0.2-0.1-0.4-0.1c-1-0.2-2-0.1-2.8,0.5
		C70.6,28.5,70.1,29.1,69.9,29.8z M48.8,31.2c-0.1,0-0.1,0-0.2-0.1c-0.9-0.2-1.8,0.1-2.7,0.2c-0.1,0-0.2,0.1-0.1,0.3
		C46.8,31.6,47.8,31.5,48.8,31.2z M77.3,29c-0.4-0.1-0.7-0.1-0.9-0.1c-0.1,0-0.3,0-0.3,0.1c0,0.3-0.3,0.5-0.3,0.9
		C76.3,29.6,76.8,29.4,77.3,29z M47.2,30.8c-0.2-0.1-0.4-0.2-0.6-0.2c-0.1,0-0.2,0.1-0.2,0.2c0,0.1,0.1,0.1,0.2,0.1
		C46.8,30.8,47,30.9,47.2,30.8z M51.8,9.2c0.2,0,0.3,0.1,0.4,0C52.1,9.1,52,9.1,51.8,9.2z M56,25.6C56,25.6,55.9,25.6,56,25.6
		C56,25.6,56,25.6,56,25.6C56,25.6,56,25.6,56,25.6z"/>
	<path class="st1" d="M86.2,33.8c0-0.1,0.2-0.2,0.1-0.4c-0.1-0.1-0.2,0-0.4,0c-2.9,1.3-5.8,2.1-8.9,2.8c-1.1,0.3-2.3,0.6-3.4,0.9
		c-0.8,0.2-1.5,0.6-2,1.3c-0.1,0.1-0.1,0.2-0.2,0.2c-0.2,0.1-0.4,0.2-0.6,0c-0.2-0.2-0.1-0.4,0-0.6c0.5-0.8,1.3-1.3,2.2-1.6
		c1.7-0.5,3.4-1,5.1-1.4c3.6-0.8,7-2.2,10.4-3.6c0.6-0.3,1.3-0.6,1.9-1c0.7-0.5,1.4-1.1,1.9-1.8c0.7-1,0.8-1.3-0.1-2.5
		c-0.6-0.8-1.4-1.5-2.2-2.2c-3.3-3-7.1-5.4-11.2-7.3c-3.1-1.5-6.4-2.6-9.8-3.3c-2.3-0.4-4.5-0.6-6.8-0.2c-0.5,0.1-1,0.3-1.6,0.4
		c-0.1,0-0.3,0.1-0.3-0.1c-0.1-0.2,0.1-0.2,0.2-0.3c0.3-0.2,0.7-0.4,1.1-0.5c0.9-0.3,1.8-0.4,2.8-0.4c1,0,1.9,0,2.9,0.1
		c0.8,0.1,1.5,0.2,2.3,0.1c0.2,0,0.4-0.1,0.5,0.2c0.1,0.2,0.4,0.2,0.6,0.2c0.8,0,1.5,0,2.3,0c0.2,0,0.4,0,0.6,0.1
		c-0.5,0.2-1,0.1-1.6,0.2c0.6,0.2,1,0.5,1.6,0.3c0.2-0.1,0.4,0,0.6,0c1,0.1,1.9,0.2,3,0.3c-0.9,0.2-1.7-0.1-2.5,0.1
		c0.3,0.3,0.7,0.5,1.1,0.5c1.9,0.2,3.8,0.2,5.6,0.2c-1.3,0.3-2.8,0.1-4.2,0.3c0.4,0.3,0.9,0.5,1.4,0.5c1.5,0.1,3.1,0.2,4.6,0.2
		c-1.2,0.3-2.5,0.1-3.8,0.2c0.4,0.4,0.7,0.5,1.1,0.5c1.8,0.2,3.5,0.3,5.3,0.3c0.1,0,0.3,0,0.4,0c-1.5,0.4-3.1,0.2-4.8,0.2
		c0.5,0.4,0.9,0.7,1.4,0.7c1.5,0.2,2.9,0.3,4.4,0.2c0.2,0,0.5,0,0.7,0c-1.4,0.3-2.8,0.2-4.2,0.2c0.5,0.4,0.9,0.8,1.6,0.9
		c1.1,0.1,2.2,0.3,3.3,0.3c0.1,0,0.3,0,0.5,0.1c-1.1,0.1-2.2,0-3.2,0c0.2,0.4,0.5,0.4,0.8,0.5c1.7,0.2,3.3,0.4,5,0.4
		c0.1,0,0.2,0,0.3,0.1c-1.6,0.3-3.2,0-4.9,0c0.4,0.5,0.8,0.7,1.4,0.8c1.6,0.1,3.1,0.3,4.7,0.2c0.1,0,0.2,0,0.5,0
		c-0.3,0.2-0.5,0.1-0.7,0.1c-1.2,0-2.3,0-3.5,0.1c-0.1,0-0.3,0-0.4,0c-0.2,0-0.2,0.2-0.1,0.3c0.2,0.2,0.5,0.4,0.9,0.5
		c1.4,0.1,2.9,0.3,4.3,0.3c0.1,0,0.2,0,0.3,0.1c-1.4,0.2-2.8-0.1-4.3,0.1c0.2,0.4,0.5,0.6,0.9,0.6c1.2,0,2.4,0.1,3.6,0
		c0.3,0,0.5,0,0.9,0c-0.5,0.2-1,0.2-1.4,0.3c-0.4,0-0.9,0.1-1.3,0.1c-0.5,0-0.9,0-1.4,0.1c0.2,0.5,0.5,0.7,1,0.8c1,0,1.9,0,2.9,0
		c0.4,0,0.8,0,1.2,0c-1.3,0.3-2.6,0.3-4,0.4c0.2,0.5,0.5,0.8,1,0.9c0.9,0.1,1.8,0.2,2.8,0.2c-0.7,0.3-1.3,0.2-2,0.2
		c-0.1,0-0.3,0-0.4,0c-0.2,0-0.5-0.1-0.5,0.2c0,0.3,0.2,0.6,0.5,0.6c0.6,0,1.2,0,1.8,0c0.3,0,0.5,0,0.8-0.1c0,0.2-0.2,0.2-0.3,0.2
		c-0.6,0.1-1.3,0.2-1.9,0.3c-0.1,0-0.2,0-0.3,0c-0.1,0-0.2,0.1-0.2,0.3c0,0.2,0.1,0.2,0.3,0.2c0.1,0,0.3,0,0.4,0
		c0.7,0,1.5-0.1,2.2-0.1c-1,0.3-2.1,0.3-3.1,0.7c0.8,0.2,1.6,0.2,2.4,0.3c-0.8,0-1.5,0.1-2.3,0.1c-0.2,0-0.4,0-0.6,0.1
		c-0.1,0.1-0.1,0.1-0.1,0.2c0,0,0.1,0.1,0.1,0.1c0.3,0,0.7,0,1,0c0.1,0,0.3-0.1,0.5,0c-0.5,0.2-1,0.3-1.5,0.3c-0.7,0-1,0.5-1.4,1
		c3.5-0.2,6.9-0.6,10.4-0.9c-0.1-0.3-0.3-0.3-0.5-0.4c-0.9-0.4-1.7-1-2-2c0-0.1-0.1-0.2-0.1-0.2c-0.3-0.2-0.3-0.3,0-0.5
		c0.1-0.1,0.1-0.2,0.1-0.3c0.2-0.9,0.7-1.7,1.3-2.3c1-1.1,2.3-1.9,3.6-2.6c3-1.6,6.2-2.8,9.5-3.6c3.8-1,7.7-1.5,11.7-1.4
		c1.5,0,3,0.2,4.5,0.6c0.9,0.2,1.7,0.5,2.4,1.1c0.5,0.4,1,0.9,1.1,1.6c0.1,0.3,0,0.6-0.1,0.8c0,0.1-0.1,0.2-0.2,0.2
		c-0.1,0-0.2-0.1-0.2-0.2c0-0.1,0-0.1,0-0.2c-0.1-0.9-0.7-1.5-1.4-1.9c-0.9-0.5-2-0.8-3-1c-2.5-0.4-5-0.3-7.6-0.1
		c-2.7,0.3-5.4,0.8-8,1.5c-0.6,0.1-1.1,0.4-1.7,0.5c0.2,0.3,0.4,0.2,0.6,0.1c0.9-0.2,1.8-0.3,2.7-0.5c0.2,0,0.4-0.1,0.7,0
		c-0.2,0.1-0.4,0.1-0.6,0.2c-1.2,0.2-2.3,0.5-3.4,0.8c-1.2,0.3-2.5,0.7-3.7,1c-0.4,0.1-0.7,0.2-1,0.5c1.2-0.1,2.3-0.3,3.4-0.5
		c1.1-0.2,2.3-0.3,3.5-0.5c-0.3,0.2-0.6,0.2-0.9,0.3c-2.4,0.4-4.8,0.9-7.2,1.6c-0.2,0.1-0.5,0.1-0.8,0.2c-0.3,0.1-0.6,0.2-1,0.6
		c4-0.6,7.8-1.4,11.7-1.9c-0.4,0.1-0.9,0.2-1.3,0.3c-3.6,0.7-7.1,1.4-10.7,2.3c-0.3,0.1-0.6,0.1-0.9,0.2c-0.1,0-0.3,0.1-0.3,0.3
		c4.8-0.5,9.6-1.3,14.3-2.3c-0.1,0.2-0.3,0.2-0.4,0.2c-4.4,1.1-8.9,1.8-13.4,2.6c-0.4,0.1-0.9,0.2-1.3,0.3c-0.2,0-0.3,0.1-0.4,0.4
		c4.8-0.7,9.6-1.3,14.4-2.1c-0.7,0.3-1.5,0.4-2.2,0.5c-4,0.7-8.1,1.5-12.1,2.2c-0.2,0-0.3,0.1-0.5,0.1c-0.1,0-0.2,0.2-0.2,0.3
		c0,0.2,0.2,0.1,0.3,0.1c0.3,0,0.5-0.1,0.8-0.1c3.2-0.5,6.4-0.9,9.7-1.4c1.3-0.2,2.6-0.4,4.1-0.6c-0.4,0.3-0.8,0.3-1.2,0.3
		c-4.3,0.8-8.6,1.6-13,2.4c-0.2,0-0.4,0.1-0.6,0.1c-0.1,0-0.2,0.1-0.2,0.2c0,0.1,0.1,0.2,0.2,0.2c0.1,0,0.2,0,0.3,0
		c0.3,0,0.6-0.1,1-0.1c3.2-0.5,6.5-1,9.7-1.5c0.7-0.1,1.4-0.2,2.2-0.1c-0.8,0.1-1.6,0.2-2.4,0.4c-2.4,0.4-4.8,0.9-7.1,1.4
		c-1,0.2-1.9,0.3-2.9,0.5c-0.1,0-0.3,0-0.3,0.2c0,0.2,0.2,0.2,0.3,0.2c0.1,0,0.2,0,0.3,0c3.6-0.7,7.3-1.2,10.9-1.7
		c0.7-0.1,1.5-0.2,2.2-0.2c-4.2,0.7-8.4,1.5-12.6,2.5c0.4,0.3,0.8,0.5,1.3,0.4c2.5-0.6,5-1,7.5-1.4c1.5-0.3,3-0.5,4.5-0.7
		c0.2,0,0.4,0,0.6,0c-1,0.2-1.9,0.3-2.9,0.5c-1.4,0.3-2.8,0.5-4.2,0.8c-1.3,0.4-2.7,0.7-4.1,0.9c-0.1,0-0.1,0-0.2,0.1
		c0.2,0.1,0.3,0,0.5,0c1.4-0.3,2.9-0.6,4.3-0.9c1.2-0.2,2.4-0.4,3.5-0.7c1.8-0.4,3.6-0.5,5.4-0.9c-2.5,0.7-5.1,1.4-7.6,2
		c0.6-0.1,1.2-0.2,1.8-0.3c2.6-0.5,5.2-0.9,7.9-1.4c0.2,0,0.5-0.1,0.7,0c0.1,0,0.2,0.1,0.2,0.3c0,0.1-0.1,0.2-0.2,0.3
		c-0.2,0.1-0.4,0.1-0.6,0.2c-3.8,0.7-7.5,1.3-11.3,2c-2.5,0.4-5,0.9-7.5,1.3c-0.5,0.1-1,0.2-1.4,0.5c-0.7,0.5-0.8,1-0.5,1.8
		c0.1,0.2,0.2,0.4,0,0.6c-0.2,0.2-0.4,0.1-0.6-0.1c0,0-0.1-0.1-0.1-0.1c-0.1-0.5-0.2-1-0.2-1.5c0.1-0.2,0.2-0.4,0.3-0.7
		c-0.4,0-0.8,0-1.2,0c-0.3,0-0.4,0.2-0.5,0.4c-0.3,0.5-0.4,1.1-0.4,1.7c0,0.6,0,0.8-0.3,0.8c-0.3,0.1-0.4-0.1-0.6-0.7
		c0.1-0.6,0.1-1.2,0.2-1.9c0.2-0.3,0.4-0.5,0.6-0.8c0.4-0.4,0.9-0.6,1.4-0.5c0.5,0.1,0.9,0,1.3-0.1c0.7-0.1,1.3-0.3,2-0.4
		c-0.7-0.1-1.4,0.1-2.1,0.1c-3.1,0.3-6.3,0.6-9.4,0.9c-0.9,0.1-1.7,0.5-2.4,1.2c-0.7,0.7-1.1,1.6-1.4,2.6c-0.1,0.2,0,0.4,0,0.6
		c0.1,0.3,0.1,0.5-0.2,0.6c-0.3,0.1-0.5,0-0.7-0.3c-0.2-0.3-0.1-0.5-0.1-0.8C85.9,35.1,86,34.4,86.2,33.8z"/>
	<path class="st1" d="M151.2,78.6c0.4-0.2,0.9-0.5,1.3-0.6c1.2-0.4,2.5-0.1,3.3,1c0.7,0.8,1,1.9,1.3,2.9c0.1,0.6,0.1,1.1,0.4,1.7
		c0,0.8-0.1,1.7-0.1,2.5c0,0.7-0.1,1.3-0.3,2c-0.4,0.2-0.8,0.3-1.2,0.3c-0.4-0.4-0.5-0.9-0.4-1.5c0.1-0.5,0.1-1.1,0.1-1.7
		c0-0.4,0-0.5-0.5-0.5c-1.6,0.1-3.3,0.2-4.9,0.3c-0.3,0-0.5,0.2-0.4,0.5c-0.3,0.6-0.2,1.3-0.4,1.9c0,0.1,0,0.2,0,0.3
		c-0.1,0.9-0.3,1-1.2,1c-0.4-0.3-0.5-0.7-0.4-1.1c0-0.7,0.1-1.3,0.2-2c0.1-0.3,0.1-0.6-0.4-0.6c-0.2,0-0.4-0.1-0.5-0.4
		c-0.2-0.4-0.4-0.3-0.7-0.2c-0.2,0.1-0.3,0.1-0.4,0.2c-0.5,0.2-0.9,0.4-1.4,0.5c-0.1,0-0.1-0.1-0.2-0.1c-0.7,0.1-1.4,0.2-2.1,0.3
		c-0.2,0-0.3,0.2-0.3,0.4c-0.2,0.6-0.2,1.2-0.3,1.8c-0.2,1-0.3,1.1-1.3,1.1c-0.4-0.2-0.5-0.6-0.5-1.1c0.2-1.5,0.3-2.9,0.5-4.4
		c0.1-1.2,0.3-2.4,0.4-3.6c0.1-0.5,0-0.5-0.5-0.5c-0.3,0-0.6,0-1,0c-0.4,0-0.7-0.2-0.7-0.6c0.2-0.3,0.5-0.4,0.9-0.5
		c2.4-0.5,4.8-0.3,7.1,0.7c0.9,0.4,1.5,1,2,1.8c0.1,0.4,0.1,0.7,0.2,1.1c0.2,0,0.2-0.2,0.3-0.3c0.4-0.7,0.8-1.4,1.3-2.1
		C150.8,79,151.1,78.9,151.2,78.6z M148.9,82.3C148.9,82.2,148.8,82.3,148.9,82.3C148.9,82.2,148.9,82.2,148.9,82.3
		C148.9,82.2,148.9,82.3,148.9,82.3c-0.2,0.3-0.4,0.5-0.7,0.8c-0.2,0.2-0.4,0.5-0.7,0.7c1,0,0.9-0.1,1.1-0.7
		C148.7,82.8,148.7,82.5,148.9,82.3z M152.5,79.6c-0.2,0.1-0.3,0.2-0.4,0.3c-0.9,1-1.4,2.1-1.8,3.4c-0.1,0.3,0.1,0.4,0.3,0.4
		c1.2,0,2.5-0.1,3.7-0.2c0.3,0,0.6,0,0.8,0c0.3,0,0.4-0.1,0.3-0.4c-0.1-0.7-0.2-1.3-0.4-2c-0.2-0.5-0.4-1-0.7-1.5
		C153.8,78.9,153.2,78.9,152.5,79.6z M142.7,79.8c-0.2,1.2-0.3,2.5-0.4,3.7c-0.1,0.5,0,0.5,0.5,0.4c0.9-0.1,1.7-0.3,2.4-0.7
		c0.6-0.2,1.1-0.5,1.5-0.9c0.6-0.7,0.6-1.4,0-2c-1.1-0.9-2.4-1.2-3.7-1.3c-0.2,0-0.3,0.1-0.3,0.3C142.7,79.5,142.7,79.6,142.7,79.8z
		"/>
	<path class="st0" d="M160,74.8c-4.2,0.2-8.4,0.3-12.7,0.5c-3,0.1-6.1,0.2-9.1,0.3c-0.7,0-1.5,0-2.2,0.1c-0.4,0-0.7-0.1-1-0.2
		c-0.1-0.1-0.2-0.1-0.2-0.3c0-0.1,0.1-0.2,0.2-0.3c0.5-0.1,0.9-0.2,1.4-0.3c7.1-1.2,14.1-2.4,21.2-3.6c6.3-1.1,12.6-2.1,18.9-3.2
		c1.8-0.3,3.6-0.6,5.5-0.9c0.1,0,0.1,0,0.2,0c0.2,0,0.5-0.1,0.7,0.1c0.2,0.3,0,0.5-0.1,0.7c-0.2,0.5-0.2,1-0.1,1.5
		c0.2,1.5,0.8,2.9,2,3.8c0.1,0.1,0.2,0.1,0.2,0.2c0.2,0.3,0.1,0.5-0.2,0.5c-0.2,0-0.4,0-0.6,0.1c-3.9,0.1-7.7,0.3-11.6,0.4
		C168.2,74.4,164.1,74.6,160,74.8C160,74.8,160,74.8,160,74.8z M138,75c-0.2,0-0.4,0.1-0.6,0.1c0.2,0,0.4,0.1,0.6,0
		c0.2,0,0.4,0,0.6,0c5.7-0.2,11.5-0.5,17.2-0.7c5.1-0.2,10.1-0.4,15.2-0.6c4-0.2,8-0.3,12-0.4c0.3,0,0.6,0,1-0.1
		c-1.4-1.7-2.2-3.6-1.7-5.8C167.5,69.9,152.7,72.5,138,75z"/>
	<path class="st0" d="M30,14c0.2,0.2,0.1,0.4,0.2,0.5c0.2,2.4,0.5,4.7,1.2,7c0.2,0.9,0.6,1.7,1,2.5c0.5,0.8,1.1,1.6,2.1,1.8
		c0.2,0,0.3,0.3,0.1,0.4c-0.1,0.1-0.2,0.1-0.3,0.2c-0.8,0.3-1.4,0.8-1.9,1.5c-0.8,1.1-1.2,2.3-1.6,3.6c-0.4,1.6-0.6,3.2-0.7,4.9
		c0,0.3,0.1,0.5-0.2,0.8c-0.2-0.2-0.1-0.4-0.1-0.6c-0.1-2-0.3-3.9-0.9-5.8c-0.3-1-0.7-1.9-1.3-2.8c-0.5-0.7-1.1-1.3-1.9-1.6
		c-0.1,0-0.2-0.1-0.3-0.1c-0.1-0.1-0.2-0.1-0.2-0.3c0-0.1,0.1-0.2,0.3-0.2c0.9-0.1,1.4-0.7,1.8-1.4c0.8-1.2,1.3-2.6,1.6-4
		c0.5-2,0.8-4.1,0.9-6.2C30,14.2,30,14.2,30,14z"/>
	<path class="st1" d="M160.2,84.9c-0.2,0.7-0.2,1.5-0.3,2.2c-0.1,0.6-0.3,0.8-0.7,0.9c-0.2,0-0.3,0-0.5,0c-0.4-0.3-0.5-0.7-0.4-1.1
		c0-0.1,0-0.3,0-0.4c0.3-2.5,0.5-5.1,0.8-7.6c0.1-0.5,0.1-0.5-0.5-0.6c-0.4,0-0.9-0.1-0.9-0.7c0.2-0.3,0.6-0.4,0.9-0.5
		c1-0.2,2.1-0.2,3.1-0.1c1.4,0.1,2.8,0.4,4.1,1.1c0.5,0.3,1,0.6,1.3,1c0.8,0.9,0.8,1.8,0,2.7c-0.4,0.5-1,0.8-1.6,1.1
		c-0.5,0.3-1.1,0.5-1.6,0.8c0.1,0.3,0.3,0.3,0.5,0.4c0.9,0.5,1.7,1.2,2.5,1.8c0.4,0.3,0.6,0.7,0.6,1.3c0,0,0,0,0,0
		c-0.4,0.1-0.7,0.3-1.2,0.2c-0.3-0.2-0.6-0.5-0.9-0.8c-1-0.9-2.1-1.6-3.3-2.2c-0.4-0.2-0.9-0.3-1.4-0.4
		C160.2,84.3,160.2,84.3,160.2,84.9z M164.6,81.9L164.6,81.9c0.5,0,0.8-0.3,1.2-0.6c0.4-0.4,0.4-0.8,0-1.3c-0.2-0.3-0.5-0.5-0.9-0.7
		c-1.1-0.6-2.4-0.8-3.6-0.9c-0.5,0-0.5,0-0.5,0.6c-0.1,1-0.2,2.1-0.3,3.1c0,0.5,0,0.6,0.6,0.6c1.2,0,2.3-0.2,3.4-0.7
		C164.5,81.9,164.5,81.9,164.6,81.9z"/>
	<path class="st1" d="M198.9,76.6c0.3-0.4,0.7-0.5,1.1-0.5c1.8-0.3,3.5-0.3,5.2,0.2c0.7,0.2,1.3,0.5,1.8,0.9
		c1.1,0.9,1.2,2.1,0.3,3.1c-0.6,0.7-1.3,1.1-2.1,1.5c-0.3,0.1-0.6,0.2-0.8,0.5c0,0.2,0.2,0.3,0.4,0.3c1.2,0.7,2.3,1.5,3.3,2.5
		c0.2,0.2,0.3,0.3,0.4,0.5c0.3,0.5,0.1,0.9-0.4,1c-0.2,0-0.4,0-0.6,0c-0.3-0.2-0.5-0.4-0.7-0.6c-1-1.2-2.3-2.1-3.7-2.8
		c-0.5-0.3-1.1-0.5-1.6-0.5c-0.5,0-0.6,0.1-0.6,0.6c-0.2,0.6-0.2,1.3-0.3,1.9c-0.1,0.9-0.3,1.1-1.3,1.1c-0.4-0.3-0.5-0.7-0.5-1.2
		c0.1-1.1,0.2-2.3,0.3-3.4c0.2-1.4,0.3-2.8,0.5-4.3c0-0.3,0-0.5-0.4-0.6C199.1,77.2,198.9,77,198.9,76.6z M204.5,80.6L204.5,80.6
		c0.6-0.2,1.1-0.5,1.5-1.1c0.4-0.5,0.3-0.9-0.2-1.4c-0.3-0.2-0.6-0.4-1-0.5c-0.9-0.3-1.9-0.4-2.8-0.4c-0.4,0-0.4,0-0.4,0.5
		c-0.1,0.4-0.1,0.8-0.2,1.2c-0.1,0.7-0.1,1.4-0.2,2c0,0.5,0,0.5,0.5,0.5c0.1,0,0.3,0,0.4-0.1c0.7-0.1,1.4-0.4,2-0.7
		C204.3,80.7,204.4,80.6,204.5,80.6z"/>
	<path class="st1" d="M84.7,81.1c0.7-0.5,1.4-0.8,2.2-0.7c0.7,0,1.2,0.2,1.7,0.7c0.2,0.1,0.3,0.3,0.5,0.4c0.1,0.2,0.2,0.4,0.4,0.6
		c0.4,1,0.7,2,0.8,3c0.2,1.6,0.2,3.1,0.1,4.7c-0.1,1-0.2,1.2-1.3,1.2c-0.4-0.3-0.5-0.7-0.5-1.2c0.1-0.8,0.1-1.7,0.1-2.5
		c0-0.3-0.1-0.5-0.4-0.5c-1.8,0.1-3.6,0.1-5.4,0.2c-0.3,0-0.5,0.2-0.5,0.5c-0.4,0.6-0.6,1.4-0.9,2.1c-0.1,0.3-0.3,0.7-0.4,1
		c-0.2,0.6-0.6,0.9-1.3,0.8c-0.3-0.3-0.4-0.7-0.2-1.2c0.2-0.9,0.5-1.7,0.9-2.5c0.2-0.5,0.2-0.5-0.3-0.6c-0.4-0.1-0.6-0.4-0.6-0.7
		c0.2-0.3,0.5-0.5,0.9-0.6c0.6,0.1,1-0.1,1.2-0.7c0-0.1,0.1-0.2,0.2-0.3c0.6-1,1.1-2,1.9-2.8C84.1,81.6,84.4,81.4,84.7,81.1z
		 M85.9,82.2c-0.1,0.1-0.3,0.1-0.4,0.2c-0.9,0.8-1.6,1.9-2.1,2.9c-0.1,0.3,0,0.3,0.2,0.3c1.3,0,2.6,0,3.8-0.1c0.3,0.1,0.5,0,0.8,0
		c0.3,0,0.4-0.1,0.4-0.4c-0.1-1-0.3-2-0.9-2.9C87.2,81.5,86.6,81.5,85.9,82.2z"/>
	<path class="st1" d="M180.9,77.4c0.7-0.4,1.4-0.7,2.2-0.8c2-0.2,3.7,1.1,4.3,3.1c0.1,0.4,0.2,0.9,0.3,1.3c0,0.7-0.1,1.5-0.2,2.2
		c-0.2,0.3-0.3,0.6-0.4,0.9c-0.7,1.8-1.9,3.1-3.7,3.7c-0.2,0-0.5,0-0.7,0c-1.5,0.1-2.7-0.5-3.5-1.8c-0.6-0.9-0.8-1.9-0.9-2.9
		C178.2,80.8,179.1,78.9,180.9,77.4z M182.2,78.4c-0.4,0.2-0.6,0.4-0.9,0.7c-1,1.2-1.4,2.6-1.3,4.2c0.1,1,0.3,1.9,1.1,2.7
		c0.5,0.5,1.1,0.7,1.7,0.5c0.8-0.2,1.4-0.7,1.9-1.3c1-1.3,1.3-2.8,1.1-4.4c-0.1-0.9-0.4-1.8-1.1-2.4
		C183.9,77.7,182.9,77.7,182.2,78.4z"/>
	<path class="st1" d="M115.1,80.1c0.8-0.5,1.6-0.8,2.6-0.9c2.1-0.1,3.9,1.4,4.2,3.5c0.3,2.4-1,5.1-3.1,6.3c-0.5,0.3-0.9,0.5-1.5,0.7
		c-0.2,0-0.5,0.1-0.7,0.1c-2.2,0.2-3.9-1.1-4.3-3.2c-0.2-0.9-0.1-1.8,0.1-2.7C112.9,82.3,113.8,81.1,115.1,80.1z M116.4,81
		c-0.8,0.3-1.3,0.9-1.7,1.6c-0.8,1.4-1.2,2.8-0.6,4.3c0.5,1.3,1.5,1.8,2.8,1.4c0.7-0.2,1.2-0.6,1.7-1.1c0.9-0.9,1.4-2,1.5-3.2
		c0.1-0.8,0-1.6-0.3-2.4C119.1,80.4,117.6,80,116.4,81z"/>
	<path class="st1" d="M125.7,79.7c0.9-0.6,2-0.9,3.1-0.7c1.8,0.3,3.1,1.6,3.4,3.5c0.4,2.2-0.2,4.1-1.8,5.7c-0.6,0.6-1.3,1-2.1,1.2
		c-2.4,0.5-4.3-0.8-4.9-3.1c-0.1-0.4-0.2-0.9-0.2-1.3C123.2,82.8,124,81.1,125.7,79.7z M127.9,88.1c0.5-0.1,0.9-0.4,1.2-0.7
		c1.5-1.4,2-3.9,1.1-5.8c-0.2-0.5-0.5-0.9-1-1.2c-0.8-0.5-1.7-0.4-2.4,0.2c-0.2,0.1-0.4,0.2-0.6,0.4c-1.4,1.4-1.8,4.1-0.8,5.8
		C126,87.9,126.8,88.3,127.9,88.1z"/>
	<path class="st1" d="M198,77.7c-0.2,0.3-0.2,0.7-0.3,1.1c-0.5,2.1-1.3,4.1-2.6,5.9c-0.8,1.1-1.6,2-2.9,2.4c-0.1,0-0.2,0-0.2,0.1
		c-1.8,0-2.6-0.6-3.1-2.4c0-0.1-0.1-0.3-0.1-0.4c-0.3-1.3-0.2-2.5,0-3.8c0.2-1.1,0.5-2.3,0.8-3.4c0.1-0.1,0.1-0.1,0.2-0.2
		c0.4-0.4,0.8-0.5,1.1-0.3c0.4,0.2,0.3,0.6,0.2,1c-0.2,1-0.5,2-0.6,3.1c-0.1,1.1-0.2,2.3,0,3.4c0.1,0.4,0.2,0.7,0.4,1.1
		c0.1,0.2,0.3,0.4,0.6,0.5c0.2,0.1,0.4,0,0.6-0.1c0.5-0.3,0.9-0.7,1.2-1.1c1.7-2.2,2.6-4.7,3-7.4c0.6-0.7,0.9-0.7,1.7-0.2
		C198,77.2,198,77.4,198,77.7z"/>
	<path class="st1" d="M90.3,81c0.3-0.4,0.7-0.5,1.2-0.5c1.1-0.1,2.2-0.2,3.3-0.2c2-0.1,4.1-0.2,6.1-0.3c0.5,0,1,0,1.3,0.5
		c0,0.3-0.2,0.5-0.3,0.7c-0.3,0-0.6,0.1-0.9,0.1c-1.2-0.1-2.4,0.1-3.7,0.1c-0.3,0-0.4,0.2-0.4,0.5c-0.2,1.3-0.3,2.6-0.4,3.9
		c-0.1,1.2-0.2,2.3-0.3,3.5c-0.1,0.9-0.3,1.1-1.2,1.2c-0.5-0.2-0.6-0.6-0.5-1.1c0-0.1,0-0.3,0-0.4c0.2-2.1,0.4-4.2,0.6-6.3
		c0.1-1.4,0.3-1.3-1.2-1.2c-0.9,0-1.8,0-2.6,0C90.8,81.6,90.4,81.5,90.3,81z"/>
	<path class="st1" d="M175.8,85.8c0.5-0.6,0.7-0.7,1.6-0.4c0.1,0.2,0.2,0.3,0.2,0.5c0,0.2-0.1,0.4-0.1,0.6c-0.1,0.7-0.3,0.8-0.9,0.9
		c-0.1,0-0.2,0-0.4,0.1c-0.2,0-0.5,0-0.7,0c-1.9,0-3.8,0.1-5.7,0.1c-0.2,0-0.4,0-0.6-0.1c-0.2-0.1-0.4-0.3-0.4-0.5
		c0-0.2,0.1-0.4,0.4-0.5c0.3-0.1,0.4-0.3,0.4-0.6c0.1-0.2,0.1-0.5,0.1-0.8c0.3-2.3,0.5-4.5,0.8-6.8c0-0.4,0.1-0.7-0.3-0.9
		c-0.1-0.1-0.2-0.3-0.2-0.5c0.1-0.2,0.3-0.4,0.6-0.5c0.6-0.1,1.2-0.1,1.8,0c0.3,0,0.5,0.2,0.6,0.5c0,0.3-0.2,0.5-0.4,0.6
		c-0.3,0.1-0.4,0.3-0.4,0.6c-0.3,2.5-0.6,5-0.8,7.5c-0.1,0.5-0.1,0.6,0.5,0.5c1,0,2,0,2.9-0.1c0.2,0.1,0.5,0,0.7,0
		C175.8,86.3,175.8,86.1,175.8,85.8z"/>
	<path class="st1" d="M77.2,82.9c-0.2,0.8-0.3,1.6-0.4,2.5c-0.2,1.6-0.4,3.1-0.6,4.7c-0.1,1-0.3,1.1-1.3,1.2
		c-0.4-0.3-0.5-0.6-0.5-1.1c0.1-0.5,0.1-1.1,0.2-1.7c0.2-1.8,0.5-3.7,0.7-5.5c0.1-0.4,0-0.4-0.4-0.5c-0.1,0-0.3,0-0.4,0
		c-1,0-2,0-3-0.1c-0.3,0-0.7-0.1-0.9-0.4c0.1-0.3,0.5-0.3,0.7-0.5c0,0,0,0,0,0c2.1-0.1,4.2-0.2,6.3-0.3c1.3-0.1,2.6-0.1,3.8-0.2
		c0.3,0,0.6,0,0.8,0.1c0.2,0.1,0.3,0.3,0.4,0.5c0,0.2-0.1,0.4-0.3,0.5c-0.3,0.2-0.6,0.1-0.9,0.2c-1.3-0.1-2.7,0-4,0
		C77.1,82.4,77.1,82.7,77.2,82.9z"/>
	<path class="st1" d="M102.9,80.3c0.3-0.4,0.7-0.5,1.1-0.5c1.2-0.1,2.3-0.1,3.5-0.2c1.6-0.1,3.1-0.1,4.7-0.2c0.2,0,0.4,0,0.6,0
		c0.3,0.1,0.5,0.2,0.5,0.6c0,0.3-0.2,0.5-0.5,0.6c-0.2,0.1-0.5,0.1-0.7,0.1c-1,0-2,0.1-3,0.1c-0.3,0-0.4,0.2-0.4,0.5
		c-0.2,1.1-0.2,2.1-0.3,3.2c-0.2,1.4-0.3,2.8-0.4,4.3c0,0,0,0.1,0,0.1c-0.1,0.9-0.3,1.1-1.2,1.1c-0.4-0.3-0.5-0.6-0.5-1.1
		c0.2-2.3,0.4-4.6,0.7-6.9c0.1-1.3,0.1-1.1-1-1.1c-0.7,0-1.4,0.1-2.1,0.1C103.4,81,103,80.9,102.9,80.3z"/>
	<path class="st1" d="M62.2,16.4c-0.3,0.3-0.7,0.3-1,0.4c-2.2,0.4-4.4,0.3-6.5-0.5c-0.4-0.1-0.8-0.3-1.2-0.3c-0.1,0-0.3-0.1-0.4,0.2
		c0.6,0.5,1.2,0.9,1.8,1.3c1.1,0.6,2.3,0.9,3.5,1c0.7,0.1,1.4-0.1,2-0.5c0.2-0.2,0.5-0.2,0.8-0.3c0,0.5-0.3,0.8-0.7,1
		c-0.3,0.1-0.6,0.3-0.8,0.6c-1.4,1.5-3.1,2-5.1,1.6c-1.1-0.2-2.1-0.5-2.8-1.4c-0.8-0.9-1-2-0.6-3c0.4-0.8,1-1.2,1.8-1.2
		c0.6,0,1.1,0,1.6,0.2c2.3,0.9,4.6,0.9,7,0.7C61.9,16.3,62,16.2,62.2,16.4z M56,19.9c0.5,0.1,1-0.1,1.5-0.2c0.2,0,0.5-0.2,0.7,0
		c0.2,0.2,0.3,0.1,0.4-0.1c0.1-0.2,0.3-0.2,0.4-0.2c0.1-0.1,0.4,0,0.4-0.2c0-0.1,0-0.1-0.1-0.1c-2,0.1-3.8-0.5-5.5-1.6
		c-0.4-0.3-0.8-0.6-1.2-0.9c-0.1-0.1-0.2-0.1-0.3,0c-0.1,0.1-0.2,0.2,0,0.3c0.2,0.1,0.2,0.2,0,0.3c-0.1,0-0.2,0.1-0.2,0.2
		c0,0.1,0.1,0.1,0.2,0.2c0.1,0,0.3,0,0.4,0.1c-0.1,0.2-0.5,0.1-0.6,0.4c0.5,0,1,0,1.5,0c-0.4,0.2-0.8,0.2-1.3,0.5
		c0.7,0.1,1.3-0.1,1.9,0c-0.4,0.3-0.9,0.2-1.3,0.4c0.7,0.1,1.4-0.1,2.1,0c-0.5,0.3-1.2,0.2-1.8,0.5c1,0,1.9-0.1,3-0.1
		c-0.4,0.3-0.7,0.2-1,0.4c0.5-0.1,1-0.2,1.6-0.1C56.5,19.8,56.2,19.7,56,19.9z"/>
	<path class="st0" d="M163.9,4c0.2,0.8,0.2,1.4,0.4,2.1c0.2,0.7,0.5,1.3,0.9,1.8c0.3,0.5,0.8,0.8,1.4,0.9c0.1,0,0.1,0,0.2,0.1
		c0,0,0.1,0.1,0.1,0.1c-1.2,0.2-1.7,1.1-2.1,2c-0.5,1.2-0.7,2.5-0.8,3.9c0,0.2,0.1,0.5-0.2,0.5c-0.4,0-0.2-0.3-0.2-0.5
		c0-1.2-0.2-2.4-0.6-3.6c-0.1-0.4-0.3-0.8-0.5-1.1c-0.5-0.8-0.8-1-1.6-1.2c0-0.1,0.2-0.2,0.3-0.2c0.6-0.1,1-0.4,1.4-0.9
		c0.7-0.9,1-2,1.1-3.1c0-0.2,0-0.3,0.1-0.5C163.8,4.2,163.8,4.2,163.9,4z"/>
	<path class="st0" d="M170,77.1c0,0.2,0.1,0.4,0.2,0.5c0.4,0.2,0.4,0.6,0.3,0.9c-0.3,2.3-0.5,4.5-0.8,6.8c0,0.3-0.1,0.5-0.1,0.8
		c-0.1,0.3-0.1,0.5-0.4,0.6c-0.2,0.1-0.4,0.2-0.4,0.5c0,0.3,0.2,0.4,0.4,0.5c0.2,0.1,0.4,0.1,0.6,0.1c1.9,0,3.8-0.1,5.7-0.1
		c0.2,0,0.5,0,0.7,0c-0.2,0.4-0.6,0.5-1,0.5c-1.9,0-3.9,0.1-5.8,0.1c-0.3,0-0.6,0-0.9,0c-0.6,0-0.8-0.3-0.9-0.8c0,0,0,0,0,0
		c0,0,0.1-0.1,0.1-0.1c0.6-0.2,0.7-0.7,0.8-1.3c0.2-1.9,0.4-3.8,0.6-5.7c0-0.4,0.1-0.7,0.1-1.1c0.1-0.4,0.2-0.8-0.3-1.1
		c-0.3-0.2-0.2-0.6,0.1-0.8C169.4,77.1,169.7,77.1,170,77.1z"/>
	<path class="st0" d="M35.1,16.5c-0.2-0.7-0.3-1.4-0.3-2.1c-0.1-0.9-0.2-1.9-0.6-2.7c-0.2-0.6-0.6-1-1.3-1.1c-0.1,0-0.1-0.1-0.1-0.1
		c-0.1-0.1,0-0.2,0-0.2c0.7-0.2,1-0.8,1.3-1.3c0.5-1.1,0.8-2.3,0.9-3.5c0-0.1,0-0.3,0.1-0.3c0.1,0,0.2,0.1,0.2,0.2
		c0,1.1,0.3,2.1,0.7,3.1c0.3,0.8,0.7,1.5,1.5,1.8c0,0.2-0.1,0.2-0.3,0.3c-0.6,0.1-0.9,0.5-1.1,1c-0.4,1-0.5,2-0.6,3.1
		c-0.1,0.6-0.1,1.1-0.2,1.7C35.3,16.4,35.3,16.5,35.1,16.5z"/>
	<path class="st0" d="M177.6,85.9c0-0.2-0.1-0.4-0.2-0.5c-0.6-2.3-0.2-4.4,1.2-6.3c0.6-0.8,1.3-1.5,2.3-1.7
		c-1.8,1.5-2.6,3.4-2.6,5.7c0,1,0.3,2,0.9,2.9c0.8,1.3,2,1.9,3.5,1.8c0.2,0,0.5,0,0.7,0c-1.7,1-4,0.8-5.3-1
		C177.9,86.5,177.7,86.2,177.6,85.9z"/>
	<path class="st0" d="M90.3,81c0.1,0.5,0.5,0.6,0.9,0.6c0.9,0,1.8,0,2.6,0c1.5-0.1,1.3-0.2,1.2,1.2c-0.2,2.1-0.4,4.2-0.6,6.3
		c0,0.1,0,0.3,0,0.4c-0.1,0.5,0.1,0.9,0.5,1.1c-0.1,0.2-0.2,0.4-0.4,0.4c-0.5,0.2-1.3,0-1.3-0.9c0.1-1.2,0.2-2.5,0.3-3.7
		c0.1-1.3,0.2-2.6,0.3-3.8c0-0.5,0-0.5-0.5-0.5c-0.9,0-1.9,0.1-2.8,0.1c-0.4,0-0.7,0-1.1-0.1c-0.2-0.2-0.3-0.4-0.4-0.6
		C89.4,81,89.9,81,90.3,81z"/>
	<path class="st0" d="M102.9,80.3c0.1,0.6,0.5,0.7,1,0.7c0.7,0,1.4,0,2.1-0.1c1.1,0,1.1-0.2,1,1.1c-0.2,2.3-0.4,4.6-0.7,6.9
		c0,0.5,0.1,0.8,0.5,1.1c-0.1,0.1-0.1,0.2-0.2,0.3c-0.3,0.3-0.7,0.3-1,0.1c-0.3-0.2-0.4-0.5-0.4-0.8c0.1-1.1,0.2-2.1,0.3-3.2
		c0.1-1.5,0.3-2.9,0.4-4.4c0.1-0.5,0-0.5-0.5-0.5c-0.8,0-1.6,0.1-2.4,0.1c-0.4,0-0.8-0.1-1.1-0.4c0.1-0.2,0.3-0.4,0.3-0.7
		C102.4,80.2,102.7,80.4,102.9,80.3z"/>
	<path class="st0" d="M115.1,80.1c-1.3,1-2.2,2.2-2.6,3.8c-0.2,0.9-0.3,1.8-0.1,2.7c0.4,2.1,2.1,3.4,4.3,3.2c0.2,0,0.5-0.1,0.7-0.1
		c-0.9,0.5-1.8,0.7-2.8,0.6c-1.6-0.2-2.7-1.2-3.2-2.7c-0.3-0.8-0.3-1.6-0.2-2.4c0.3-1.9,1.3-3.4,2.9-4.5
		C114.3,80.4,114.7,80.2,115.1,80.1z"/>
	<path class="st0" d="M125.7,79.7c-1.6,1.3-2.4,3.1-2.4,5.2c0,0.5,0.1,0.9,0.2,1.3c0.7,2.3,2.6,3.6,4.9,3.1c-1.8,1.1-4,0.7-5.2-0.9
		c-0.5-0.7-0.9-1.4-1-2.3c-0.3-2.4,0.4-4.4,2.4-5.9C124.9,80,125.2,79.8,125.7,79.7z"/>
	<path class="st0" d="M70.7,82c0.2,0.3,0.6,0.4,0.9,0.4c1,0.1,2,0.1,3,0.1c0.1,0,0.3,0,0.4,0c0.4,0,0.4,0,0.4,0.5
		c-0.2,1.8-0.5,3.7-0.7,5.5c-0.1,0.6-0.1,1.1-0.2,1.7c-0.1,0.5,0.1,0.8,0.5,1.1c-0.1,0.1-0.1,0.2-0.2,0.2c-0.3,0.3-0.6,0.3-1,0.2
		c-0.4-0.1-0.5-0.4-0.4-0.8c0.1-1,0.2-2,0.4-3c0.2-1.4,0.4-2.8,0.6-4.3c0.1-0.6,0.1-0.6-0.5-0.6c-1,0-2,0-3,0c-0.3,0-0.6,0-0.9-0.2
		c-0.2-0.1-0.2-0.4,0-0.5C70.1,82.1,70.4,82.1,70.7,82z"/>
	<path class="st0" d="M138.8,78.5c0,0.5,0.3,0.6,0.7,0.6c0.3,0,0.6,0,1,0c0.5,0,0.5,0,0.5,0.5c-0.1,1.2-0.3,2.4-0.4,3.6
		c-0.2,1.5-0.3,2.9-0.5,4.4c-0.1,0.5,0,0.8,0.5,1.1c-0.2,0.4-0.5,0.5-0.9,0.5c-0.4,0-0.7-0.3-0.7-0.8c0-0.3,0-0.6,0.1-1
		c0.3-2.4,0.6-4.8,0.8-7.3c0-0.1,0-0.2,0-0.3c0-0.2,0-0.4-0.3-0.3c-0.3,0-0.7,0-1,0c-0.5,0-0.8-0.2-0.8-0.4c0-0.3,0.2-0.5,0.7-0.7
		C138.5,78.5,138.7,78.5,138.8,78.5z"/>
	<path class="st0" d="M189.6,77.2c-0.4,1.1-0.7,2.2-0.8,3.4c-0.2,1.3-0.3,2.5,0,3.8c0,0.1,0.1,0.3,0.1,0.4c0.5,1.7,1.3,2.3,3.1,2.4
		c-1.6,1.1-3.4,0.5-4.1-1.3c-0.3-0.9-0.4-1.8-0.5-2.7c0.1-0.7,0.2-1.5,0.2-2.2c0.2-0.9,0.3-1.8,0.6-2.6c0.1-0.2,0.2-0.5,0.3-0.7
		C188.8,77.3,189.2,77.1,189.6,77.2z"/>
	<path class="st0" d="M157.7,77.7c0.1,0.6,0.5,0.6,0.9,0.7c0.5,0,0.5,0,0.5,0.6c-0.3,2.5-0.5,5.1-0.8,7.6c0,0.1,0,0.3,0,0.4
		c-0.1,0.5,0.1,0.8,0.4,1.1c-0.2,0.4-0.5,0.5-0.9,0.5c-0.4,0-0.6-0.3-0.7-0.6c0.2-0.6,0.2-1.3,0.3-2c0.1-0.8,0.1-1.7,0.1-2.5
		c0.2-1.4,0.3-2.8,0.5-4.1c0.1-0.4,0-0.5-0.4-0.5c-0.2,0-0.5,0-0.7-0.1c-0.3-0.2-0.4-0.5-0.1-0.8C157,77.8,157.3,77.7,157.7,77.7z"
		/>
	<path class="st0" d="M198,77.7c0-0.3,0-0.5,0-0.8c0.3-0.1,0.6-0.2,0.9-0.3c0,0.4,0.2,0.6,0.6,0.6c0.4,0,0.4,0.2,0.4,0.6
		c-0.2,1.4-0.3,2.8-0.5,4.3c-0.1,1.1-0.2,2.3-0.3,3.4c-0.1,0.5,0,0.9,0.5,1.2c-0.1,0.1-0.1,0.2-0.2,0.3c-0.3,0.2-0.6,0.3-1,0.1
		c-0.3-0.1-0.5-0.4-0.5-0.8c0-0.4,0.1-0.9,0.1-1.3c0.2-2.2,0.5-4.3,0.7-6.5C198.7,77.8,198.7,77.8,198,77.7z"/>
	<path class="st0" d="M196.3,77.1c-0.4,2.7-1.3,5.2-3,7.4c-0.3,0.4-0.7,0.8-1.2,1.1c-0.2,0.1-0.4,0.2-0.6,0.1
		c1.9-1.9,2.8-4.3,3.4-6.9c0.1-0.3,0.1-0.6,0.2-0.9C195.3,77.3,195.5,77.1,196.3,77.1z"/>
	<path class="st0" d="M82.3,87.6c0-0.3,0.2-0.5,0.5-0.5c1.8-0.1,3.6-0.1,5.4-0.2c0.3,0,0.4,0.1,0.4,0.5c0,0.8,0,1.7-0.1,2.5
		c0,0.5,0.1,0.9,0.5,1.2c-0.1,0.1-0.2,0.3-0.3,0.3c-0.3,0.2-0.6,0.2-1,0.1c-0.3-0.2-0.4-0.4-0.4-0.8c0-0.8,0.1-1.5,0.1-2.3
		c0-1.1,0-0.9-0.9-0.9C85.3,87.5,83.8,87.5,82.3,87.6z"/>
	<path class="st0" d="M156.9,14.9c1.2-0.8,1.7-1.9,1.8-3.2c0.3,0.5,0.2,1.2,0.5,1.7c0.3,0.5,0.7,1,1.3,1.4c-0.4,0.4-0.8,0.7-1,1.1
		c-0.2,0.5-0.5,0.9-0.5,1.4c-0.1,0.5-0.1,0.9-0.3,1.4c-0.3-0.7-0.2-1.5-0.5-2.2C158,16,157.7,15.3,156.9,14.9z"/>
	<path class="st0" d="M201,83.5c0-0.6,0.1-0.7,0.6-0.6c0.6,0,1.1,0.3,1.6,0.5c1.4,0.7,2.6,1.6,3.7,2.8c0.2,0.2,0.4,0.4,0.7,0.6
		c-0.4,0.6-1,0.7-1.5,0.2c-0.3-0.3-0.6-0.7-0.9-1C203.9,84.9,202.6,84,201,83.5z"/>
	<path class="st0" d="M31.5,42.6c0,0.5-0.3,0.9,0,1.5c0.3-0.6,0.5-1.1,1-1.4c0.3,0,0.5,0,0.8,0c0,0.6-0.2,1.2-0.4,1.8
		c-0.7,0.3-1,0.7-0.8,1.5c-0.4-0.3-0.5-0.5-0.7-1.5c-0.5,0.3-0.8,0.7-0.8,1.3c0,0.1,0.1,0.3-0.1,0.4c-0.2,0.1-0.3-0.1-0.4-0.3
		c-0.5-1.4-0.1-2.7,1.2-3.4C31.3,42.6,31.4,42.6,31.5,42.6z"/>
	<path class="st0" d="M160.2,84.9c0-0.6,0-0.6,0.6-0.6c0.5,0,0.9,0.2,1.4,0.4c1.2,0.5,2.3,1.3,3.3,2.2c0.3,0.3,0.6,0.6,0.9,0.8
		c-0.4,0.6-0.9,0.7-1.5,0.3c-0.2-0.1-0.3-0.3-0.5-0.5C163.2,86.3,161.8,85.4,160.2,84.9z"/>
	<path class="st0" d="M149.8,85.4c0-0.3,0.1-0.5,0.4-0.5c1.6-0.1,3.3-0.2,4.9-0.3c0.4,0,0.5,0,0.5,0.5c0,0.6,0,1.1-0.1,1.7
		c-0.1,0.6,0,1.1,0.4,1.5c-0.3,0.4-0.7,0.6-1.1,0.4c-0.4-0.1-0.5-0.4-0.5-0.9c0.1-0.6,0.1-1.2,0.2-1.7c0-0.1,0-0.3,0-0.4
		c0-0.4,0-0.4-0.4-0.4c-1.1,0.1-2.2,0.1-3.3,0.2C150.4,85.4,150.1,85.4,149.8,85.4z"/>
	<path class="st0" d="M79.5,86.4c0,0.4,0.3,0.6,0.6,0.7c0.4,0.1,0.4,0.2,0.3,0.6c-0.3,0.8-0.6,1.7-0.9,2.5c-0.1,0.4-0.1,0.8,0.2,1.2
		c-0.1,0.1-0.1,0.2-0.2,0.3c-0.3,0.2-0.6,0.3-0.9,0.2c-0.3-0.1-0.4-0.4-0.3-0.8c0.2-0.9,0.5-1.8,0.9-2.7c0.1-0.2,0.2-0.4,0.2-0.7
		c-0.2-0.1-0.4-0.1-0.6-0.2c-0.2-0.1-0.4-0.2-0.4-0.5c0-0.3,0.1-0.4,0.4-0.6C79,86.4,79.3,86.3,79.5,86.4z"/>
	<path class="st0" d="M145.9,84.7c0.1-0.1,0.3-0.2,0.4-0.2c0.3-0.1,0.6-0.2,0.7,0.2c0.1,0.2,0.3,0.3,0.5,0.4c0.4,0,0.4,0.3,0.4,0.6
		c-0.1,0.6-0.2,1.3-0.2,2c0,0.4,0.1,0.8,0.4,1.1c-0.1,0.2-0.2,0.3-0.3,0.4c-0.4,0.3-1.2,0.2-1.3-0.6c0-0.5,0-1,0.1-1.5
		c0-0.3,0.1-0.6,0.1-0.9c0.1-0.3,0-0.5-0.3-0.6C145.9,85.4,145.9,85.3,145.9,84.7z"/>
	<path class="st0" d="M58.1,38.4c-0.1,0.4-0.1,0.8,0,1.4c0.3-0.3,0.6-0.6,0.9-0.9c0.1,0,0.2-0.1,0.1-0.2c0,0,0,0,0,0
		c0.3,0,0.5-0.2,0.8-0.1c0.2,0.5,0.1,1.1,0.1,1.6c-0.3,0.2-0.6,0-0.9,0.2c-0.3,0.1-0.5,0.3-0.5,0.6c-0.2,0.3-0.3,0.3-0.4,0
		c-0.2-0.3-0.1-0.7-0.1-1c-0.6,0.2-0.8,0.4-0.9,1.3c-0.3,0-0.4-0.2-0.5-0.4c-0.4-0.7-0.2-1.7,0.4-2.3C57.4,38.6,57.7,38.3,58.1,38.4
		z"/>
	<path class="st1" d="M59.9,40.3c0-0.5,0.1-1.1-0.1-1.6c0.2-0.9,1-1.6,1.9-1.6c0.8-0.1,1.6-0.1,2.4-0.1c0.2,0,0.5,0,0.5,0.3
		c0,0.3-0.3,0.3-0.5,0.3c-0.7,0.1-1.4,0.1-2.1,0.2c-0.8,0.1-1.2,0.6-1.2,1.4c0,0.4,0.1,0.9,0.1,1.3c0,0.3,0,0.5-0.3,0.6
		c-0.3,0.1-0.4-0.1-0.5-0.5C60,40.5,60,40.4,59.9,40.3z"/>
	<path class="st0" d="M78.8,24.5c0.8-0.2,1.4,0,1.9,0.7c-0.6,1.3-1.5,2.2-2.9,2.7c-0.2,0.1-0.6,0.2-0.7,0c-0.2-0.3,0.2-0.4,0.4-0.5
		C78.3,26.6,78.7,25.6,78.8,24.5z"/>
	<path class="st0" d="M38.1,34.8c-0.1-0.5-0.1-0.9-0.2-1.4c-0.2-0.5-0.4-1-1-1.2c-0.2-0.1-0.3-0.3-0.1-0.4c0.8-0.5,1.1-1.4,1.2-2.3
		c0,0,0-0.1,0.1-0.2c0.2,0.4,0.2,0.7,0.3,1.1c0.2,0.5,0.5,1,1,1.3c0.2,0.1,0.3,0.3,0,0.4c-1,0.5-1.1,1.4-1.2,2.3
		C38.3,34.6,38.3,34.7,38.1,34.8z"/>
	<path class="st1" d="M32.9,44.6c0.1-0.6,0.3-1.2,0.4-1.8c0.2-0.5,0.7-0.8,1.2-0.9c0.7-0.1,1.4,0,2,0.2c0.2,0.1,0.4,0.2,0.3,0.4
		c0,0.3-0.3,0.3-0.5,0.3c-0.1,0-0.3-0.1-0.4-0.1c-0.2,0-0.4-0.1-0.6-0.1c-0.9-0.1-1.1,0.1-1.3,0.9c-0.1,0.3-0.1,0.7-0.1,1
		c0,0.2,0,0.5-0.3,0.5c-0.3,0.1-0.5-0.1-0.6-0.4C33,44.7,32.9,44.6,32.9,44.6z"/>
	<path class="st0" d="M84.7,81.1c-0.3,0.3-0.7,0.5-1,0.8c-0.8,0.8-1.4,1.9-1.9,2.8c-0.1,0.1-0.1,0.2-0.2,0.3
		c-0.2,0.6-0.6,0.8-1.2,0.7c0.7-1.4,1.5-2.7,2.7-3.8C83.6,81.6,84.1,81.2,84.7,81.1z"/>
	<path class="st0" d="M96.5,32.5c-0.2,0.6-0.2,1.2-0.2,1.9c-0.2,0.1-0.4,0.2-0.6,0.3c-0.3,0.1-0.5,0.3-0.6,0.7c0,0.1,0,0.3-0.2,0.3
		c-0.1,0-0.2-0.1-0.3-0.2c-0.1-0.3-0.1-0.5-0.2-0.8C94.4,33.5,95.4,32.5,96.5,32.5z"/>
	<path class="st0" d="M86.2,33.8c-0.2,0.6-0.3,1.3-0.6,1.9c-0.7,0.1-0.8,0.7-1,1.4c-0.4-0.8-0.5-1.4-0.2-2.1
		C84.7,34.2,85.3,33.8,86.2,33.8z"/>
	<path class="st0" d="M99.1,32.7c0.1,0.5,0.2,1,0.2,1.5c-0.1,0-0.2,0.1-0.3,0.1c-0.5,0.2-0.9,0.5-1.1,1.1c-0.5-0.3-0.6-0.9-0.5-1.4
		C97.7,33.2,98.2,32.8,99.1,32.7z"/>
	<path class="st0" d="M72.8,33.2c-0.2,0.1-0.5,0.2-0.7-0.1c-0.1-0.2-0.3-0.3-0.5-0.4c-0.1-0.1-0.1-0.2-0.1-0.3
		c1-0.3,1.8-0.8,2.4-1.7c0.4,0.1,0.2,0.4,0.1,0.6c-0.1,0.5-0.4,0.9-0.6,1.3C73.2,33,73.2,33,73.7,33C73.3,33,73.3,33,72.8,33.2z"/>
	<path class="st0" d="M77.2,82.9c-0.1-0.3-0.1-0.5,0.3-0.5c1.3,0,2.7-0.1,4,0c-0.2,0.4-0.6,0.5-1,0.5C79.4,82.9,78.3,82.9,77.2,82.9
		z"/>
	<path class="st0" d="M96.9,81.9c-0.1-0.3,0-0.5,0.4-0.5c1.2,0,2.4-0.2,3.7-0.1c-0.2,0.4-0.6,0.5-1,0.5
		C98.9,81.8,97.9,81.9,96.9,81.9z"/>
	<path class="st0" d="M151.2,78.6c-0.1,0.3-0.4,0.5-0.5,0.7c-0.5,0.7-0.9,1.3-1.3,2.1c-0.1,0.1-0.1,0.3-0.3,0.3
		c-0.1-0.4-0.1-0.7-0.2-1.1c0.4-0.4,0.7-0.8,1.1-1.2C150.3,79,150.7,78.7,151.2,78.6z"/>
	<path class="st1" d="M79.1,23.2c-0.3,0.1-0.6,0-0.9-0.1c-0.3-0.1-0.7-0.2-1-0.3c-0.4-0.1-0.6-0.3-0.7-0.6c-0.1-0.4,0-0.7,0.3-0.9
		c0.3-0.2,0.5-0.4,0.9-0.3c0,0.3-0.2,0.4-0.4,0.5c-0.5,0.5-0.4,0.8,0.2,1.1C78.1,22.8,78.6,23,79.1,23.2z"/>
	<path class="st0" d="M108.8,81.3c-0.1-0.3,0-0.5,0.4-0.5c1,0,2-0.1,3-0.1c-0.2,0.4-0.6,0.5-1,0.5C110.4,81.3,109.6,81.3,108.8,81.3
		z"/>
	<path class="st1" d="M73,24.9c-1.3,0.7-2.4,1.9-3.6,2.8c0.1-0.6,0.3-0.7,1.6-1.7C71.6,25.5,72.2,25.1,73,24.9z"/>
	<path class="st0" d="M142.1,85.8c0-0.2,0-0.4,0.3-0.4c0.7-0.1,1.4-0.2,2.1-0.3c0.1,0,0.1,0.1,0.2,0.1
		C143.7,85.4,142.9,85.7,142.1,85.8z"/>
	<path class="st0" d="M175.8,85.8c0,0.3,0,0.5-0.4,0.5c-0.2,0-0.5,0-0.7,0C175,85.7,175.3,85.7,175.8,85.8z"/>
	<path class="st1" d="M58.6,41.2c0-0.3,0.2-0.5,0.5-0.6C59.2,41.1,59.2,41.2,58.6,41.2z"/>
	<path class="st1" d="M71.9,17.9c-0.2,0-0.3-0.1-0.4-0.4C71.7,17.6,71.9,17.7,71.9,17.9L71.9,17.9z"/>
	<path class="st1" d="M69.2,17.7c-0.1,0-0.1,0-0.2-0.1c0,0,0-0.1,0.1-0.1C69.2,17.5,69.2,17.6,69.2,17.7
		C69.2,17.6,69.2,17.7,69.2,17.7z"/>
	<path class="st1" d="M73.1,18.2c-0.1,0-0.2,0-0.3-0.1l0,0C72.9,18,73,18.1,73.1,18.2C73.1,18.2,73.1,18.2,73.1,18.2z"/>
	<path class="st1" d="M71.9,17.9c0.1,0,0.2,0,0.1,0.1l0,0C72,18,72,18,71.9,17.9C71.9,17.9,71.9,17.9,71.9,17.9z"/>
	<path class="st1" d="M72,18.1c0,0,0.1,0,0.1,0C72.1,18.2,72.1,18.1,72,18.1C72,18,72,18.1,72,18.1z"/>
	<path class="st1" d="M72.4,18.3C72.3,18.3,72.3,18.3,72.4,18.3C72.4,18.2,72.4,18.2,72.4,18.3C72.4,18.3,72.4,18.3,72.4,18.3z"/>
	<path class="st1" d="M72.8,18C72.8,18,72.8,18,72.8,18C72.8,17.9,72.8,18,72.8,18C72.8,18,72.8,18,72.8,18z"/>
	<path class="st1" d="M73.2,18.3c-0.1,0-0.1,0-0.1-0.1c0,0,0,0,0,0C73.1,18.2,73.2,18.2,73.2,18.3C73.2,18.3,73.2,18.3,73.2,18.3z"
		/>
	<path class="st0" d="M69.3,19.2c1-0.1,1.9,0.2,2.9,0.6c0.2,0.1,0.3,0.3,0.2,0.5c-0.1,0.2-0.1,0.4-0.2,0.5c0,0.1,0,0.1-0.1,0.2
		c0,0,0,0,0,0c-0.1,0-0.2,0.2-0.3,0.2c-0.7,0.6-1.8,0.6-2.5,0c-0.5-0.4-0.6-1.1-0.3-1.7C69.2,19.5,69.3,19.4,69.3,19.2z M70.5,20.6
		c0.5,0,0.8-0.3,0.8-0.6c0-0.2-0.3-0.4-0.6-0.4c-0.4,0-0.7,0.3-0.7,0.7C70,20.5,70.1,20.6,70.5,20.6z"/>
	<path class="st0" d="M154.4,83.5c-0.1-0.9-0.3-1.8-0.7-2.7c-0.2-0.5-0.6-1-1.1-1.2c0.6-0.7,1.3-0.7,1.8,0c0.3,0.4,0.6,1,0.7,1.5
		c0.2,0.6,0.3,1.3,0.4,2c0,0.3-0.1,0.4-0.3,0.4C154.9,83.5,154.6,83.5,154.4,83.5z"/>
	<path class="st0" d="M145.2,83.3c0.2-0.2,0.4-0.4,0.5-0.6c0.4-0.6,0.4-1.1-0.1-1.7c-0.3-0.4-0.8-0.6-1.2-0.8
		c-0.6-0.2-1.1-0.4-1.7-0.5c0-0.1,0-0.3,0-0.4c0-0.2,0.1-0.3,0.3-0.3c1.3,0.1,2.6,0.4,3.7,1.3c0.7,0.6,0.7,1.3,0,2
		C146.3,82.8,145.8,83.1,145.2,83.3z"/>
	<path class="st0" d="M148.9,82.3c-0.2,0.2-0.2,0.5-0.3,0.8c-0.2,0.7-0.1,0.8-1.1,0.7c0.3-0.3,0.5-0.5,0.7-0.7
		C148.5,82.8,148.7,82.5,148.9,82.3L148.9,82.3z"/>
	<path class="st0" d="M148.9,82.3C148.9,82.3,148.9,82.2,148.9,82.3C148.9,82.2,148.9,82.2,148.9,82.3
		C148.8,82.3,148.9,82.2,148.9,82.3C148.9,82.3,148.9,82.3,148.9,82.3z"/>
	<path class="st1" d="M138,75c0.1,0,0.1,0.1,0,0.1c-0.2,0.1-0.4,0-0.6,0C137.6,75.1,137.8,75,138,75z"/>
	<path class="st0" d="M164.6,81.9c0.5-0.8,0.4-1.3-0.4-1.8c-0.8-0.6-1.8-0.8-2.8-1c-0.2,0-0.4-0.1-0.6-0.1c0-0.6,0-0.6,0.5-0.6
		c1.3,0.1,2.5,0.3,3.6,0.9c0.3,0.2,0.6,0.4,0.9,0.7c0.4,0.4,0.4,0.9,0,1.3C165.4,81.5,165.1,81.9,164.6,81.9z"/>
	<path class="st0" d="M164.4,82c0.1,0,0.1-0.1,0.2-0.1C164.5,81.9,164.5,81.9,164.4,82z"/>
	<path class="st0" d="M204.4,80.6c0-0.3,0.2-0.4,0.3-0.5c0.4-0.5,0.4-1-0.1-1.4c-0.3-0.3-0.6-0.4-1-0.5c-0.7-0.2-1.4-0.4-2.1-0.4
		c0-0.5,0-0.5,0.4-0.5c1,0,1.9,0.1,2.8,0.4c0.3,0.1,0.7,0.3,1,0.5c0.5,0.4,0.5,0.8,0.2,1.4C205.6,80,205.1,80.4,204.4,80.6z"/>
	<path class="st0" d="M204.2,80.7c0.1-0.1,0.1-0.2,0.3-0.1C204.4,80.6,204.3,80.7,204.2,80.7z"/>
	<path class="st0" d="M87.4,85.6c-0.1-0.8-0.3-1.6-0.6-2.3c-0.2-0.4-0.5-0.9-0.9-1.1c0.7-0.7,1.3-0.7,1.8,0.1
		c0.6,0.9,0.7,1.9,0.9,2.9c0,0.3-0.1,0.4-0.4,0.4C88,85.7,87.7,85.7,87.4,85.6z"/>
	<path class="st0" d="M182.8,86.5c1.4-1.4,2.1-3.1,1.9-5.1c-0.1-0.6-0.2-1.2-0.5-1.8c-0.4-0.8-1-1.2-1.9-1.3c0.8-0.7,1.8-0.7,2.5,0
		c0.7,0.6,1,1.5,1.1,2.4c0.2,1.6-0.2,3.1-1.1,4.4C184.2,85.8,183.6,86.3,182.8,86.5z"/>
	<path class="st0" d="M116.9,88.4c1-0.9,1.8-2.1,2-3.5c0.1-0.7,0.1-1.4-0.1-2c-0.4-1.3-1.1-1.9-2.5-1.9c1.2-0.9,2.7-0.6,3.4,0.8
		c0.4,0.8,0.4,1.6,0.3,2.4c-0.2,1.2-0.6,2.3-1.5,3.2C118.1,87.8,117.6,88.2,116.9,88.4z"/>
	<path class="st0" d="M127.9,88.1c0.1-0.2,0.3-0.3,0.4-0.5c1.1-1.4,1.5-2.9,1.1-4.6c-0.1-0.4-0.3-0.9-0.5-1.2
		c-0.5-0.7-1.1-1.1-2-1.1c0.7-0.6,1.7-0.7,2.4-0.2c0.4,0.3,0.7,0.7,1,1.2c0.9,1.9,0.4,4.4-1.1,5.8C128.7,87.8,128.3,88,127.9,88.1z"
		/>
	<path class="st0" d="M144.9,51.2c0.2-0.3,0.2-0.6,0.2-0.9c0.8-5.2,1.6-10.4,2.4-15.6c0.1-0.7,0.1-0.7,0.8-0.8
		c0.8-0.1,1.7-0.3,2.5-0.4c0.5-0.1,0.5,0,0.5,0.5c-0.2,1.5-0.5,3-0.7,4.5c-1.2,7.7-2.4,15.4-3.6,23.1c-0.2,1.2,0,1-1.1,1.2
		c-0.7,0.1-1.4,0.2-2,0.3c-0.5,0.1-0.5,0.1-0.6-0.4c-0.3-1.8-0.6-3.5-1-5.3c-0.6-3.2-1.2-6.5-1.8-9.7c0-0.2,0-0.4-0.2-0.6
		c-0.2,0.1-0.2,0.4-0.2,0.6c-0.6,3.9-1.2,7.7-1.8,11.6c-0.2,1.5-0.4,2.9-0.7,4.4c-0.1,0.6-0.1,0.6-0.7,0.7c-0.9,0.2-1.8,0.3-2.7,0.5
		c-0.5,0.1-0.5,0-0.4-0.5c0.4-2.5,0.8-5,1.2-7.6c1.1-6.8,2.1-13.5,3.2-20.3c0-0.1,0-0.2,0-0.3c0-0.4,0.2-0.5,0.6-0.6
		c0.9-0.1,1.7-0.3,2.6-0.4c0.5-0.1,0.5-0.1,0.6,0.4c0.3,1.7,0.6,3.5,0.9,5.2c0.6,3.2,1.1,6.5,1.7,9.7
		C144.7,50.7,144.7,51,144.9,51.2z"/>
	<path class="st0" d="M43.2,74.9c0-1,0.2-1.9,0.4-2.9c0.8-4.6,1.5-9.2,2.3-13.8c0.5-2.8,1.7-5.2,4-7c1.1-0.8,2.3-1.4,3.6-1.7
		c1.1-0.2,2.1-0.1,3.1,0.3c0.8,0.4,1.4,1,1.8,1.8c0.5,1.1,0.6,2.2,0.5,3.4c-0.2,1.7-0.5,3.3-0.8,5c-0.6,3.9-1.2,7.8-2,11.7
		c-0.6,3.3-2.6,5.7-5.5,7.2c-0.9,0.4-1.8,0.7-2.8,0.7c-2.6,0.1-4.4-1.6-4.6-4.1C43.2,75.2,43.2,75.1,43.2,74.9z M54.9,55.7
		c0-1.5-0.8-2.2-2.1-2c-0.2,0-0.5,0.1-0.7,0.2c-1,0.4-1.6,1.1-2.1,2c-0.2,0.5-0.3,1-0.4,1.6c-0.3,1.7-0.6,3.4-0.8,5.1
		c-0.5,3.2-1.1,6.5-1.6,9.7c-0.1,0.5-0.2,1-0.1,1.5c0.1,0.9,0.7,1.4,1.6,1.5c0.2,0,0.5,0,0.7-0.1c1.3-0.3,2.1-1.1,2.6-2.2
		c0.2-0.5,0.3-1.1,0.4-1.7c0.8-4.9,1.6-9.9,2.4-14.8C54.9,56.2,54.9,55.9,54.9,55.7z"/>
	<path class="st0" d="M103.4,41.9c-0.2,1.5-0.5,3.1-0.7,4.6c-1.2,7.8-2.5,15.5-3.7,23.3c-0.2,1.1,0,0.9-1.1,1.1
		c-0.7,0.1-1.4,0.2-2.2,0.4c-0.7,0.1-0.7,0.1-0.6-0.5c0.3-2,0.6-4,0.9-6c0.3-1.9,0.6-3.8,0.9-5.7c0-0.1,0-0.2,0.1-0.3
		c0-0.3-0.1-0.4-0.4-0.3c-1.3,0.2-2.6,0.4-3.9,0.6c-0.4,0.1-0.4,0.3-0.5,0.6c-0.2,1.4-0.5,2.8-0.7,4.3c-0.4,2.6-0.8,5.1-1.2,7.7
		c-0.1,0.6-0.1,0.6-0.7,0.7c-0.9,0.1-1.7,0.3-2.6,0.4c-0.5,0.1-0.6,0.1-0.5-0.5c0.4-2.8,0.9-5.5,1.3-8.3c1.1-6.6,2.1-13.2,3.2-19.8
		c0.1-0.8,0.1-0.7,0.9-0.9c0.8-0.1,1.6-0.3,2.4-0.4c0.6-0.1,0.6-0.1,0.5,0.5c-0.4,2.6-0.8,5.3-1.3,7.9c-0.2,1.1-0.4,2.2-0.5,3.4
		c-0.1,0.6-0.1,0.6,0.5,0.5c1.2-0.2,2.3-0.4,3.5-0.6c0.6-0.1,0.6-0.1,0.7-0.7c0.5-3,1-6.1,1.4-9.1c0.1-0.8,0.3-1.6,0.4-2.4
		c0-0.3,0.2-0.5,0.5-0.5c1-0.2,1.9-0.3,2.9-0.5C103.4,41.4,103.4,41.5,103.4,41.9z"/>
	<path class="st0" d="M59.2,72.3c0-0.7,0.1-1.2,0.2-1.8c0.8-5.1,1.7-10.2,2.5-15.3c0.5-3,1.9-5.4,4.5-7.1c1-0.7,2.1-1.1,3.3-1.3
		c0.7-0.1,1.3-0.1,2,0.1c1.4,0.3,2.4,1.2,2.8,2.5c0.3,1,0.4,1.9,0.3,2.9c-0.4,2.5-0.8,5.1-1.2,7.6c-0.5,3.1-0.9,6.1-1.5,9.2
		c-0.6,3.2-2.6,5.5-5.5,7c-0.9,0.5-1.9,0.7-2.9,0.7c-2.4,0-4.1-1.6-4.3-4C59.2,72.7,59.2,72.4,59.2,72.3z M63.2,70.6
		c0,1.5,0.8,2.2,2.2,2c1.1-0.2,1.9-0.9,2.5-1.8c0.3-0.5,0.5-1.2,0.6-1.8c0.8-5,1.6-10.1,2.4-15.1c0.1-0.5,0.1-1,0.1-1.5
		c-0.1-0.6-0.4-1-0.9-1.2c-0.4-0.2-0.8-0.2-1.2-0.1c-1.3,0.3-2.2,1-2.7,2.2c-0.3,0.6-0.3,1.2-0.4,1.8c-0.7,4.2-1.4,8.4-2,12.6
		C63.4,68.7,63.2,69.7,63.2,70.6z"/>
	<path class="st0" d="M121.1,59.2c0.2-0.1,0.3-0.3,0.5-0.5c0.6-0.8,1.1-1.6,1.7-2.3c0.3-0.4,0.3-0.4,0.7-0.1
		c0.4,0.3,0.9,0.6,1.3,0.9c0.3,0.2,0.3,0.3,0.1,0.6c-0.8,1.1-1.7,2.2-2.5,3.3c-0.1,0.1-0.2,0.3-0.3,0.4c-0.3,0.3-0.3,0.6-0.1,1
		c0.5,1.1,1,2.1,1.5,3.2c0.1,0.1,0.1,0.3,0.2,0.4c0.1,0.3,0.1,0.4-0.3,0.5c-0.4,0.1-0.8,0.1-1.2,0.2c-0.6,0.1-1.1,0.2-1.7,0.3
		c-0.3,0.1-0.5,0-0.6-0.3c-0.2-0.4-0.3-0.7-0.5-1.1c-0.2-0.4-0.3-0.5-0.6-0.1c-0.5,0.5-0.9,0.9-1.4,1.3c-1.1,0.9-2.4,1.5-3.8,1.6
		c-1.9,0.3-3.5-0.7-4.1-2.6c-0.4-1.2-0.3-2.3-0.1-3.5c0.3-2,1.2-3.8,2.5-5.4c0.6-0.8,1.2-1.5,1.9-2.2c0.4-0.5,0.4-0.5,0.2-1
		c-1.1-2.2-1.4-4.4-0.7-6.8c0.5-1.8,1.5-3.4,3.2-4.5c1.1-0.7,2.2-1.1,3.5-1.1c1.9,0,3.1,1.1,3.3,3c0.1,1.4-0.2,2.7-0.8,3.9
		c-0.7,1.5-1.7,2.7-2.7,4c-0.4,0.5-0.8,0.9-1.3,1.4c-0.2,0.2-0.3,0.4-0.1,0.6c0.7,1.5,1.3,3,2,4.5C120.8,58.8,120.9,59.1,121.1,59.2
		z M113.1,62.5c0,0.1,0,0.3,0,0.5c0.2,1.8,1.5,2.5,3.1,1.7c0,0,0.1,0,0.1-0.1c0.7-0.4,1.3-1,1.9-1.6c0.2-0.2,0.2-0.4,0.1-0.6
		c-0.8-1.7-1.5-3.4-2.3-5c-0.2-0.3-0.2-0.4-0.5-0.1c-0.6,0.7-1.2,1.4-1.6,2.2C113.4,60.4,113.1,61.4,113.1,62.5z M117.5,51.3
		c0,0,0.1,0,0.1,0c1.2-1.2,2.1-2.4,2.6-4c0.1-0.3,0.2-0.6,0.2-0.9c0-0.6-0.1-1.1-0.6-1.4c-0.5-0.3-1-0.2-1.5,0.1
		c-0.4,0.2-0.7,0.6-1,1C116.4,47.3,116.5,49.8,117.5,51.3z"/>
	<path class="st0" d="M162.7,45.8c0.2,4.4,0.4,8.9,0.7,13.3c0,0.7,0,0.7-0.6,0.8c-0.8,0.1-1.7,0.3-2.5,0.4c-0.6,0.1-0.6,0.1-0.6-0.5
		c0-1.6-0.1-3.1-0.1-4.7c0-0.1,0-0.3,0-0.4c0-0.2-0.1-0.3-0.3-0.3c-0.3,0.1-0.7,0.1-1,0.2c-1.1,0.2-2.1,0.4-3.2,0.5
		c-0.4,0.1-0.6,0.2-0.8,0.7c-0.5,1.8-1.1,3.5-1.7,5.3c-0.1,0.5-0.4,0.7-0.9,0.8c-0.9,0.1-1.7,0.3-2.6,0.4c-0.4,0.1-0.5,0-0.3-0.4
		c0.4-1.1,0.8-2.3,1.2-3.4c2.9-8.5,5.8-17,8.7-25.5c0.2-0.5,0.4-0.8,1-0.9c0.6,0,1.2-0.2,1.8-0.3c0.6-0.1,0.6-0.1,0.6,0.5
		c0.1,2.3,0.2,4.5,0.3,6.8C162.5,41.3,162.6,43.6,162.7,45.8z M159.1,40.7c-0.2,0.1-0.2,0.2-0.2,0.4c-0.3,1-0.6,2-1,3
		c-0.7,2.2-1.4,4.4-2.1,6.5c-0.2,0.6-0.1,0.6,0.4,0.5c0.8-0.1,1.6-0.3,2.3-0.4c0.8-0.1,0.8-0.1,0.7-0.9c-0.1-2.8-0.1-5.6-0.2-8.4
		C159.2,41.2,159.2,40.9,159.1,40.7z"/>
	<path class="st0" d="M33.3,81.8c-0.4,0-0.4-0.2-0.3-0.4c0.3-1.5,0.5-3,0.8-4.6c1.1-6.6,2.2-13.2,3.3-19.7c0.1-0.8,0.1-0.8-0.7-0.7
		c-1,0.2-2.1,0.3-3.1,0.5c-0.4,0.1-0.5,0-0.4-0.4c0.2-1,0.3-1.9,0.5-2.9c0.1-0.6,0.1-0.6,0.7-0.7c2.4-0.4,4.8-0.8,7.2-1.2
		c1.4-0.2,2.8-0.5,4.2-0.7c0.7-0.1,0.7-0.1,0.6,0.6c-0.1,0.8-0.3,1.7-0.4,2.5c-0.1,0.7-0.1,0.7-0.8,0.8c-1,0.2-2.1,0.3-3.1,0.5
		c-0.6,0.1-0.6,0.1-0.7,0.7C40,62,39,67.7,38.1,73.5c-0.4,2.4-0.8,4.8-1.2,7.2c-0.1,0.6-0.1,0.6-0.8,0.7
		C35.2,81.5,34.2,81.7,33.3,81.8z"/>
	<path class="st0" d="M89.4,44c-0.2,1.2-0.4,2.3-0.5,3.4c0,0.3-0.2,0.4-0.5,0.4c-1,0.2-2.1,0.3-3.1,0.5c-0.9,0.2-0.8,0-1,1
		c-1.3,8-2.6,16-3.9,24c-0.1,0.6-0.1,0.6-0.7,0.7c-0.9,0.2-1.8,0.3-2.7,0.5c-0.4,0.1-0.5,0-0.4-0.4c0.3-1.7,0.5-3.3,0.8-5
		c1-6.4,2.1-12.9,3.1-19.3c0.1-0.7,0.1-0.7-0.6-0.6c-0.9,0.2-1.9,0.3-2.8,0.5c-0.1,0-0.3,0.1-0.4,0.1c-0.4,0-0.4,0-0.4-0.4
		c0.1-0.4,0.1-0.9,0.2-1.3c0.1-0.6,0.2-1.1,0.3-1.7c0.1-0.5,0.1-0.5,0.6-0.6c1.8-0.3,3.6-0.6,5.3-0.9c2-0.3,4-0.7,6-1
		c0.1,0,0.2,0,0.3-0.1C89.3,43.8,89.4,43.9,89.4,44z"/>
	<path class="st0" d="M177.3,53.4c1.4-0.2,2.7-0.4,3.9-0.7c0.8-0.1,1.7-0.3,2.5-0.4c0.6-0.1,0.6-0.1,0.5,0.5c-0.1,1-0.3,2-0.4,3
		c-0.1,0.6-0.1,0.6-0.7,0.7c-2.4,0.4-4.8,0.8-7.2,1.2c-0.9,0.2-1.8,0.3-2.7,0.5c-0.6,0.1-0.6,0.1-0.5-0.5c0.4-2.8,0.8-5.5,1.2-8.3
		c1-6.4,1.9-12.8,2.9-19.3c0.2-1,0.1-0.9,1-1c0.7-0.1,1.5-0.2,2.2-0.4c0.6-0.1,0.6-0.1,0.5,0.5c-0.5,3.1-0.9,6.1-1.4,9.2
		c-0.7,4.7-1.4,9.5-2.1,14.2c0,0.1,0,0.3-0.1,0.4C177,53.3,177.1,53.4,177.3,53.4z"/>
	<path class="st0" d="M165.4,59c0.2-1.5,0.5-3,0.7-4.5c1.2-7.8,2.4-15.6,3.6-23.4c0.1-0.7,0.1-0.7,0.8-0.8c0.7-0.1,1.5-0.2,2.2-0.4
		c0.8-0.1,0.8-0.1,0.7,0.7c-0.2,1.4-0.4,2.7-0.6,4.1c-1.2,7.8-2.4,15.6-3.6,23.5c-0.1,0.7-0.1,0.7-0.9,0.9c-0.8,0.1-1.7,0.3-2.5,0.4
		C165.4,59.4,165.4,59.4,165.4,59z"/>
	<path class="st1" d="M189.9,55.7c0,0.1-0.1,0.1-0.1,0.1c0,0,0,0,0,0C189.8,55.7,189.9,55.7,189.9,55.7
		C189.9,55.8,189.9,55.7,189.9,55.7z"/>
	<path class="st1" d="M57.5,19.5c-0.1,0-0.2,0.1-0.3,0.1c-0.1,0-0.2,0-0.2-0.1C57.1,19.4,57.3,19.4,57.5,19.5z"/>
</g>
</svg>
