<svg xmlns="http://www.w3.org/2000/svg" viewBox="0 0 359.48 429.35">
<clipPath id="heroClip">
<path class="cls-1" d="M381.91,394.68c-3.31-6.76-2.51-14-2.52-21q-.15-105.37-.07-210.76c0-27.42.19-54.85-.16-82.27a6.61,6.61,0,0,1,1.37-4.39c1.5-1.91,2.26-4,1-6.38a8.74,8.74,0,0,0-1.14-.32l.15-.36c-.92-1.26-.21-3.36-2.11-4.12-.11-.63-.24-1.25-.91-1.53a1.94,1.94,0,0,0-2.19-1.7,4.08,4.08,0,0,0-.55-.76c-2.76-1.46-5.53-2.59-8.48-.44l-.72.61c-.91.28-2.48-.58-3.05.31l-.78-.38c-2.06-.55-4-1.66-6.27-.92-1,.28-2,.91-2.95-.19-1.36-1.77-.52-4.56-2.55-6-3.88-2.72-6.06-7.09-10-9.79-2.67-1.8-5-2.74-7.94-1,0,.06-.14-.07-.19,0a10.62,10.62,0,0,0,.31-1.86c0-2.84-1.59-4.86-3.9-4.91-2.48,0-4.17,2.05-4,5.06,0,.45,0,.9.07,1.35a.91.91,0,0,0-.79-.49c-.82,0-1,.68-1,1.36s.05,1.45.87,1.47a.84.84,0,0,0,.82-.62c-.76,3.94-5.46,7.38-9.42,6.58-3.46-.69-6.11-3.61-9.74-3.82a15.06,15.06,0,0,0,.84-1.92c.46.09,1.07.42,1.28-.2.31-.93-.35-1.3-1.17-1.43-.12-.9-.19-1.82-.39-2.7s-.43-2.36-1.54-2.52c-1.37-.19-1.11,1.46-1.7,2.17-1.72,2.06-.82,4-.09,5.89a59,59,0,0,1-6.07-.24c-5.5-.72-7.59,1.19-8.18,6.85a17.17,17.17,0,0,1-.37,2.26l.09.16L287,55.6c-.39-.44-.64-1.48-1.31-1s-.33,1.36.35,1.92h0l.19.35c-.56,0-1.11,0-1.66-.11-1-.33-2,.11-3-.07,0-.1,0-.2,0-.31,0-.47.49-.92.55-1.41.13-1-.12-2.06-1.39-1.38a1.47,1.47,0,0,0-.74,2c-1-.93-2.16-1.7-3.5-1.06-3.5,1.66-7.16,1-10.75,1.36-.36.13-.7.28-1.06.4,0,0-.29-.06-.3,0a2.86,2.86,0,0,1-.46-.46,24.21,24.21,0,0,1-1.59-2,1.22,1.22,0,0,0,.09-1.26c2.66,2.18,4.67-.15,7.71-.45-2.41-1.85-4.25-.55-5.92-1-1.51-.35-2.61.47-3.74,1.19-.16-.14-.33-.27-.48-.42-1.25-.85-2.74-1.39-3.57-2.77a9,9,0,0,0-1-.84,1.12,1.12,0,0,0-.71-.66.52.52,0,0,0-.55,0l-.15-.06a5.11,5.11,0,0,0-1.7,0l-.08,0c.27-.67,1-1.16,1.18-1.87-2.51-1.05-2.33.43-2,2l-.06.09c-1.06.07-1.88-.72-2.77-1.28C242,44.26,235.36,46,228.74,46a12.83,12.83,0,0,1-3.21,1.54,3,3,0,0,0-.87.57c-.28.33-.53.68-.83,1-.6-.67-1.46-.49-2.26-.5a10.61,10.61,0,0,1-3.07-.3c-2.33-1-2.46.49-2.62,2.07-4.8-1.43-9.86-.6-14.72-1.61-1-.21-1.38.49-1.64,1.29a3.47,3.47,0,0,1-2.39.82,2,2,0,0,1,0-.64c.43-.2,1.23-.08,1.1-.8-.24-1.32-1.42-.92-2.21-.9-8.44.23-16.85-.29-25.26-.85a8.83,8.83,0,0,0-6.18-.39A3.16,3.16,0,0,0,168,48.47c.76.35,1.93-.26,2.31,1h0c-2.17-.35-4.37.11-6.57-.59-1.72-.55-1.12.64-.56,1.44l-1.56,1.28v.93l-.24,0c-1,.08-1.94-.58-3-.43a4.06,4.06,0,0,1-2.47,0l-1.85-.92a4.11,4.11,0,0,0-1-.35,5.52,5.52,0,0,0-1.62-.45,6,6,0,0,0-3.73.31,6.8,6.8,0,0,1-2.38.57,3.18,3.18,0,0,0-1.93.85l-.21.82a2.7,2.7,0,0,0-.73,1.42,1.75,1.75,0,0,1-1.75,0c-3.33.61-6.91-.45-10.07,1.4-.25.23-.49.45-.72.68a8.91,8.91,0,0,0-2.06,0c-1.37-.93-2.21.2-3.18.83h0a4.82,4.82,0,0,0-5.17-.88q-1-.42-2-.93c-3.26-.54-6.06.4-6.76,3.76s-2.62,3.27-5.16,3.26c-5.75,0-11.46-.83-17.22-.82-12.8,0-25.6-.15-38.31-2l-.16.08c0-1.3-.24-2.47-2.59-2.69L49,60.39h0c-2.46,4.29-1,8.65-.13,12.94.36,1.8,1.12,3.5-.46,4.87a1.89,1.89,0,0,0-.66-.57c-.77-.44-1.46-.55-1.89.44h0c-1.37.63-2.92-1.33-4.23.28-.87.15-2-.28-2.53,1,1.31,1.37,2.42-.44,3.58,0l2.9-.12C41.8,80.26,38.12,82.07,34,81.45l.34-.48c.38-.27,1.11-.6,1.08-.78-.34-1.75-2.05-.65-3-1.28-.27-.17.1.72.05,1.13l-3.91.86.22.22a.52.52,0,0,1-.22-.22l-3.09.1L23,80.89v1.58l1.28.08c-2.06,2.61,0,5.86-1.28,8.59V411.05l1.53-.56h0l.8.15h0c.57,1.2-.71,3.25,1.65,3.64.73,1.09,1,3.08,2.52,2.51a3.14,3.14,0,0,0,1.59,2.07,5.15,5.15,0,0,0,.68.15l0,.82c.55.59-3.08.88-.16,1.42,1.18.22,1.64,1,2.47,1.44s.6,2.54,2.39,1.63c2.87,0,5.72,1,8.61.18,3.53.92,4.21.63,3.93-1.67,1,.15,2.4.57,2.42-.75s-1.26-1.52-2.44-.91l-2.33.16-11,0-.84.08-1.5-1.73h0l.25-.46a7.38,7.38,0,0,1,.84.12c2.87,0,5.72.55,8.6-.08a26.36,26.36,0,0,1,9.26-.44c2.32.34,1.68,3.83,3,5.58a5.9,5.9,0,0,0,1,1.2c1.93,1.43,3,3.57,4.48,5.31,2.57,3,5,6.9,10.09,5.76,0,.29.24.49.8.44s.79-.43.89-.91h0c1,.88.1,1.93.24,2.92.41,3,3.83,5.1,6.06,3.33,2.45-1.94,5.29-4.68,5.1-7.72-.28-4.27,1.89-5.76,5-7.16.15,0,.29,0,.44.07-.2.6-.21,1.13.69,1.36s.73-.4.68-1l.62.11c.16,0,.32.08.47.12.19.55.46,1,1,.86a.75.75,0,0,0,.3-.12c1.55,2,4.24,2.59,5.61,4.74-1.1.76-.63,1.54,0,2.31a9.15,9.15,0,0,0-.37,2,4.14,4.14,0,0,0,.83,2.26l.45.23c-1.67,1.06-1.33,2.81-1.1,4.52l0,1.67h0c0,.22,0,.44,0,.67h10.24c.68-2.58,1.59-5.13.77-7.86l.81-1.38c1.94-1.85,2.08-3.43.05-4.66,4.71-.37,6.33-2,7.42-7.28a4.42,4.42,0,0,1,.68-1.64.94.94,0,0,0,.8.37c.15,0,.45-.56.49-.89a2.4,2.4,0,0,0,0-.53,3.49,3.49,0,0,1,3.25.05l.1.06a1.41,1.41,0,0,0,.16,1.78,1.1,1.1,0,0,0,1,0,1,1,0,0,0,.62-.93c1.53.57,3.05,1.19,4.73.56,4.23-1.58,8.71-.69,13-1.31l.66.13c0,.21,0,.43,0,.64h0c.13,1.09,1,.69,1.62.79.14.5-1.61,1.22.12,1.49a7.79,7.79,0,0,0,1.28.07c-.59,3.56,0,4.37,4.52,6.41l-.2.51c1.12,0,2.6.34,3.26-.23a.78.78,0,0,0,.29-.4c6.91,1.46,13.95.91,20.93.88,3.36,0,7.14.08,9.29-3.56,0-.11,0-.22,0-.33l3.85-.08a2.65,2.65,0,0,0,.74-.06h0l2.9-.1,1.77.9h0c-.08.1-.2.19-.22.31s.14.23.23.23c1.05.08,2.88,1.52,2.33-1.29,2.55.05,5.1.05,7.65.16.82,0,1.62.15,1.67-.91s-.77-.81-1.38-.86l0-.79,4.52.09c-.06.45-.13.91-.19,1.36h0c-.59.09-1.39-.23-1.65.55-.21.62.4,1,.88,1.06a15.16,15.16,0,0,0,2.34.11c7.16.17,14.31-.2,21.49.59,3.09.35,6.3,2.06,9.53.43l0-.16a4.16,4.16,0,0,0,.61,0c2.38-1.3,1.92-2.52-.16-3.58l0,0c3.1.52,6.29.52,9.38,1.45s6.75,0,10-1.08c1.52-.49,2.53-1.4,1.9-3.22a.86.86,0,0,0,.54-.49c5.14-.08,10.31.49,15.42-.46,2-1.28,4-.91,5.95.21a14.75,14.75,0,0,0,4.3,0c2.56-.33,5.78-1.51,5.87-3.77.16-3.86,2.42-3.22,4.48-3.19,14.31.22,28.63.17,42.93.8,4.37.2,9.32-1.08,12.36,3.86a2.19,2.19,0,0,0,2.9.32c1.34-.83,1.32-2.12,1-3.48-1.2-5.36-.44-10.9-1.57-16.29a2.37,2.37,0,0,1,.46-.53,4.34,4.34,0,0,0,2.2-.13,67,67,0,0,1,6.61-1.25h0l2.42-1.5h0a2.64,2.64,0,0,0,.68.13c1.46.47,3,1.19,4.15.17a2.5,2.5,0,0,0,.61.24,5.89,5.89,0,0,1,1,.6,5,5,0,0,0,5.88-.27C383,398.62,382.68,396.27,381.91,394.68ZM184.42,426h0Zm0,0h0ZM220.64,53.28h.1l0,.13-.16-.05Zm4.53.42h0c.1,0,.21,0,.31,0ZM201.86,425.94a.38.38,0,0,0,0-.1l.09,0,.09.14ZM170.25,49.35l.14.07-.1,0Zm67.88,377.87h.2l.07,0Z" transform="translate(-23.03 -17.95)"/>
<path class="cls-1" d="M119.43,442.65a1.42,1.42,0,0,0-1.37-.11c-1.27,1.29-.45,2.89-.49,4.38,0,.12,0,.25,0,.38h2.36C119.94,445.72,121,444,119.43,442.65Z" transform="translate(-23.03 -17.95)"/>
<path class="cls-1" d="M123.91,443.91c-1.7.31-.78,2.17-.86,3.39H127C126.22,445.9,126.16,443.49,123.91,443.91Z" transform="translate(-23.03 -17.95)"/>
<path class="cls-1" d="M281.11,35.35c2-.17,1-2,1.37-3.31a22,22,0,0,0-1.76-7.2c-.27-.63-1-.2-1.25.21-1.4,2.33-1.4,4.94-1.05,7.49C278.61,33.94,279.38,35.49,281.11,35.35Z" transform="translate(-23.03 -17.95)"/>
<path class="cls-1" d="M296.41,40.88h0a.36.36,0,0,0,0-.09h-.07s0,.07,0,.1h.1Z" transform="translate(-23.03 -17.95)"/>
<path class="cls-1" d="M299.09,38.54a22.93,22.93,0,0,0-.43-6.51c2.72-1.24,1.87-3.58,1.7-5.68,0-.45-.15-1.15-.83-1a2.9,2.9,0,0,0-1.16.85c-1.7,1.61.18,3.54-.44,5.25-3.65,2.61-2.87,5.94-1.56,9.35C298,40.93,299,40.34,299.09,38.54Z" transform="translate(-23.03 -17.95)"/>
<path class="cls-1" d="M274.82,28.06c1.88,0,.84-2,1.22-3.19-.15-1.58.15-3.64-2.09-3.93-1.74-.22-1.95,1.44-1.85,2.75C272.24,25.6,272.23,28,274.82,28.06Z" transform="translate(-23.03 -17.95)"/>
<path class="cls-1" d="M280,43.57a1.51,1.51,0,0,0-1.52,1.85c.21,1.39,1,2.85,2.49,3,1,.1,1.15-1.18,1.16-2.11C282.14,44.83,281.55,43.7,280,43.57Z" transform="translate(-23.03 -17.95)"/>
<path class="cls-1" d="M130.93,437.91c-1.19-.43-1.5.68-1.53,1.67,0,1.4.24,2.63,1.73,3a1.55,1.55,0,0,0,1.87-1.65A3.28,3.28,0,0,0,130.93,437.91Z" transform="translate(-23.03 -17.95)"/>
<path class="cls-1" d="M366.41,57.93c1.49-.21,4,.74,3.93-1.59-.06-2.58-2.13.07-3.16-.55l-1.37-.16c-1.65-2.06-3.69-1.3-5.7-.81-1.49-.65-2.08.21-2.45,1.46-.15.19-.32.36-.45.56a.41.41,0,0,0,.07.32C360.32,57.43,363.37,57.68,366.41,57.93Z" transform="translate(-23.03 -17.95)"/>
<path class="cls-1" d="M305.52,32.89c-1.71-.14-1.94,1.45-2,2.63a2.44,2.44,0,0,0,2.18,2.7c1.51.11,1.06-1.35,1.07-2.32C306.13,35,307.66,33.05,305.52,32.89Z" transform="translate(-23.03 -17.95)"/>
<path class="cls-1" d="M286.6,36.82c1.48,0,1.22-1.37,1.45-2.47-.34-.93,0-2.68-1.35-2.79s-2,1.48-2,2.81C284.72,35.52,285.08,36.84,286.6,36.82Z" transform="translate(-23.03 -17.95)"/>
<path class="cls-1" d="M125,435.46c1.47.26,1.71-1.11,1.76-2,.09-1.4-1.37-1.84-2.08-2.69-1.4.18-1.44,1.16-1.43,2C123.22,434,123.57,435.21,125,435.46Z" transform="translate(-23.03 -17.95)"/>
<path class="cls-1" d="M275.71,39.18c-.24-.9-.15-2.25-1.69-2.52-1.22-.21-1.73.69-1.58,1.67.2,1.28.77,2.67,2.19,2.88C275.47,41.34,275.58,40.18,275.71,39.18Z" transform="translate(-23.03 -17.95)"/>
<path class="cls-1" d="M295.34,45.44c1.34-.64.91-2,1-3.11a10.11,10.11,0,0,0,0-1.45,3.33,3.33,0,0,0-1.38.25,2.64,2.64,0,0,0-1,3.42C294.15,45.18,294.63,45.79,295.34,45.44Z" transform="translate(-23.03 -17.95)"/>
<path class="cls-1" d="M140.5,435.42l8-.86C145.77,434.39,142.88,433,140.5,435.42Z" transform="translate(-23.03 -17.95)"/>
<path class="cls-1" d="M262.92,43.92c-1.82.16-3.71-.62-5.65,1.17H263C263,44.7,263,44.31,262.92,43.92Z" transform="translate(-23.03 -17.95)"/>
<path class="cls-1" d="M139.46,425c-1,.05-.77,1.1-.8,1.82-1.44.22-3.13-.53-4.61,1.59,2.13-.73,3.91.18,5.56-.85h2.7C141.6,426,140.9,424.88,139.46,425Z" transform="translate(-23.03 -17.95)"/>
<path class="cls-1" d="M130.24,432.84a1.62,1.62,0,0,0,1.36-1.57c0-.73-.3-1.26-1-1.29-1,0-1.25.7-1.27,1.52C129.27,432.15,129.42,432.75,130.24,432.84Z" transform="translate(-23.03 -17.95)"/>
<path class="cls-1" d="M81.23,57.62c-1.51-.43-2.71-.69-4.43.59C78.62,58.94,79.88,59,81.23,57.62Z" transform="translate(-23.03 -17.95)"/>
<path class="cls-1" d="M247.73,432.49c-.75-.15-1.31.41-1.08,1.09.32,1,1.29,1.11,2.22,1.11.54,0,1-.17.95-.86C249.5,432.82,248.56,432.66,247.73,432.49Z" transform="translate(-23.03 -17.95)"/>
<path class="cls-1" d="M352.61,52.48c.37,0,.88-.53,1-.93a1.05,1.05,0,0,0-.84-1.46c-.78-.16-1.09.49-1.3,1.11C351.49,52,351.9,52.52,352.61,52.48Z" transform="translate(-23.03 -17.95)"/>
<path class="cls-1" d="M275,49.16a2,2,0,0,0,.83-1.93c-.11-.61-.52-1-1.07-.8a1.43,1.43,0,0,0-.92,1.87A1,1,0,0,0,275,49.16Z" transform="translate(-23.03 -17.95)"/><path class="cls-1" d="M74.33,50.72c-.91-.83-1.78-.7-3.28.41C72.61,51.59,73.55,52,74.33,50.72Z" transform="translate(-23.03 -17.95)"/>
<path class="cls-1" d="M199.92,431.86c1.2.27,2.43,1.05,3.64-.48C202,430.61,200.94,431.46,199.92,431.86Z" transform="translate(-23.03 -17.95)"/>
<path class="cls-1" d="M85.88,58.21l3.25-1.3C88,57,86.23,55.47,85.88,58.21Z" transform="translate(-23.03 -17.95)"/>
<path class="cls-1" d="M321.76,421.4c1.82.82,2.77.27,3.91-.63A4.14,4.14,0,0,0,321.76,421.4Z" transform="translate(-23.03 -17.95)"/>
<path class="cls-1" d="M219.12,431.88c.78,1.31,1.63,1.48,2.6.8a1,1,0,0,0,.1-.87A2.49,2.49,0,0,0,219.12,431.88Z" transform="translate(-23.03 -17.95)"/>
<path class="cls-1" d="M184.73,47.81c.51,0,1.12-.07,1.15-.72,0-1-.78-.81-1.32-.92-.55.06-1.21,0-1.21.69C183.34,47.71,184,47.83,184.73,47.81Z" transform="translate(-23.03 -17.95)"/>
<path class="cls-1" d="M274.21,50.49c-1-.16-2.08-.51-2.89.52C272.67,52.22,273.41,50.92,274.21,50.49Z" transform="translate(-23.03 -17.95)"/>
<path class="cls-1" d="M158.57,45.73c-.9-1.31-1.86-1.31-3.26-.71C156.4,46.38,157.3,46.72,158.57,45.73Z" transform="translate(-23.03 -17.95)"/>
<path class="cls-1" d="M268.13,42.17c-1.16,1.53-2.34.45-2.75,2.16C266.39,44.35,267.18,44.3,268.13,42.17Z" transform="translate(-23.03 -17.95)"/>
<path class="cls-1" d="M82.42,49.53c-1-.12-2.09-.44-2.61,1C80.67,50.27,81.84,50.73,82.42,49.53Z" transform="translate(-23.03 -17.95)"/><path class="cls-1" d="M329.66,420.23a3.59,3.59,0,0,0,1.16.24c.59-.09,2,0,.83-1.1C331.16,418.87,330.22,419.46,329.66,420.23Z" transform="translate(-23.03 -17.95)"/>
<path class="cls-1" d="M338.29,426.39c-1-.49-1.61.23-2.61.87a3,3,0,0,0,2.81,0A1.16,1.16,0,0,0,338.29,426.39Z" transform="translate(-23.03 -17.95)"/>
<path class="cls-1" d="M306.74,23.57h0c.72-.39,1.72-.24,2.2-1.12,1.28.17,1.82,1.76,3.22,1.68-.43,1.24-1.69.51-2.42,1-1.36,1.27-.85,2.57-.08,3.88,0,.62,0,1.22.71,1.48.66.87,1.1,2.42,2.52.76l1.6-.92c.51.25.71,0,.84-.47,1.16.09,1.66,1.58,2.95,1.4.12.72-.16,1.57.59,2.07a.69.69,0,0,0,1.14-.43c.21-1,.5-2-.81-2.54.2-4.44-.34-4.93-4-3.67-.47-.22-.72,0-.88.44l-.81-.68c.1-1.08.92-2.32-.69-3,.18-4.41.18-4.41-4.78-3.36-1.42,0-1.15-1.84-2.32-2.1L305,18c-3.15,1-3.19,1.37-.66,5.4C305,24.57,305.69,26.06,306.74,23.57Z" transform="translate(-23.03 -17.95)"/>
<path class="cls-1" d="M316.82,421.72a3.13,3.13,0,0,0-.8.58l.68.47c.53-.13.9-.27.7-.74A.68.68,0,0,0,316.82,421.72Z" transform="translate(-23.03 -17.95)"/>
<path class="cls-1" d="M65,50c0-.07-.4-.43-.52-.38a3.51,3.51,0,0,0-.83.57l.77.83A6.06,6.06,0,0,0,65,50Z" transform="translate(-23.03 -17.95)"/>
<path class="cls-1" d="M322.25,429.24c-.35.53.18.63.5.61a3.66,3.66,0,0,0,1-.36l-.49-.89C322.83,428.86,322.43,429,322.25,429.24Z" transform="translate(-23.03 -17.95)"/>
<path class="cls-1" d="M71.43,57.31c0-.71-.64-.7-1.09-.52-.28.11-.44.52-.65.79.32.16.63.32,1,.51C71,57.8,71.44,57.55,71.43,57.31Z" transform="translate(-23.03 -17.95)"/>
<path class="cls-1" d="M39.69,76.44c-.17-.47-1.31-.46-1.83.33.21.12.44.36.58.31C38.91,76.92,40,77.2,39.69,76.44Z" transform="translate(-23.03 -17.95)"/>
<path class="cls-1" d="M373.41,58.81c.48-.05,1-.16,1.07-.84-.35-.63-.83-.34-1.28-.17s-1.09.11-.83.82C372.44,58.8,373.06,58.85,373.41,58.81Z" transform="translate(-23.03 -17.95)"/>
<path class="cls-1" d="M208.43,432.79a1.63,1.63,0,0,0,1.86-.22c.12-.1.05-.42.06-.63A2.1,2.1,0,0,0,208.43,432.79Z" transform="translate(-23.03 -17.95)"/>
<path class="cls-1" d="M354.64,57.88c.75.08,1-.26.93-.64s-.38-.72-.63-.76a.75.75,0,0,0-.88.91C354.09,57.63,354.55,57.81,354.64,57.88Z" transform="translate(-23.03 -17.95)"/>
<path class="cls-1" d="M381.13,388.16c.23-.12.63-.23.81-.49s-.27-.54-.42-.82c-.32.17-.72.26-.92.52S380.6,388,381.13,388.16Z" transform="translate(-23.03 -17.95)"/>
<path class="cls-1" d="M366.15,402a.74.74,0,0,0-.46.5c0,.12.26.31.41.47.23-.14.57-.21.63-.38C366.9,402.1,366.59,401.89,366.15,402Z" transform="translate(-23.03 -17.95)"/><path class="cls-1" d="M346.21,45.32c.62.09.84-.44,1-1,0-.54-.12-1.15-.72-1.23s-.9.47-1,1S345.59,45.23,346.21,45.32Z" transform="translate(-23.03 -17.95)"/>
<path class="cls-1" d="M330.86,427.63c-.73,0-1.47.05-2.21.09-.64-.13-1.48-.33-1.77.34-.43,1,.62.9,1.12,1.05a2.2,2.2,0,0,0,2.51-.59c.53-.1,1.4.27,1.49-.5S331.27,427.64,330.86,427.63Zm-2.21.09.49.21A1,1,0,0,1,328.65,427.72Z" transform="translate(-23.03 -17.95)"/>
<path class="cls-1" d="M58.69,433.73a1.66,1.66,0,0,0-.84,1.12c-.13.71.35,1.17,1,1.36a1.4,1.4,0,0,0,1-1.45C59.86,434,59.43,433.5,58.69,433.73Z" transform="translate(-23.03 -17.95)"/>
<path class="cls-1" d="M51.85,427.89c0,.39.37.81.71,1.46.41-.68.85-1.09.84-1.49s-.51-.73-.8-1.09C52.33,427.14,51.87,427.5,51.85,427.89Z" transform="translate(-23.03 -17.95)"/>
</clipPath></svg>